SplineFontDB: 3.0
FontName: CleanVGA
FullName: CleanVGA
FamilyName: CleanVGA
Weight: Book
Copyright: Outline (vector) version by VileR, 2020\nCleaned shapes added bitmaps in 14, 16, 18 and 20
Version: 2024-07
ItalicAngle: 0
UnderlinePosition: -350
UnderlineWidth: 100
Ascent: 1200
Descent: 400
InvalidEm: 0
sfntRevision: 0x00010000
LayerCount: 2
Layer: 0 1 "Back" 1
Layer: 1 1 "Fore" 0
XUID: [1021 8 379250093 1404011]
StyleMap: 0x0000
FSType: 0
OS2Version: 4
OS2_WeightWidthSlopeOnly: 0
OS2_UseTypoMetrics: 1
CreationTime: 1445036806
ModificationTime: 1721656314
PfmFamily: 81
TTFWeight: 400
TTFWidth: 5
LineGap: 0
VLineGap: 0
Panose: 0 0 0 9 0 0 0 0 0 0
OS2TypoAscent: 1200
OS2TypoAOffset: 0
OS2TypoDescent: -400
OS2TypoDOffset: 0
OS2TypoLinegap: 0
OS2WinAscent: 1200
OS2WinAOffset: 0
OS2WinDescent: 400
OS2WinDOffset: 0
HheadAscent: 1200
HheadAOffset: 0
HheadDescent: -400
HheadDOffset: 0
OS2SubXSize: 1600
OS2SubYSize: 1600
OS2SubXOff: 0
OS2SubYOff: 800
OS2SupXSize: 1600
OS2SupYSize: 1600
OS2SupXOff: 0
OS2SupYOff: 800
OS2StrikeYSize: 100
OS2StrikeYPos: 600
OS2CapHeight: 1000
OS2XHeight: 700
OS2Vendor: 'V.R.'
OS2CodePages: 600000bf.dff70000
OS2UnicodeRanges: a0000abf.4000f8fb.00000020.00000000
MarkAttachClasses: 1
DEI: 91125
ShortTable: maxp 16
  1
  0
  782
  256
  64
  0
  0
  2
  0
  0
  0
  0
  0
  0
  0
  0
EndShort
LangName: 1033 "" "" "Regular" "" "" "v2.2-2020-11" "" "" "VileR" "VileR" "" "http://int10h.org" "http://int10h.org" "Creative Commons Attribution-ShareAlike 4.0 International" "http://creativecommons.org/licenses/by-sa/4.0/" "" "" "" "PxPlus IBM VGA 9x16"
GaspTable: 1 65535 0 1
Encoding: UnicodeBmp
UnicodeInterp: none
NameList: AGL For New Fonts
DisplaySize: -48
AntiAlias: 0
FitToEm: 0
WinInfo: 0 21 14
BeginPrivate: 0
EndPrivate
TeXData: 1 0 0 589824 294912 196608 458752 1048576 196608 783286 444596 497025 792723 393216 433062 380633 303038 157286 324010 404750 52429 2506097 1059062 262144
BeginChars: 65537 782

StartChar: .notdef
Encoding: 65536 -1 0
Width: 900
Flags: W
LayerCount: 2
Fore
SplineSet
900 1200 m 1,0,-1
 900 -400 l 1,1,-1
 0 -400 l 1,2,-1
 0 1200 l 1,3,-1
 900 1200 l 1,0,-1
200 1000 m 1,4,-1
 200 900 l 1,5,-1
 100 900 l 1,6,-1
 100 700 l 1,7,-1
 300 700 l 1,8,-1
 300 900 l 1,9,-1
 600 900 l 1,10,-1
 600 700 l 1,11,-1
 500 700 l 1,12,-1
 500 600 l 1,13,-1
 400 600 l 1,14,-1
 400 300 l 1,15,-1
 600 300 l 1,16,-1
 600 600 l 1,17,-1
 700 600 l 1,18,-1
 700 700 l 1,19,-1
 800 700 l 1,20,-1
 800 900 l 1,21,-1
 700 900 l 1,22,-1
 700 1000 l 1,23,-1
 200 1000 l 1,4,-1
400 200 m 1,24,-1
 400 0 l 1,25,-1
 600 0 l 1,26,-1
 600 200 l 1,27,-1
 400 200 l 1,24,-1
EndSplineSet
Validated: 1
EndChar

StartChar: uni000D
Encoding: 13 13 2
Width: 900
GlyphClass: 2
Flags: W
LayerCount: 2
Fore
SplineSet
0 200 m 1,0,-1
 100 200 l 1,1,-1
 100 300 l 1,2,-1
 200 300 l 1,3,-1
 200 1000 l 1,4,-1
 800 1000 l 1,5,-1
 800 700 l 1,6,-1
 400 700 l 1,7,-1
 400 100 l 1,8,-1
 300 100 l 1,9,-1
 300 0 l 1,10,-1
 0 0 l 1,11,-1
 0 200 l 1,0,-1
400 900 m 1,12,-1
 400 800 l 1,13,-1
 600 800 l 1,14,-1
 600 900 l 1,15,-1
 400 900 l 1,12,-1
EndSplineSet
Validated: 1
EndChar

StartChar: uni0001
Encoding: 1 1 3
Width: 900
GlyphClass: 2
Flags: W
LayerCount: 2
Fore
SplineSet
0 100 m 1,0,-1
 0 900 l 1,1,-1
 100 900 l 1,2,-1
 100 100 l 1,3,-1
 0 100 l 1,0,-1
200 400 m 1,4,-1
 200 500 l 1,5,-1
 600 500 l 1,6,-1
 600 400 l 1,7,-1
 500 400 l 1,8,-1
 500 300 l 1,9,-1
 300 300 l 1,10,-1
 300 400 l 1,11,-1
 200 400 l 1,4,-1
200 700 m 1,12,-1
 200 800 l 1,13,-1
 300 800 l 1,14,-1
 300 700 l 1,15,-1
 200 700 l 1,12,-1
600 700 m 1,16,-1
 500 700 l 1,17,-1
 500 800 l 1,18,-1
 600 800 l 1,19,-1
 600 700 l 1,16,-1
800 100 m 1,20,-1
 700 100 l 1,21,-1
 700 900 l 1,22,-1
 800 900 l 1,23,-1
 800 100 l 1,20,-1
100 100 m 1,24,-1
 700 100 l 1,25,-1
 700 0 l 1,26,-1
 100 0 l 1,27,-1
 100 100 l 1,24,-1
100 900 m 1,28,-1
 100 1000 l 1,29,-1
 700 1000 l 1,30,-1
 700 900 l 1,31,-1
 100 900 l 1,28,-1
EndSplineSet
Validated: 5
EndChar

StartChar: uni0002
Encoding: 2 2 4
Width: 900
GlyphClass: 2
Flags: W
LayerCount: 2
Fore
SplineSet
0 100 m 1,0,-1
 0 900 l 1,1,-1
 100 900 l 1,2,-1
 100 1000 l 1,3,-1
 700 1000 l 1,4,-1
 700 900 l 1,5,-1
 800 900 l 1,6,-1
 800 100 l 1,7,-1
 700 100 l 1,8,-1
 700 0 l 1,9,-1
 100 0 l 1,10,-1
 100 100 l 1,11,-1
 0 100 l 1,0,-1
200 500 m 1,12,-1
 200 400 l 1,13,-1
 300 400 l 1,14,-1
 300 300 l 1,15,-1
 500 300 l 1,16,-1
 500 400 l 1,17,-1
 600 400 l 1,18,-1
 600 500 l 1,19,-1
 200 500 l 1,12,-1
200 700 m 1,20,-1
 300 700 l 1,21,-1
 300 800 l 1,22,-1
 200 800 l 1,23,-1
 200 700 l 1,20,-1
600 700 m 1,24,-1
 600 800 l 1,25,-1
 500 800 l 1,26,-1
 500 700 l 1,27,-1
 600 700 l 1,24,-1
EndSplineSet
Validated: 1
EndChar

StartChar: uni0003
Encoding: 3 3 5
Width: 900
GlyphClass: 2
Flags: W
LayerCount: 2
Fore
SplineSet
0 300 m 1,0,-1
 0 700 l 1,1,-1
 100 700 l 1,2,-1
 100 800 l 1,3,-1
 300 800 l 1,4,-1
 300 700 l 1,5,-1
 400 700 l 1,6,-1
 400 800 l 1,7,-1
 600 800 l 1,8,-1
 600 700 l 1,9,-1
 700 700 l 1,10,-1
 700 300 l 1,11,-1
 600 300 l 1,12,-1
 600 200 l 1,13,-1
 500 200 l 1,14,-1
 500 100 l 1,15,-1
 400 100 l 1,16,-1
 400 0 l 1,17,-1
 300 0 l 1,18,-1
 300 100 l 1,19,-1
 200 100 l 1,20,-1
 200 200 l 1,21,-1
 100 200 l 1,22,-1
 100 300 l 1,23,-1
 0 300 l 1,0,-1
EndSplineSet
Validated: 1
EndChar

StartChar: uni0004
Encoding: 4 4 6
Width: 900
GlyphClass: 2
Flags: W
LayerCount: 2
Fore
SplineSet
0 400 m 1,0,-1
 0 500 l 1,1,-1
 100 500 l 1,2,-1
 100 600 l 1,3,-1
 200 600 l 1,4,-1
 200 700 l 1,5,-1
 300 700 l 1,6,-1
 300 800 l 1,7,-1
 400 800 l 1,8,-1
 400 700 l 1,9,-1
 500 700 l 1,10,-1
 500 600 l 1,11,-1
 600 600 l 1,12,-1
 600 500 l 1,13,-1
 700 500 l 1,14,-1
 700 400 l 1,15,-1
 600 400 l 1,16,-1
 600 300 l 1,17,-1
 500 300 l 1,18,-1
 500 200 l 1,19,-1
 400 200 l 1,20,-1
 400 100 l 1,21,-1
 300 100 l 1,22,-1
 300 200 l 1,23,-1
 200 200 l 1,24,-1
 200 300 l 1,25,-1
 100 300 l 1,26,-1
 100 400 l 1,27,-1
 0 400 l 1,0,-1
EndSplineSet
Validated: 1
EndChar

StartChar: uni0005
Encoding: 5 5 7
Width: 900
GlyphClass: 2
Flags: W
LayerCount: 2
Fore
SplineSet
0 300 m 1,0,-1
 0 600 l 1,1,-1
 200 600 l 1,2,-1
 200 800 l 1,3,-1
 300 800 l 1,4,-1
 300 900 l 1,5,-1
 500 900 l 1,6,-1
 500 800 l 1,7,-1
 600 800 l 1,8,-1
 600 600 l 1,9,-1
 800 600 l 1,10,-1
 800 300 l 1,11,-1
 500 300 l 1,12,-1
 500 600 l 1,13,-1
 300 600 l 1,14,-1
 300 300 l 1,15,-1
 0 300 l 1,0,-1
200 0 m 1,16,-1
 200 100 l 1,17,-1
 300 100 l 1,18,-1
 300 300 l 1,19,-1
 500 300 l 1,20,-1
 500 100 l 1,21,-1
 600 100 l 1,22,-1
 600 0 l 1,23,-1
 200 0 l 1,16,-1
EndSplineSet
Validated: 5
EndChar

StartChar: uni0006
Encoding: 6 6 8
Width: 900
GlyphClass: 2
Flags: W
LayerCount: 2
Fore
SplineSet
0 400 m 1,0,-1
 0 600 l 1,1,-1
 100 600 l 1,2,-1
 100 700 l 1,3,-1
 200 700 l 1,4,-1
 200 800 l 1,5,-1
 300 800 l 1,6,-1
 300 900 l 1,7,-1
 500 900 l 1,8,-1
 500 800 l 1,9,-1
 600 800 l 1,10,-1
 600 700 l 1,11,-1
 700 700 l 1,12,-1
 700 600 l 1,13,-1
 800 600 l 1,14,-1
 800 400 l 1,15,-1
 700 400 l 1,16,-1
 700 300 l 1,17,-1
 500 300 l 1,18,-1
 500 100 l 1,19,-1
 600 100 l 1,20,-1
 600 0 l 1,21,-1
 200 0 l 1,22,-1
 200 100 l 1,23,-1
 300 100 l 1,24,-1
 300 300 l 1,25,-1
 100 300 l 1,26,-1
 100 400 l 1,27,-1
 0 400 l 1,0,-1
EndSplineSet
Validated: 1
EndChar

StartChar: uni0007
Encoding: 7 7 9
Width: 900
GlyphClass: 2
Flags: W
LayerCount: 2
Fore
SplineSet
500 200 m 1,0,-1
 300 200 l 1,1,-1
 300 300 l 1,2,-1
 200 300 l 1,3,-1
 200 500 l 1,4,-1
 300 500 l 1,5,-1
 300 600 l 1,6,-1
 500 600 l 1,7,-1
 500 500 l 1,8,-1
 600 500 l 1,9,-1
 600 300 l 1,10,-1
 500 300 l 1,11,-1
 500 200 l 1,0,-1
EndSplineSet
Validated: 1
EndChar

StartChar: uni0008
Encoding: 8 8 10
Width: 900
GlyphClass: 2
Flags: W
LayerCount: 2
Fore
SplineSet
0 -400 m 1,0,-1
 0 1200 l 1,1,-1
 800 1200 l 1,2,-1
 800 -400 l 1,3,-1
 0 -400 l 1,0,-1
200 300 m 1,4,-1
 300 300 l 1,5,-1
 300 200 l 1,6,-1
 500 200 l 1,7,-1
 500 300 l 1,8,-1
 600 300 l 1,9,-1
 600 500 l 1,10,-1
 500 500 l 1,11,-1
 500 600 l 1,12,-1
 300 600 l 1,13,-1
 300 500 l 1,14,-1
 200 500 l 1,15,-1
 200 300 l 1,4,-1
EndSplineSet
Validated: 1
EndChar

StartChar: uni0009
Encoding: 9 9 11
Width: 900
GlyphClass: 2
Flags: W
LayerCount: 2
Fore
SplineSet
100 200 m 1,0,-1
 100 600 l 1,1,-1
 200 600 l 1,2,-1
 200 700 l 1,3,-1
 600 700 l 1,4,-1
 600 600 l 1,5,-1
 700 600 l 1,6,-1
 700 200 l 1,7,-1
 600 200 l 1,8,-1
 600 100 l 1,9,-1
 200 100 l 1,10,-1
 200 200 l 1,11,-1
 100 200 l 1,0,-1
200 300 m 1,12,-1
 300 300 l 1,13,-1
 300 200 l 1,14,-1
 500 200 l 1,15,-1
 500 300 l 1,16,-1
 600 300 l 1,17,-1
 600 500 l 1,18,-1
 500 500 l 1,19,-1
 500 600 l 1,20,-1
 300 600 l 1,21,-1
 300 500 l 1,22,-1
 200 500 l 1,23,-1
 200 300 l 1,12,-1
EndSplineSet
Validated: 1
EndChar

StartChar: uni000A
Encoding: 10 10 12
Width: 900
GlyphClass: 2
Flags: W
LayerCount: 2
Fore
SplineSet
0 -400 m 1,0,-1
 0 1200 l 1,1,-1
 800 1200 l 1,2,-1
 800 -400 l 1,3,-1
 0 -400 l 1,0,-1
200 200 m 1,4,-1
 200 100 l 1,5,-1
 600 100 l 1,6,-1
 600 200 l 1,7,-1
 700 200 l 1,8,-1
 700 600 l 1,9,-1
 600 600 l 1,10,-1
 600 700 l 1,11,-1
 200 700 l 1,12,-1
 200 600 l 1,13,-1
 100 600 l 1,14,-1
 100 200 l 1,15,-1
 200 200 l 1,4,-1
200 500 m 1,16,-1
 300 500 l 1,17,-1
 300 600 l 1,18,-1
 500 600 l 1,19,-1
 500 500 l 1,20,-1
 600 500 l 1,21,-1
 600 300 l 1,22,-1
 500 300 l 1,23,-1
 500 200 l 1,24,-1
 300 200 l 1,25,-1
 300 300 l 1,26,-1
 200 300 l 1,27,-1
 200 500 l 1,16,-1
EndSplineSet
Validated: 1
EndChar

StartChar: uni000B
Encoding: 11 11 13
Width: 900
GlyphClass: 2
Flags: W
LayerCount: 2
Fore
SplineSet
0 100 m 1,0,-1
 0 500 l 1,1,-1
 100 500 l 1,2,-1
 100 600 l 1,3,-1
 200 600 l 1,4,-1
 200 700 l 1,5,-1
 300 700 l 1,6,-1
 300 800 l 1,7,-1
 400 800 l 1,8,-1
 400 900 l 1,9,-1
 300 900 l 1,10,-1
 300 1000 l 1,11,-1
 700 1000 l 1,12,-1
 700 600 l 1,13,-1
 600 600 l 1,14,-1
 600 800 l 1,15,-1
 500 800 l 1,16,-1
 500 700 l 1,17,-1
 400 700 l 1,18,-1
 400 600 l 1,19,-1
 500 600 l 1,20,-1
 500 500 l 1,21,-1
 600 500 l 1,22,-1
 600 100 l 1,23,-1
 500 100 l 1,24,-1
 500 0 l 1,25,-1
 100 0 l 1,26,-1
 100 100 l 1,27,-1
 0 100 l 1,0,-1
200 100 m 1,28,-1
 400 100 l 1,29,-1
 400 500 l 1,30,-1
 200 500 l 1,31,-1
 200 100 l 1,28,-1
EndSplineSet
Validated: 1
EndChar

StartChar: uni000C
Encoding: 12 12 14
Width: 900
GlyphClass: 2
Flags: W
LayerCount: 2
Fore
SplineSet
200 500 m 1,0,-1
 100 500 l 1,1,-1
 100 900 l 1,2,-1
 200 900 l 1,3,-1
 200 1000 l 1,4,-1
 600 1000 l 1,5,-1
 600 900 l 1,6,-1
 700 900 l 1,7,-1
 700 500 l 1,8,-1
 600 500 l 1,9,-1
 600 400 l 1,10,-1
 500 400 l 1,11,-1
 500 300 l 1,12,-1
 700 300 l 1,13,-1
 700 200 l 1,14,-1
 500 200 l 1,15,-1
 500 0 l 1,16,-1
 300 0 l 1,17,-1
 300 200 l 1,18,-1
 100 200 l 1,19,-1
 100 300 l 1,20,-1
 300 300 l 1,21,-1
 300 400 l 1,22,-1
 200 400 l 1,23,-1
 200 500 l 1,0,-1
300 500 m 1,24,-1
 500 500 l 1,25,-1
 500 900 l 1,26,-1
 300 900 l 1,27,-1
 300 500 l 1,24,-1
EndSplineSet
Validated: 1
EndChar

StartChar: uni000E
Encoding: 14 14 15
Width: 900
GlyphClass: 2
Flags: W
LayerCount: 2
Fore
SplineSet
0 200 m 1,0,-1
 100 200 l 1,1,-1
 100 1000 l 1,2,-1
 800 1000 l 1,3,-1
 800 100 l 1,4,-1
 700 100 l 1,5,-1
 700 0 l 1,6,-1
 500 0 l 1,7,-1
 500 300 l 1,8,-1
 600 300 l 1,9,-1
 600 700 l 1,10,-1
 300 700 l 1,11,-1
 300 0 l 1,12,-1
 200 0 l 1,13,-1
 200 -100 l 1,14,-1
 0 -100 l 1,15,-1
 0 200 l 1,0,-1
300 900 m 1,16,-1
 300 800 l 1,17,-1
 600 800 l 1,18,-1
 600 900 l 1,19,-1
 300 900 l 1,16,-1
EndSplineSet
Validated: 1
EndChar

StartChar: uni000F
Encoding: 15 15 16
Width: 900
GlyphClass: 2
Flags: W
LayerCount: 2
Fore
SplineSet
0 200 m 1,0,-1
 0 300 l 1,1,-1
 200 300 l 1,2,-1
 200 200 l 1,3,-1
 0 200 l 1,0,-1
0 400 m 1,4,-1
 0 500 l 1,5,-1
 200 500 l 1,6,-1
 200 600 l 1,7,-1
 300 600 l 1,8,-1
 300 900 l 1,9,-1
 500 900 l 1,10,-1
 500 600 l 1,11,-1
 600 600 l 1,12,-1
 600 500 l 1,13,-1
 800 500 l 1,14,-1
 800 400 l 1,15,-1
 600 400 l 1,16,-1
 600 300 l 1,17,-1
 500 300 l 1,18,-1
 500 0 l 1,19,-1
 300 0 l 1,20,-1
 300 300 l 1,21,-1
 200 300 l 1,22,-1
 200 400 l 1,23,-1
 0 400 l 1,4,-1
0 600 m 1,24,-1
 0 700 l 1,25,-1
 200 700 l 1,26,-1
 200 600 l 1,27,-1
 0 600 l 1,24,-1
600 200 m 1,28,-1
 600 300 l 1,29,-1
 800 300 l 1,30,-1
 800 200 l 1,31,-1
 600 200 l 1,28,-1
600 600 m 1,32,-1
 600 700 l 1,33,-1
 800 700 l 1,34,-1
 800 600 l 1,35,-1
 600 600 l 1,32,-1
300 500 m 1,36,-1
 300 400 l 1,37,-1
 500 400 l 1,38,-1
 500 500 l 1,39,-1
 300 500 l 1,36,-1
EndSplineSet
Validated: 5
EndChar

StartChar: uni0010
Encoding: 16 16 17
Width: 900
GlyphClass: 2
Flags: W
LayerCount: 2
Fore
SplineSet
0 0 m 1,0,-1
 0 1100 l 1,1,-1
 100 1100 l 1,2,-1
 100 1000 l 1,3,-1
 200 1000 l 1,4,-1
 200 900 l 1,5,-1
 300 900 l 1,6,-1
 300 800 l 1,7,-1
 400 800 l 1,8,-1
 400 700 l 1,9,-1
 500 700 l 1,10,-1
 500 600 l 1,11,-1
 700 600 l 1,12,-1
 700 500 l 1,13,-1
 500 500 l 1,14,-1
 500 400 l 1,15,-1
 400 400 l 1,16,-1
 400 300 l 1,17,-1
 300 300 l 1,18,-1
 300 200 l 1,19,-1
 200 200 l 1,20,-1
 200 100 l 1,21,-1
 100 100 l 1,22,-1
 100 0 l 1,23,-1
 0 0 l 1,0,-1
EndSplineSet
Validated: 1
EndChar

StartChar: uni0011
Encoding: 17 17 18
Width: 900
GlyphClass: 2
Flags: W
LayerCount: 2
Fore
SplineSet
0 500 m 1,0,-1
 0 600 l 1,1,-1
 200 600 l 1,2,-1
 200 700 l 1,3,-1
 300 700 l 1,4,-1
 300 800 l 1,5,-1
 400 800 l 1,6,-1
 400 900 l 1,7,-1
 500 900 l 1,8,-1
 500 1000 l 1,9,-1
 600 1000 l 1,10,-1
 600 1100 l 1,11,-1
 700 1100 l 1,12,-1
 700 0 l 1,13,-1
 600 0 l 1,14,-1
 600 100 l 1,15,-1
 500 100 l 1,16,-1
 500 200 l 1,17,-1
 400 200 l 1,18,-1
 400 300 l 1,19,-1
 300 300 l 1,20,-1
 300 400 l 1,21,-1
 200 400 l 1,22,-1
 200 500 l 1,23,-1
 0 500 l 1,0,-1
EndSplineSet
Validated: 1
EndChar

StartChar: uni0012
Encoding: 18 18 19
Width: 900
GlyphClass: 2
Flags: W
LayerCount: 2
Fore
SplineSet
200 200 m 1,0,-1
 200 300 l 1,1,-1
 100 300 l 1,2,-1
 100 400 l 1,3,-1
 300 400 l 1,4,-1
 300 700 l 1,5,-1
 100 700 l 1,6,-1
 100 800 l 1,7,-1
 200 800 l 1,8,-1
 200 900 l 1,9,-1
 300 900 l 1,10,-1
 300 1000 l 1,11,-1
 500 1000 l 1,12,-1
 500 900 l 1,13,-1
 600 900 l 1,14,-1
 600 800 l 1,15,-1
 700 800 l 1,16,-1
 700 700 l 1,17,-1
 500 700 l 1,18,-1
 500 400 l 1,19,-1
 700 400 l 1,20,-1
 700 300 l 1,21,-1
 600 300 l 1,22,-1
 600 200 l 1,23,-1
 500 200 l 1,24,-1
 500 100 l 1,25,-1
 300 100 l 1,26,-1
 300 200 l 1,27,-1
 200 200 l 1,0,-1
EndSplineSet
Validated: 1
EndChar

StartChar: uni0013
Encoding: 19 19 20
Width: 900
GlyphClass: 2
Flags: W
LayerCount: 2
Fore
SplineSet
100 200 m 1,0,-1
 300 200 l 1,1,-1
 300 0 l 1,2,-1
 100 0 l 1,3,-1
 100 200 l 1,0,-1
100 300 m 1,4,-1
 100 1000 l 1,5,-1
 300 1000 l 1,6,-1
 300 300 l 1,7,-1
 100 300 l 1,4,-1
500 200 m 1,8,-1
 700 200 l 1,9,-1
 700 0 l 1,10,-1
 500 0 l 1,11,-1
 500 200 l 1,8,-1
500 300 m 1,12,-1
 500 1000 l 1,13,-1
 700 1000 l 1,14,-1
 700 300 l 1,15,-1
 500 300 l 1,12,-1
EndSplineSet
Validated: 1
EndChar

StartChar: uni0014
Encoding: 20 20 21
Width: 900
GlyphClass: 2
Flags: W
LayerCount: 2
Fore
SplineSet
800 0 m 1,0,-1
 600 0 l 1,1,-1
 600 900 l 1,2,-1
 500 900 l 1,3,-1
 500 0 l 1,4,-1
 300 0 l 1,5,-1
 300 500 l 1,6,-1
 100 500 l 1,7,-1
 100 600 l 1,8,-1
 0 600 l 1,9,-1
 0 900 l 1,10,-1
 100 900 l 1,11,-1
 100 1000 l 1,12,-1
 800 1000 l 1,13,-1
 800 0 l 1,0,-1
200 600 m 1,14,-1
 300 600 l 1,15,-1
 300 900 l 1,16,-1
 200 900 l 1,17,-1
 200 600 l 1,14,-1
EndSplineSet
Validated: 1
EndChar

StartChar: uni0015
Encoding: 21 21 22
Width: 900
GlyphClass: 2
Flags: W
LayerCount: 2
Fore
SplineSet
0 0 m 1,0,-1
 0 100 l 1,1,-1
 200 100 l 1,2,-1
 200 0 l 1,3,-1
 500 0 l 1,4,-1
 500 100 l 1,5,-1
 400 100 l 1,6,-1
 400 200 l 1,7,-1
 200 200 l 1,8,-1
 200 300 l 1,9,-1
 100 300 l 1,10,-1
 100 400 l 1,11,-1
 0 400 l 1,12,-1
 0 600 l 1,13,-1
 100 600 l 1,14,-1
 100 700 l 1,15,-1
 200 700 l 1,16,-1
 200 800 l 1,17,-1
 100 800 l 1,18,-1
 100 900 l 1,19,-1
 0 900 l 1,20,-1
 0 1000 l 1,21,-1
 100 1000 l 1,22,-1
 100 1100 l 1,23,-1
 600 1100 l 1,24,-1
 600 1000 l 1,25,-1
 700 1000 l 1,26,-1
 700 900 l 1,27,-1
 500 900 l 1,28,-1
 500 1000 l 1,29,-1
 200 1000 l 1,30,-1
 200 900 l 1,31,-1
 300 900 l 1,32,-1
 300 800 l 1,33,-1
 500 800 l 1,34,-1
 500 700 l 1,35,-1
 600 700 l 1,36,-1
 600 600 l 1,37,-1
 700 600 l 1,38,-1
 700 400 l 1,39,-1
 600 400 l 1,40,-1
 600 300 l 1,41,-1
 500 300 l 1,42,-1
 500 200 l 1,43,-1
 600 200 l 1,44,-1
 600 100 l 1,45,-1
 700 100 l 1,46,-1
 700 0 l 1,47,-1
 600 0 l 1,48,-1
 600 -100 l 1,49,-1
 100 -100 l 1,50,-1
 100 0 l 1,51,-1
 0 0 l 1,0,-1
400 300 m 1,52,-1
 400 400 l 1,53,-1
 500 400 l 1,54,-1
 500 600 l 1,55,-1
 400 600 l 1,56,-1
 400 700 l 1,57,-1
 300 700 l 1,58,-1
 300 600 l 1,59,-1
 200 600 l 1,60,-1
 200 400 l 1,61,-1
 300 400 l 1,62,-1
 300 300 l 1,63,-1
 400 300 l 1,52,-1
EndSplineSet
Validated: 1
EndChar

StartChar: uni0016
Encoding: 22 22 23
Width: 900
GlyphClass: 2
Flags: W
LayerCount: 2
Fore
SplineSet
0 0 m 1,0,-1
 0 400 l 1,1,-1
 700 400 l 1,2,-1
 700 0 l 1,3,-1
 0 0 l 1,0,-1
EndSplineSet
Validated: 1
EndChar

StartChar: uni0017
Encoding: 23 23 24
Width: 900
GlyphClass: 2
Flags: W
LayerCount: 2
Fore
SplineSet
200 200 m 1,0,-1
 200 300 l 1,1,-1
 100 300 l 1,2,-1
 100 400 l 1,3,-1
 300 400 l 1,4,-1
 300 700 l 1,5,-1
 100 700 l 1,6,-1
 100 800 l 1,7,-1
 200 800 l 1,8,-1
 200 900 l 1,9,-1
 300 900 l 1,10,-1
 300 1000 l 1,11,-1
 500 1000 l 1,12,-1
 500 900 l 1,13,-1
 600 900 l 1,14,-1
 600 800 l 1,15,-1
 700 800 l 1,16,-1
 700 700 l 1,17,-1
 500 700 l 1,18,-1
 500 400 l 1,19,-1
 700 400 l 1,20,-1
 700 300 l 1,21,-1
 600 300 l 1,22,-1
 600 200 l 1,23,-1
 500 200 l 1,24,-1
 500 100 l 1,25,-1
 700 100 l 1,26,-1
 700 0 l 1,27,-1
 100 0 l 1,28,-1
 100 100 l 1,29,-1
 300 100 l 1,30,-1
 300 200 l 1,31,-1
 200 200 l 1,0,-1
EndSplineSet
Validated: 1
EndChar

StartChar: uni0018
Encoding: 24 24 25
Width: 900
GlyphClass: 2
Flags: W
LayerCount: 2
Fore
SplineSet
100 700 m 1,0,-1
 100 800 l 1,1,-1
 200 800 l 1,2,-1
 200 900 l 1,3,-1
 300 900 l 1,4,-1
 300 1000 l 1,5,-1
 500 1000 l 1,6,-1
 500 900 l 1,7,-1
 600 900 l 1,8,-1
 600 800 l 1,9,-1
 700 800 l 1,10,-1
 700 700 l 1,11,-1
 500 700 l 1,12,-1
 500 0 l 1,13,-1
 300 0 l 1,14,-1
 300 700 l 1,15,-1
 100 700 l 1,0,-1
EndSplineSet
Validated: 1
EndChar

StartChar: uni0019
Encoding: 25 25 26
Width: 900
GlyphClass: 2
Flags: W
LayerCount: 2
Fore
SplineSet
100 200 m 1,0,-1
 100 300 l 1,1,-1
 300 300 l 1,2,-1
 300 1000 l 1,3,-1
 500 1000 l 1,4,-1
 500 300 l 1,5,-1
 700 300 l 1,6,-1
 700 200 l 1,7,-1
 600 200 l 1,8,-1
 600 100 l 1,9,-1
 500 100 l 1,10,-1
 500 0 l 1,11,-1
 300 0 l 1,12,-1
 300 100 l 1,13,-1
 200 100 l 1,14,-1
 200 200 l 1,15,-1
 100 200 l 1,0,-1
EndSplineSet
Validated: 1
EndChar

StartChar: uni001A
Encoding: 26 26 27
Width: 900
GlyphClass: 2
Flags: W
LayerCount: 2
Fore
SplineSet
0 400 m 1,0,-1
 0 500 l 1,1,-1
 400 500 l 1,2,-1
 400 600 l 1,3,-1
 300 600 l 1,4,-1
 300 700 l 1,5,-1
 500 700 l 1,6,-1
 500 600 l 1,7,-1
 600 600 l 1,8,-1
 600 500 l 1,9,-1
 700 500 l 1,10,-1
 700 400 l 1,11,-1
 600 400 l 1,12,-1
 600 300 l 1,13,-1
 500 300 l 1,14,-1
 500 200 l 1,15,-1
 300 200 l 1,16,-1
 300 300 l 1,17,-1
 400 300 l 1,18,-1
 400 400 l 1,19,-1
 0 400 l 1,0,-1
EndSplineSet
Validated: 1
EndChar

StartChar: uni001B
Encoding: 27 27 28
Width: 900
GlyphClass: 2
Flags: W
LayerCount: 2
Fore
SplineSet
0 400 m 1,0,-1
 0 500 l 1,1,-1
 100 500 l 1,2,-1
 100 600 l 1,3,-1
 200 600 l 1,4,-1
 200 700 l 1,5,-1
 400 700 l 1,6,-1
 400 600 l 1,7,-1
 300 600 l 1,8,-1
 300 500 l 1,9,-1
 700 500 l 1,10,-1
 700 400 l 1,11,-1
 300 400 l 1,12,-1
 300 300 l 1,13,-1
 400 300 l 1,14,-1
 400 200 l 1,15,-1
 200 200 l 1,16,-1
 200 300 l 1,17,-1
 100 300 l 1,18,-1
 100 400 l 1,19,-1
 0 400 l 1,0,-1
EndSplineSet
Validated: 1
EndChar

StartChar: uni001C
Encoding: 28 28 29
Width: 900
GlyphClass: 2
Flags: W
LayerCount: 2
Fore
SplineSet
0 200 m 1,0,-1
 0 600 l 1,1,-1
 200 600 l 1,2,-1
 200 300 l 1,3,-1
 700 300 l 1,4,-1
 700 200 l 1,5,-1
 0 200 l 1,0,-1
EndSplineSet
Validated: 1
EndChar

StartChar: uni001D
Encoding: 29 29 30
Width: 900
GlyphClass: 2
Flags: W
LayerCount: 2
Fore
SplineSet
0 400 m 1,0,-1
 0 500 l 1,1,-1
 100 500 l 1,2,-1
 100 600 l 1,3,-1
 200 600 l 1,4,-1
 200 700 l 1,5,-1
 300 700 l 1,6,-1
 300 500 l 1,7,-1
 500 500 l 1,8,-1
 500 700 l 1,9,-1
 600 700 l 1,10,-1
 600 600 l 1,11,-1
 700 600 l 1,12,-1
 700 500 l 1,13,-1
 800 500 l 1,14,-1
 800 400 l 1,15,-1
 700 400 l 1,16,-1
 700 300 l 1,17,-1
 600 300 l 1,18,-1
 600 200 l 1,19,-1
 500 200 l 1,20,-1
 500 400 l 1,21,-1
 300 400 l 1,22,-1
 300 200 l 1,23,-1
 200 200 l 1,24,-1
 200 300 l 1,25,-1
 100 300 l 1,26,-1
 100 400 l 1,27,-1
 0 400 l 1,0,-1
EndSplineSet
Validated: 1
EndChar

StartChar: uni001E
Encoding: 30 30 31
Width: 900
GlyphClass: 2
Flags: W
LayerCount: 2
Fore
SplineSet
0 100 m 1,0,-1
 0 300 l 1,1,-1
 100 300 l 1,2,-1
 100 500 l 1,3,-1
 200 500 l 1,4,-1
 200 700 l 1,5,-1
 300 700 l 1,6,-1
 300 800 l 1,7,-1
 400 800 l 1,8,-1
 400 700 l 1,9,-1
 500 700 l 1,10,-1
 500 500 l 1,11,-1
 600 500 l 1,12,-1
 600 300 l 1,13,-1
 700 300 l 1,14,-1
 700 100 l 1,15,-1
 0 100 l 1,0,-1
EndSplineSet
Validated: 1
EndChar

StartChar: uni001F
Encoding: 31 31 32
Width: 900
GlyphClass: 2
Flags: W
LayerCount: 2
Fore
SplineSet
0 600 m 1,0,-1
 0 800 l 1,1,-1
 700 800 l 1,2,-1
 700 600 l 1,3,-1
 600 600 l 1,4,-1
 600 400 l 1,5,-1
 500 400 l 1,6,-1
 500 200 l 1,7,-1
 400 200 l 1,8,-1
 400 100 l 1,9,-1
 300 100 l 1,10,-1
 300 200 l 1,11,-1
 200 200 l 1,12,-1
 200 400 l 1,13,-1
 100 400 l 1,14,-1
 100 600 l 1,15,-1
 0 600 l 1,0,-1
EndSplineSet
Validated: 1
EndChar

StartChar: exclam
Encoding: 33 33 34
Width: 900
GlyphClass: 2
Flags: W
LayerCount: 2
Fore
SplineSet
200 600 m 1,0,-1
 200 900 l 1,1,-1
 300 900 l 1,2,-1
 300 1000 l 1,3,-1
 500 1000 l 1,4,-1
 500 900 l 1,5,-1
 600 900 l 1,6,-1
 600 600 l 1,7,-1
 500 600 l 1,8,-1
 500 300 l 1,9,-1
 300 300 l 1,10,-1
 300 600 l 1,11,-1
 200 600 l 1,0,-1
300 200 m 1,12,-1
 500 200 l 1,13,-1
 500 0 l 1,14,-1
 300 0 l 1,15,-1
 300 200 l 1,12,-1
EndSplineSet
Validated: 1
EndChar

StartChar: quotedbl
Encoding: 34 34 35
Width: 900
GlyphClass: 2
Flags: W
LayerCount: 2
Fore
SplineSet
100 1100 m 1,0,-1
 300 1100 l 1,1,-1
 300 700 l 1,2,-1
 200 700 l 1,3,-1
 200 800 l 1,4,-1
 100 800 l 1,5,-1
 100 1100 l 1,0,-1
500 1100 m 1,6,-1
 700 1100 l 1,7,-1
 700 800 l 1,8,-1
 600 800 l 1,9,-1
 600 700 l 1,10,-1
 500 700 l 1,11,-1
 500 1100 l 1,6,-1
EndSplineSet
Validated: 1
EndChar

StartChar: numbersign
Encoding: 35 35 36
Width: 900
GlyphClass: 2
Flags: W
LayerCount: 2
Fore
SplineSet
0 200 m 1,0,-1
 0 300 l 1,1,-1
 100 300 l 1,2,-1
 100 600 l 1,3,-1
 0 600 l 1,4,-1
 0 700 l 1,5,-1
 100 700 l 1,6,-1
 100 900 l 1,7,-1
 300 900 l 1,8,-1
 300 700 l 1,9,-1
 400 700 l 1,10,-1
 400 900 l 1,11,-1
 600 900 l 1,12,-1
 600 700 l 1,13,-1
 700 700 l 1,14,-1
 700 600 l 1,15,-1
 600 600 l 1,16,-1
 600 300 l 1,17,-1
 700 300 l 1,18,-1
 700 200 l 1,19,-1
 600 200 l 1,20,-1
 600 0 l 1,21,-1
 400 0 l 1,22,-1
 400 200 l 1,23,-1
 300 200 l 1,24,-1
 300 0 l 1,25,-1
 100 0 l 1,26,-1
 100 200 l 1,27,-1
 0 200 l 1,0,-1
400 300 m 1,28,-1
 400 600 l 1,29,-1
 300 600 l 1,30,-1
 300 300 l 1,31,-1
 400 300 l 1,28,-1
EndSplineSet
Validated: 1
EndChar

StartChar: dollar
Encoding: 36 36 37
Width: 900
GlyphClass: 2
Flags: W
LayerCount: 2
Fore
SplineSet
0 100 m 1,0,-1
 0 300 l 1,1,-1
 100 300 l 1,2,-1
 100 200 l 1,3,-1
 200 200 l 1,4,-1
 200 100 l 1,5,-1
 500 100 l 1,6,-1
 500 500 l 1,7,-1
 100 500 l 1,8,-1
 100 600 l 1,9,-1
 0 600 l 1,10,-1
 0 900 l 1,11,-1
 100 900 l 1,12,-1
 100 1000 l 1,13,-1
 300 1000 l 1,14,-1
 300 1200 l 1,15,-1
 500 1200 l 1,16,-1
 500 1000 l 1,17,-1
 600 1000 l 1,18,-1
 600 900 l 1,19,-1
 700 900 l 1,20,-1
 700 700 l 1,21,-1
 600 700 l 1,22,-1
 600 800 l 1,23,-1
 500 800 l 1,24,-1
 500 900 l 1,25,-1
 200 900 l 1,26,-1
 200 600 l 1,27,-1
 600 600 l 1,28,-1
 600 500 l 1,29,-1
 700 500 l 1,30,-1
 700 100 l 1,31,-1
 600 100 l 1,32,-1
 600 0 l 1,33,-1
 500 0 l 1,34,-1
 500 -200 l 1,35,-1
 300 -200 l 1,36,-1
 300 0 l 1,37,-1
 100 0 l 1,38,-1
 100 100 l 1,39,-1
 0 100 l 1,0,-1
EndSplineSet
Validated: 1
EndChar

StartChar: percent
Encoding: 37 37 38
Width: 900
GlyphClass: 2
Flags: W
LayerCount: 2
Fore
SplineSet
0 200 m 1,0,-1
 100 200 l 1,1,-1
 100 300 l 1,2,-1
 200 300 l 1,3,-1
 200 400 l 1,4,-1
 300 400 l 1,5,-1
 300 500 l 1,6,-1
 400 500 l 1,7,-1
 400 600 l 1,8,-1
 500 600 l 1,9,-1
 500 700 l 1,10,-1
 600 700 l 1,11,-1
 600 800 l 1,12,-1
 700 800 l 1,13,-1
 700 600 l 1,14,-1
 600 600 l 1,15,-1
 600 500 l 1,16,-1
 500 500 l 1,17,-1
 500 400 l 1,18,-1
 400 400 l 1,19,-1
 400 300 l 1,20,-1
 300 300 l 1,21,-1
 300 200 l 1,22,-1
 200 200 l 1,23,-1
 200 100 l 1,24,-1
 100 100 l 1,25,-1
 100 0 l 1,26,-1
 0 0 l 1,27,-1
 0 200 l 1,0,-1
0 600 m 1,28,-1
 0 800 l 1,29,-1
 200 800 l 1,30,-1
 200 600 l 1,31,-1
 0 600 l 1,28,-1
500 200 m 1,32,-1
 700 200 l 1,33,-1
 700 0 l 1,34,-1
 500 0 l 1,35,-1
 500 200 l 1,32,-1
EndSplineSet
Validated: 1
EndChar

StartChar: ampersand
Encoding: 38 38 39
Width: 900
GlyphClass: 2
Flags: W
LayerCount: 2
Fore
SplineSet
0 100 m 1,0,-1
 0 500 l 1,1,-1
 100 500 l 1,2,-1
 100 600 l 1,3,-1
 200 600 l 1,4,-1
 200 700 l 1,5,-1
 100 700 l 1,6,-1
 100 900 l 1,7,-1
 200 900 l 1,8,-1
 200 1000 l 1,9,-1
 500 1000 l 1,10,-1
 500 900 l 1,11,-1
 600 900 l 1,12,-1
 600 700 l 1,13,-1
 500 700 l 1,14,-1
 500 600 l 1,15,-1
 400 600 l 1,16,-1
 400 500 l 1,17,-1
 500 500 l 1,18,-1
 500 600 l 1,19,-1
 700 600 l 1,20,-1
 700 500 l 1,21,-1
 600 500 l 1,22,-1
 600 100 l 1,23,-1
 700 100 l 1,24,-1
 700 0 l 1,25,-1
 500 0 l 1,26,-1
 500 100 l 1,27,-1
 400 100 l 1,28,-1
 400 400 l 1,29,-1
 300 400 l 1,30,-1
 300 500 l 1,31,-1
 200 500 l 1,32,-1
 200 100 l 1,33,-1
 400 100 l 1,34,-1
 400 0 l 1,35,-1
 100 0 l 1,36,-1
 100 100 l 1,37,-1
 0 100 l 1,0,-1
400 700 m 1,38,-1
 400 900 l 1,39,-1
 300 900 l 1,40,-1
 300 700 l 1,41,-1
 400 700 l 1,38,-1
EndSplineSet
Validated: 5
EndChar

StartChar: quotesingle
Encoding: 39 39 40
Width: 900
GlyphClass: 2
Flags: W
LayerCount: 2
Fore
SplineSet
400 800 m 1,0,-1
 300 800 l 1,1,-1
 300 700 l 1,2,-1
 100 700 l 1,3,-1
 100 800 l 1,4,-1
 200 800 l 1,5,-1
 200 1100 l 1,6,-1
 400 1100 l 1,7,-1
 400 800 l 1,0,-1
EndSplineSet
Validated: 1
EndChar

StartChar: parenleft
Encoding: 40 40 41
Width: 900
GlyphClass: 2
Flags: W
LayerCount: 2
Fore
SplineSet
200 200 m 1,0,-1
 200 800 l 1,1,-1
 300 800 l 1,2,-1
 300 900 l 1,3,-1
 400 900 l 1,4,-1
 400 1000 l 1,5,-1
 600 1000 l 1,6,-1
 600 900 l 1,7,-1
 500 900 l 1,8,-1
 500 800 l 1,9,-1
 400 800 l 1,10,-1
 400 200 l 1,11,-1
 500 200 l 1,12,-1
 500 100 l 1,13,-1
 600 100 l 1,14,-1
 600 0 l 1,15,-1
 400 0 l 1,16,-1
 400 100 l 1,17,-1
 300 100 l 1,18,-1
 300 200 l 1,19,-1
 200 200 l 1,0,-1
EndSplineSet
Validated: 1
EndChar

StartChar: parenright
Encoding: 41 41 42
Width: 900
GlyphClass: 2
Flags: W
LayerCount: 2
Fore
SplineSet
200 0 m 1,0,-1
 200 100 l 1,1,-1
 300 100 l 1,2,-1
 300 200 l 1,3,-1
 400 200 l 1,4,-1
 400 800 l 1,5,-1
 300 800 l 1,6,-1
 300 900 l 1,7,-1
 200 900 l 1,8,-1
 200 1000 l 1,9,-1
 400 1000 l 1,10,-1
 400 900 l 1,11,-1
 500 900 l 1,12,-1
 500 800 l 1,13,-1
 600 800 l 1,14,-1
 600 200 l 1,15,-1
 500 200 l 1,16,-1
 500 100 l 1,17,-1
 400 100 l 1,18,-1
 400 0 l 1,19,-1
 200 0 l 1,0,-1
EndSplineSet
Validated: 1
EndChar

StartChar: asterisk
Encoding: 42 42 43
Width: 900
GlyphClass: 2
Flags: W
LayerCount: 2
Fore
SplineSet
0 400 m 1,0,-1
 0 500 l 1,1,-1
 200 500 l 1,2,-1
 200 600 l 1,3,-1
 100 600 l 1,4,-1
 100 700 l 1,5,-1
 300 700 l 1,6,-1
 300 600 l 1,7,-1
 500 600 l 1,8,-1
 500 700 l 1,9,-1
 700 700 l 1,10,-1
 700 600 l 1,11,-1
 600 600 l 1,12,-1
 600 500 l 1,13,-1
 800 500 l 1,14,-1
 800 400 l 1,15,-1
 600 400 l 1,16,-1
 600 300 l 1,17,-1
 700 300 l 1,18,-1
 700 200 l 1,19,-1
 500 200 l 1,20,-1
 500 300 l 1,21,-1
 300 300 l 1,22,-1
 300 200 l 1,23,-1
 100 200 l 1,24,-1
 100 300 l 1,25,-1
 200 300 l 1,26,-1
 200 400 l 1,27,-1
 0 400 l 1,0,-1
EndSplineSet
Validated: 1
EndChar

StartChar: plus
Encoding: 43 43 44
Width: 900
GlyphClass: 2
Flags: W
LayerCount: 2
Fore
SplineSet
500 200 m 1,0,-1
 300 200 l 1,1,-1
 300 400 l 1,2,-1
 100 400 l 1,3,-1
 100 500 l 1,4,-1
 300 500 l 1,5,-1
 300 700 l 1,6,-1
 500 700 l 1,7,-1
 500 500 l 1,8,-1
 700 500 l 1,9,-1
 700 400 l 1,10,-1
 500 400 l 1,11,-1
 500 200 l 1,0,-1
EndSplineSet
Validated: 1
EndChar

StartChar: comma
Encoding: 44 44 45
Width: 900
GlyphClass: 2
Flags: W
LayerCount: 2
Fore
SplineSet
400 0 m 1,0,-1
 400 -100 l 1,1,-1
 200 -100 l 1,2,-1
 200 0 l 1,3,-1
 300 0 l 1,4,-1
 300 300 l 1,5,-1
 500 300 l 1,6,-1
 500 0 l 1,7,-1
 400 0 l 1,0,-1
EndSplineSet
Validated: 1
EndChar

StartChar: hyphen
Encoding: 45 45 46
Width: 900
GlyphClass: 2
Flags: W
LayerCount: 2
Fore
SplineSet
0 400 m 1,0,-1
 0 500 l 1,1,-1
 700 500 l 1,2,-1
 700 400 l 1,3,-1
 0 400 l 1,0,-1
EndSplineSet
Validated: 1
EndChar

StartChar: period
Encoding: 46 46 47
Width: 900
GlyphClass: 2
Flags: W
LayerCount: 2
Fore
SplineSet
500 200 m 1,0,-1
 500 0 l 1,1,-1
 300 0 l 1,2,-1
 300 200 l 1,3,-1
 500 200 l 1,0,-1
EndSplineSet
Validated: 1
EndChar

StartChar: slash
Encoding: 47 47 48
Width: 900
GlyphClass: 2
Flags: W
LayerCount: 2
Fore
SplineSet
0 200 m 1,0,-1
 100 200 l 1,1,-1
 100 300 l 1,2,-1
 200 300 l 1,3,-1
 200 400 l 1,4,-1
 300 400 l 1,5,-1
 300 500 l 1,6,-1
 400 500 l 1,7,-1
 400 600 l 1,8,-1
 500 600 l 1,9,-1
 500 700 l 1,10,-1
 600 700 l 1,11,-1
 600 800 l 1,12,-1
 700 800 l 1,13,-1
 700 600 l 1,14,-1
 600 600 l 1,15,-1
 600 500 l 1,16,-1
 500 500 l 1,17,-1
 500 400 l 1,18,-1
 400 400 l 1,19,-1
 400 300 l 1,20,-1
 300 300 l 1,21,-1
 300 200 l 1,22,-1
 200 200 l 1,23,-1
 200 100 l 1,24,-1
 100 100 l 1,25,-1
 100 0 l 1,26,-1
 0 0 l 1,27,-1
 0 200 l 1,0,-1
EndSplineSet
Validated: 1
EndChar

StartChar: zero
Encoding: 48 48 49
Width: 900
GlyphClass: 2
Flags: W
LayerCount: 2
Fore
SplineSet
0 200 m 1,0,-1
 0 800 l 1,1,-1
 100 800 l 1,2,-1
 100 900 l 1,3,-1
 200 900 l 1,4,-1
 200 1000 l 1,5,-1
 500 1000 l 1,6,-1
 500 900 l 1,7,-1
 600 900 l 1,8,-1
 600 800 l 1,9,-1
 700 800 l 1,10,-1
 700 200 l 1,11,-1
 600 200 l 1,12,-1
 600 100 l 1,13,-1
 500 100 l 1,14,-1
 500 0 l 1,15,-1
 200 0 l 1,16,-1
 200 100 l 1,17,-1
 100 100 l 1,18,-1
 100 200 l 1,19,-1
 0 200 l 1,0,-1
200 200 m 1,20,-1
 300 200 l 1,21,-1
 300 100 l 1,22,-1
 400 100 l 1,23,-1
 400 200 l 1,24,-1
 500 200 l 1,25,-1
 500 800 l 1,26,-1
 400 800 l 1,27,-1
 400 900 l 1,28,-1
 300 900 l 1,29,-1
 300 800 l 1,30,-1
 200 800 l 1,31,-1
 200 200 l 1,20,-1
300 400 m 1,32,-1
 300 600 l 1,33,-1
 400 600 l 1,34,-1
 400 400 l 1,35,-1
 300 400 l 1,32,-1
EndSplineSet
Validated: 1
EndChar

StartChar: one
Encoding: 49 49 50
Width: 900
GlyphClass: 2
Flags: W
LayerCount: 2
Fore
SplineSet
300 0 m 1,0,-1
 299 600 l 1,1,-1
 297 698 l 0,2,-1
 199 698 l 0,3,-1
 197 600 l 0,4,-1
 0 600 l 0,5,-1
 0 702 l 0,6,-1
 100 700 l 1,7,-1
 100 800 l 1,8,-1
 200 800 l 1,9,-1
 200 900 l 1,10,-1
 300 900 l 1,11,-1
 300 1000 l 1,12,-1
 500 1000 l 1,13,-1
 500 0 l 1,14,-1
 300 0 l 1,0,-1
EndSplineSet
Validated: 1
EndChar

StartChar: two
Encoding: 50 50 51
Width: 900
GlyphClass: 2
Flags: W
LayerCount: 2
Fore
SplineSet
0 0 m 1,0,-1
 0 300 l 1,1,-1
 100 300 l 1,2,-1
 100 400 l 1,3,-1
 200 400 l 1,4,-1
 200 500 l 1,5,-1
 300 500 l 1,6,-1
 300 600 l 1,7,-1
 400 600 l 1,8,-1
 400 700 l 1,9,-1
 500 700 l 1,10,-1
 500 900 l 1,11,-1
 200 900 l 1,12,-1
 200 702 l 1,13,-1
 0 702 l 1,14,-1
 0 900 l 1,15,-1
 100 900 l 1,16,-1
 100 1000 l 1,17,-1
 600 1000 l 1,18,-1
 600 900 l 1,19,-1
 700 900 l 1,20,-1
 700 700 l 1,21,-1
 600 700 l 1,22,-1
 600 600 l 1,23,-1
 500 600 l 1,24,-1
 500 500 l 1,25,-1
 400 500 l 1,26,-1
 400 400 l 1,27,-1
 300 400 l 1,28,-1
 300 300 l 1,29,-1
 200 300 l 1,30,-1
 200 100 l 1,31,-1
 500 100 l 1,32,-1
 500 300 l 1,33,-1
 700 300 l 1,34,-1
 700 0 l 1,35,-1
 0 0 l 1,0,-1
EndSplineSet
Validated: 1
EndChar

StartChar: three
Encoding: 51 51 52
Width: 900
GlyphClass: 2
Flags: W
LayerCount: 2
Fore
SplineSet
500 100 m 1,0,-1
 499 498 l 1,1,-1
 195 496 l 1,2,-1
 195 596 l 1,3,-1
 499 597 l 1,4,-1
 501 902 l 1,5,-1
 201 900 l 0,6,-1
 199 700 l 1,7,-1
 -4 698 l 0,8,-1
 -2 900 l 4,9,-1
 95 898 l 0,10,-1
 93 996 l 1,11,-1
 600 1000 l 1,12,-1
 601 902 l 1,13,-1
 700 900 l 1,14,-1
 702 604 l 1,15,-1
 598 602 l 1,16,-1
 599 496 l 0,17,-1
 700 500 l 1,18,-1
 700 100 l 1,19,-1
 600 100 l 1,20,-1
 600 0 l 1,21,-1
 101 0 l 1,22,-1
 95 100 l 0,23,-1
 0 100 l 1,24,-1
 0 298 l 0,25,-1
 201 300 l 0,26,-1
 197 100 l 0,27,-1
 500 100 l 1,0,-1
EndSplineSet
Validated: 1
EndChar

StartChar: four
Encoding: 52 52 53
Width: 900
GlyphClass: 2
Flags: W
LayerCount: 2
Fore
SplineSet
0 400 m 1,0,-1
 0 600 l 1,1,-1
 100 600 l 1,2,-1
 100 700 l 1,3,-1
 197 702 l 1,4,-1
 200 800 l 1,5,-1
 295 799 l 1,6,-1
 297 900 l 25,7,-1
 399 894 l 25,8,-1
 401 1004 l 1,9,-1
 700 1000 l 1,10,-1
 699 0 l 1,11,-1
 500 0 l 1,12,-1
 500 400 l 1,13,-1
 0 400 l 1,0,-1
200 500 m 1,14,-1
 500 500 l 1,15,-1
 501 804 l 1,16,-1
 403 806 l 1,17,-1
 401 698 l 25,18,-1
 299 700 l 25,19,-1
 300 600 l 1,20,-1
 200 600 l 1,21,-1
 200 500 l 1,14,-1
EndSplineSet
Validated: 1
EndChar

StartChar: five
Encoding: 53 53 54
Width: 900
GlyphClass: 2
Flags: W
LayerCount: 2
Fore
SplineSet
0 100 m 1,0,-1
 1 300 l 1,1,-1
 201 300 l 1,2,-1
 200 100 l 1,3,-1
 500 100 l 1,4,-1
 500 500 l 1,5,-1
 0 500 l 1,6,-1
 0 1000 l 1,7,-1
 700 1000 l 1,8,-1
 700 900 l 1,9,-1
 200 900 l 1,10,-1
 200 600 l 1,11,-1
 600 600 l 1,12,-1
 600 500 l 1,13,-1
 700 500 l 1,14,-1
 700 100 l 1,15,-1
 600 100 l 1,16,-1
 600 0 l 1,17,-1
 100 0 l 1,18,-1
 100 100 l 1,19,-1
 0 100 l 1,0,-1
EndSplineSet
Validated: 1
EndChar

StartChar: six
Encoding: 54 54 55
Width: 900
GlyphClass: 2
Flags: W
LayerCount: 2
Fore
SplineSet
0 100 m 1,0,-1
 0 897 l 1,1,-1
 100 900 l 1,2,-1
 100 1000 l 1,3,-1
 601 998 l 1,4,-1
 603 900 l 0,5,-1
 697 901 l 0,6,-1
 701 702 l 1,7,-1
 501 702 l 0,8,-1
 501 898.69140625 l 1,9,-1
 201 898 l 1,10,-1
 200 600 l 1,11,-1
 600 600 l 1,12,-1
 600 500 l 1,13,-1
 700 500 l 1,14,-1
 700 100 l 1,15,-1
 600 100 l 1,16,-1
 600 0 l 1,17,-1
 100 0 l 1,18,-1
 100 100 l 1,19,-1
 0 100 l 1,0,-1
200 100 m 1,20,-1
 500 100 l 1,21,-1
 500 500 l 1,22,-1
 200 500 l 1,23,-1
 200 100 l 1,20,-1
EndSplineSet
Validated: 1
EndChar

StartChar: seven
Encoding: 55 55 56
Width: 900
GlyphClass: 2
Flags: W
LayerCount: 2
Fore
SplineSet
0 1000 m 1,0,-1
 700 1000 l 1,1,-1
 700 600 l 1,2,-1
 600 600 l 1,3,-1
 600 500 l 1,4,-1
 500 500 l 1,5,-1
 500 400 l 1,6,-1
 400 400 l 1,7,-1
 400 0 l 1,8,-1
 200 0 l 1,9,-1
 200 400 l 1,10,-1
 300 400 l 1,11,-1
 300 500 l 1,12,-1
 400 500 l 1,13,-1
 400 600 l 1,14,-1
 500 600 l 1,15,-1
 500 900 l 1,16,-1
 202 902 l 25,17,-1
 201 700 l 25,18,-1
 0 696 l 1,19,20
 0 1000 l 1,0,-1
EndSplineSet
Validated: 1
EndChar

StartChar: eight
Encoding: 56 56 57
Width: 900
GlyphClass: 2
Flags: W
LayerCount: 2
Fore
SplineSet
0 100 m 1,0,-1
 0 500 l 1,1,-1
 100 500 l 1,2,-1
 100 600 l 1,3,-1
 0 600 l 1,4,-1
 0 900 l 1,5,-1
 100 900 l 1,6,-1
 100 1000 l 1,7,-1
 600 1000 l 1,8,-1
 600 900 l 1,9,-1
 700 900 l 1,10,-1
 700 600 l 1,11,-1
 600 600 l 1,12,-1
 600 500 l 1,13,-1
 700 500 l 1,14,-1
 700 100 l 1,15,-1
 600 100 l 1,16,-1
 600 0 l 1,17,-1
 100 0 l 1,18,-1
 100 100 l 1,19,-1
 0 100 l 1,0,-1
200 100 m 1,20,-1
 500 100 l 1,21,-1
 500 500 l 1,22,-1
 200 500 l 1,23,-1
 200 100 l 1,20,-1
200 600 m 1,24,-1
 500 600 l 1,25,-1
 500 900 l 1,26,-1
 200 900 l 1,27,-1
 200 600 l 1,24,-1
EndSplineSet
Validated: 1
EndChar

StartChar: nine
Encoding: 57 57 58
Width: 899
GlyphClass: 2
Flags: W
LayerCount: 2
Fore
SplineSet
-1 600 m 1,0,-1
 -1 900 l 1,1,-1
 99 900 l 1,2,-1
 99 1000 l 1,3,-1
 599 1000 l 1,4,-1
 599 900 l 1,5,-1
 699 900 l 1,6,-1
 700 101 l 1,7,-1
 601 100 l 1,8,-1
 600 0 l 1,9,10
 98 0 l 1,11,-1
 97 100 l 25,12,-1
 -1 100 l 1,13,-1
 -3 302 l 1,14,-1
 198 302 l 25,15,-1
 198 101 l 1,16,17
 500 102 l 1,18,-1
 499 500 l 1,19,-1
 99 500 l 1,20,-1
 99 600 l 1,21,-1
 -1 600 l 1,0,-1
199 600 m 1,22,-1
 499 600 l 1,23,-1
 499 900 l 1,24,-1
 199 900 l 1,25,-1
 199 600 l 1,22,-1
EndSplineSet
Validated: 1
EndChar

StartChar: colon
Encoding: 58 58 59
Width: 900
GlyphClass: 2
Flags: W
LayerCount: 2
Fore
SplineSet
500 100 m 1,0,-1
 300 100 l 1,1,-1
 300 300 l 1,2,-1
 500 300 l 1,3,-1
 500 100 l 1,0,-1
500 600 m 1,4,-1
 300 600 l 1,5,-1
 300 800 l 1,6,-1
 500 800 l 1,7,-1
 500 600 l 1,4,-1
EndSplineSet
Validated: 1
EndChar

StartChar: semicolon
Encoding: 59 59 60
Width: 900
GlyphClass: 2
Flags: W
LayerCount: 2
Fore
SplineSet
400 100 m 1,0,-1
 400 0 l 1,1,-1
 200 0 l 1,2,-1
 200 100 l 1,3,-1
 300 100 l 1,4,-1
 300 300 l 1,5,-1
 500 300 l 1,6,-1
 500 100 l 1,7,-1
 400 100 l 1,0,-1
500 600 m 1,8,-1
 300 600 l 1,9,-1
 300 800 l 1,10,-1
 500 800 l 1,11,-1
 500 600 l 1,8,-1
EndSplineSet
Validated: 1
EndChar

StartChar: less
Encoding: 60 60 61
Width: 900
GlyphClass: 2
Flags: W
LayerCount: 2
Fore
SplineSet
200 500 m 1,0,-1
 200 600 l 1,1,-1
 300 600 l 1,2,-1
 300 700 l 1,3,-1
 400 700 l 1,4,-1
 400 800 l 1,5,-1
 500 800 l 1,6,-1
 500 900 l 1,7,-1
 700 900 l 1,8,-1
 700 800 l 1,9,-1
 600 800 l 1,10,-1
 600 700 l 1,11,-1
 500 700 l 1,12,-1
 500 600 l 1,13,-1
 400 600 l 1,14,-1
 400 500 l 1,15,-1
 300 500 l 1,16,-1
 300 400 l 1,17,-1
 400 400 l 1,18,-1
 400 300 l 1,19,-1
 500 300 l 1,20,-1
 500 200 l 1,21,-1
 600 200 l 1,22,-1
 600 100 l 1,23,-1
 700 100 l 1,24,-1
 700 0 l 1,25,-1
 500 0 l 1,26,-1
 500 100 l 1,27,-1
 400 100 l 1,28,-1
 400 200 l 1,29,-1
 300 200 l 1,30,-1
 300 300 l 1,31,-1
 200 300 l 1,32,-1
 200 400 l 1,33,-1
 100 400 l 1,34,-1
 100 500 l 1,35,-1
 200 500 l 1,0,-1
EndSplineSet
Validated: 1
EndChar

StartChar: equal
Encoding: 61 61 62
Width: 900
GlyphClass: 2
Flags: W
LayerCount: 2
Fore
SplineSet
100 300 m 1,0,-1
 100 400 l 1,1,-1
 700 400 l 1,2,-1
 700 300 l 1,3,-1
 100 300 l 1,0,-1
100 600 m 1,4,-1
 100 700 l 1,5,-1
 700 700 l 1,6,-1
 700 600 l 1,7,-1
 100 600 l 1,4,-1
EndSplineSet
Validated: 1
EndChar

StartChar: greater
Encoding: 62 62 63
Width: 900
GlyphClass: 2
Flags: W
LayerCount: 2
Fore
SplineSet
200 100 m 1,0,-1
 200 200 l 1,1,-1
 300 200 l 1,2,-1
 300 300 l 1,3,-1
 400 300 l 1,4,-1
 400 400 l 1,5,-1
 500 400 l 1,6,-1
 500 500 l 1,7,-1
 400 500 l 1,8,-1
 400 600 l 1,9,-1
 300 600 l 1,10,-1
 300 700 l 1,11,-1
 200 700 l 1,12,-1
 200 800 l 1,13,-1
 100 800 l 1,14,-1
 100 900 l 1,15,-1
 300 900 l 1,16,-1
 300 800 l 1,17,-1
 400 800 l 1,18,-1
 400 700 l 1,19,-1
 500 700 l 1,20,-1
 500 600 l 1,21,-1
 600 600 l 1,22,-1
 600 500 l 1,23,-1
 700 500 l 1,24,-1
 700 400 l 1,25,-1
 600 400 l 1,26,-1
 600 300 l 1,27,-1
 500 300 l 1,28,-1
 500 200 l 1,29,-1
 400 200 l 1,30,-1
 400 100 l 1,31,-1
 300 100 l 1,32,-1
 300 0 l 1,33,-1
 100 0 l 1,34,-1
 100 100 l 1,35,-1
 200 100 l 1,0,-1
EndSplineSet
Validated: 1
EndChar

StartChar: question
Encoding: 63 63 64
Width: 900
GlyphClass: 2
Flags: W
LayerCount: 2
Fore
SplineSet
0 700 m 1,0,-1
 0 900 l 1,1,-1
 100 900 l 1,2,-1
 100 1000 l 1,3,-1
 600 1000 l 1,4,-1
 600 900 l 1,5,-1
 700 900 l 1,6,-1
 700 700 l 1,7,-1
 600 700 l 1,8,-1
 600 600 l 1,9,-1
 500 600 l 1,10,-1
 500 300 l 1,11,-1
 300 300 l 1,12,-1
 300 600 l 1,13,-1
 400 600 l 1,14,-1
 400 700 l 1,15,-1
 500 700 l 1,16,-1
 500 900 l 1,17,-1
 200 900 l 1,18,-1
 200 700 l 1,19,-1
 0 700 l 1,0,-1
300 200 m 1,20,-1
 500 200 l 1,21,-1
 500 0 l 1,22,-1
 300 0 l 1,23,-1
 300 200 l 1,20,-1
EndSplineSet
Validated: 1
EndChar

StartChar: at
Encoding: 64 64 65
Width: 900
GlyphClass: 2
Flags: W
LayerCount: 2
Fore
SplineSet
0 100 m 1,0,-1
 0 800 l 1,1,-1
 100 800 l 1,2,-1
 100 900 l 1,3,-1
 600 900 l 1,4,-1
 600 800 l 1,5,-1
 700 800 l 1,6,-1
 700 300 l 1,7,-1
 600 300 l 1,8,-1
 600 200 l 1,9,-1
 300 200 l 1,10,-1
 300 600 l 1,11,-1
 500 600 l 1,12,-1
 500 800 l 1,13,-1
 200 800 l 1,14,-1
 200 100 l 1,15,-1
 600 100 l 1,16,-1
 600 0 l 1,17,-1
 100 0 l 1,18,-1
 100 100 l 1,19,-1
 0 100 l 1,0,-1
EndSplineSet
Validated: 1
EndChar

StartChar: A
Encoding: 65 65 66
Width: 900
GlyphClass: 2
Flags: W
LayerCount: 2
Fore
SplineSet
0 0 m 1,0,-1
 0 700 l 1,1,-1
 100 700 l 1,2,-1
 100 800 l 1,3,-1
 200 800 l 1,4,-1
 200 900 l 1,5,-1
 300 900 l 1,6,-1
 300 1000 l 1,7,-1
 400 1000 l 1,8,-1
 400 900 l 1,9,-1
 500 900 l 1,10,-1
 500 800 l 1,11,-1
 600 800 l 1,12,-1
 600 700 l 1,13,-1
 700 700 l 1,14,-1
 700 0 l 1,15,-1
 500 0 l 1,16,-1
 500 300 l 5,17,-1
 200 300 l 5,18,-1
 200 0 l 1,19,-1
 0 0 l 1,0,-1
200 400 m 5,20,-1
 500 400 l 5,21,-1
 500 700 l 1,22,-1
 400 700 l 1,23,-1
 400 800 l 1,24,-1
 300 800 l 1,25,-1
 300 700 l 1,26,-1
 200 700 l 1,27,-1
 200 400 l 5,20,-1
EndSplineSet
Validated: 1
EndChar

StartChar: B
Encoding: 66 66 67
Width: 900
GlyphClass: 2
Flags: W
LayerCount: 2
Fore
SplineSet
2 0 m 1,0,-1
 0 1002 l 1,1,-1
 600 1000 l 1,2,-1
 600 900 l 1,3,-1
 700 900 l 1,4,-1
 700 600 l 1,5,-1
 600 600 l 1,6,-1
 600 500 l 1,7,-1
 700 500 l 1,8,-1
 700 100 l 1,9,-1
 600 100 l 1,10,-1
 600 0 l 1,11,-1
 2 0 l 1,0,-1
200 100 m 1,12,-1
 500 100 l 1,13,-1
 500 500 l 1,14,-1
 200 500 l 1,15,-1
 200 100 l 1,12,-1
200 600 m 1,16,-1
 500 600 l 1,17,-1
 500 900 l 1,18,-1
 200 900 l 1,19,-1
 200 600 l 1,16,-1
EndSplineSet
Validated: 1
EndChar

StartChar: C
Encoding: 67 67 68
Width: 900
GlyphClass: 2
Flags: W
LayerCount: 2
Fore
SplineSet
0 200 m 1,0,-1
 0 800 l 1,1,-1
 100 800 l 1,2,-1
 100 900 l 1,3,-1
 200 900 l 1,4,-1
 200 1000 l 1,5,-1
 702 1000 l 5,6,-1
 702 900 l 5,7,-1
 300 900 l 1,8,-1
 300 800 l 1,9,-1
 200 800 l 1,10,-1
 200 200 l 1,11,-1
 300 200 l 1,12,-1
 300 100 l 1,13,-1
 702 100 l 5,14,-1
 702 0 l 5,15,-1
 200 0 l 1,16,-1
 200 100 l 1,17,-1
 100 100 l 1,18,-1
 100 200 l 1,19,-1
 0 200 l 1,0,-1
EndSplineSet
Validated: 1
EndChar

StartChar: D
Encoding: 68 68 69
Width: 900
GlyphClass: 2
Flags: W
LayerCount: 2
Fore
SplineSet
-2 0 m 1,0,-1
 0 1004 l 1,1,-1
 500 1000 l 1,2,-1
 500 900 l 1,3,-1
 600 900 l 1,4,-1
 600 800 l 1,5,-1
 700 800 l 1,6,-1
 700 200 l 1,7,-1
 600 200 l 1,8,-1
 600 100 l 1,9,-1
 500 100 l 1,10,-1
 500 0 l 1,11,-1
 -2 0 l 1,0,-1
200 100 m 1,12,-1
 400 100 l 1,13,-1
 400 200 l 1,14,-1
 500 200 l 1,15,-1
 500 800 l 1,16,-1
 400 800 l 1,17,-1
 400 900 l 1,18,-1
 200 900 l 1,19,-1
 200 100 l 1,12,-1
EndSplineSet
Validated: 1
EndChar

StartChar: E
Encoding: 69 69 70
Width: 900
GlyphClass: 2
Flags: W
LayerCount: 2
Fore
SplineSet
1 5 m 1,0,-1
 1 1005 l 1,1,-1
 700 1000 l 1,2,-1
 700 900 l 1,3,-1
 201 905 l 1,4,-1
 201 605 l 1,5,-1
 600 600 l 1,6,-1
 600 500 l 1,7,-1
 201 505 l 1,8,-1
 201 105 l 1,9,-1
 700 100 l 1,10,-1
 700 0 l 1,11,-1
 1 5 l 1,0,-1
EndSplineSet
Validated: 1
EndChar

StartChar: F
Encoding: 70 70 71
Width: 900
GlyphClass: 2
Flags: W
LayerCount: 2
Fore
SplineSet
0 0 m 5,0,-1
 0 1000 l 5,1,-1
 700 1000 l 1,2,-1
 698 900 l 1,3,-1
 200 900 l 5,4,-1
 200 600 l 5,5,-1
 400 600 l 1,6,-1
 400 600 l 1,7,-1
 600 600 l 1,8,-1
 602 500 l 1,9,-1
 402 500 l 1,10,-1
 400 500 l 1,11,-1
 200 500 l 5,12,-1
 202 0 l 5,13,-1
 0 0 l 5,0,-1
EndSplineSet
Validated: 1
EndChar

StartChar: G
Encoding: 71 71 72
Width: 900
GlyphClass: 2
Flags: W
LayerCount: 2
Fore
SplineSet
0 200 m 1,0,-1
 0 800 l 1,1,-1
 100 800 l 1,2,-1
 100 900 l 1,3,-1
 200 900 l 1,4,-1
 200 1000 l 1,5,-1
 700 1000 l 1,6,-1
 700 900 l 1,7,-1
 300 900 l 1,8,-1
 300 800 l 1,9,-1
 200 800 l 1,10,-1
 200 200 l 1,11,-1
 300 200 l 1,12,-1
 300 100 l 1,13,-1
 500 98 l 1,14,-1
 500 -2 l 1,15,-1
 200 0 l 1,16,-1
 200 100 l 1,17,-1
 100 100 l 1,18,-1
 100 200 l 1,19,-1
 0 200 l 1,0,-1
500 0 m 1,20,-1
 500 100 l 1,21,-1
 500 398 l 1,22,-1
 700 398 l 1,23,-1
 700 0 l 1,24,-1
 600 0 l 1,25,-1
 500 0 l 1,20,-1
EndSplineSet
Validated: 5
EndChar

StartChar: H
Encoding: 72 72 73
Width: 900
GlyphClass: 2
Flags: W
LayerCount: 2
Fore
SplineSet
0 0 m 1,0,-1
 0 1000 l 1,1,-1
 200 1000 l 1,2,-1
 200 600 l 1,3,-1
 500 600 l 1,4,-1
 500 1000 l 1,5,-1
 700 1000 l 1,6,-1
 700 0 l 1,7,-1
 500 0 l 1,8,-1
 500 500 l 1,9,-1
 200 500 l 1,10,-1
 200 0 l 1,11,-1
 0 0 l 1,0,-1
EndSplineSet
Validated: 1
EndChar

StartChar: I
Encoding: 73 73 74
Width: 900
GlyphClass: 2
Flags: W
LayerCount: 2
Fore
SplineSet
500 0 m 5,0,-1
 300 0 l 1,1,-1
 298 1002 l 1,2,-1
 502 1000 l 1,3,-1
 500 0 l 5,0,-1
EndSplineSet
Validated: 1
EndChar

StartChar: J
Encoding: 74 74 75
Width: 900
GlyphClass: 2
Flags: W
LayerCount: 2
Fore
SplineSet
400 100 m 1,0,-1
 400 996 l 1,1,-1
 602 998 l 1,2,-1
 600 100 l 1,3,-1
 500 100 l 1,4,-1
 500 0 l 1,5,-1
 -2 4 l 1,6,-1
 -2 104 l 1,7,-1
 400 100 l 1,0,-1
EndSplineSet
Validated: 1
EndChar

StartChar: K
Encoding: 75 75 76
Width: 900
GlyphClass: 2
Flags: W
LayerCount: 2
Fore
SplineSet
-2 0 m 1,0,-1
 -2 1000 l 1,1,-1
 200 1000 l 1,2,-1
 200 600 l 1,3,-1
 400 600 l 1,4,-1
 400 800 l 1,5,-1
 500 798 l 1,6,-1
 500 1000 l 1,7,-1
 700 1000 l 1,8,-1
 700 798 l 1,9,-1
 600 798 l 1,10,-1
 600 600 l 1,11,-1
 500 600 l 1,12,-1
 500 400 l 1,13,-1
 600 400 l 1,14,-1
 600 198 l 1,15,-1
 700 198 l 1,16,-1
 700 0 l 1,17,-1
 500 0 l 1,18,-1
 500 198 l 1,19,-1
 400 198 l 1,20,-1
 400 400 l 1,21,-1
 200 400 l 1,22,-1
 200 0 l 1,23,-1
 -2 0 l 1,0,-1
EndSplineSet
Validated: 1
EndChar

StartChar: L
Encoding: 76 76 77
Width: 900
GlyphClass: 2
Flags: W
LayerCount: 2
Fore
SplineSet
102 0 m 1,0,-1
 100 1002 l 1,1,-1
 302 1000 l 1,2,-1
 300 100 l 1,3,-1
 704 98 l 1,4,-1
 700 0 l 1,5,-1
 102 0 l 1,0,-1
EndSplineSet
Validated: 1
EndChar

StartChar: M
Encoding: 77 77 78
Width: 900
GlyphClass: 2
Flags: W
LayerCount: 2
Fore
SplineSet
0 0 m 1,0,-1
 0 1000 l 1,1,-1
 200 1000 l 1,2,-1
 200 900 l 1,3,-1
 300 900 l 1,4,-1
 300 800 l 1,5,-1
 398 800 l 5,6,-1
 398 900 l 5,7,-1
 498 900 l 5,8,-1
 498 1000 l 5,9,-1
 698 1000 l 5,10,-1
 698 0 l 5,11,-1
 498 0 l 5,12,-1
 498 600 l 5,13,-1
 398 600 l 5,14,-1
 398 500 l 5,15,-1
 300 500 l 1,16,-1
 300 600 l 1,17,-1
 200 600 l 1,18,-1
 200 0 l 1,19,-1
 0 0 l 1,0,-1
EndSplineSet
Validated: 1
EndChar

StartChar: N
Encoding: 78 78 79
Width: 900
GlyphClass: 2
Flags: W
LayerCount: 2
Fore
SplineSet
0 0 m 1,0,-1
 0 1000 l 1,1,-1
 200 1000 l 1,2,-1
 200 900 l 1,3,-1
 300 900 l 1,4,-1
 300 698 l 1,5,-1
 400 698 l 1,6,-1
 400 502 l 1,7,-1
 500 502 l 1,8,-1
 500 1000 l 1,9,-1
 700 1000 l 1,10,-1
 700 0 l 1,11,-1
 500 0 l 1,12,-1
 500 202 l 1,13,-1
 400 202 l 1,14,-1
 399 398 l 25,15,-1
 300 398 l 1,16,-1
 298 599 l 25,17,-1
 200 600 l 1,18,-1
 200 0 l 1,19,-1
 0 0 l 1,0,-1
EndSplineSet
Validated: 1
EndChar

StartChar: O
Encoding: 79 79 80
Width: 900
GlyphClass: 2
Flags: W
LayerCount: 2
Fore
SplineSet
0 100 m 1,0,-1
 0 900 l 1,1,-1
 100 900 l 1,2,-1
 100 1000 l 1,3,-1
 600 1000 l 1,4,-1
 600 900 l 1,5,-1
 700 900 l 1,6,-1
 700 100 l 1,7,-1
 600 100 l 1,8,-1
 600 0 l 1,9,-1
 100 0 l 1,10,-1
 100 100 l 1,11,-1
 0 100 l 1,0,-1
200 100 m 1,12,-1
 500 100 l 1,13,-1
 500 900 l 1,14,-1
 200 900 l 1,15,-1
 200 100 l 1,12,-1
EndSplineSet
Validated: 1
EndChar

StartChar: P
Encoding: 80 80 81
Width: 900
GlyphClass: 2
Flags: W
LayerCount: 2
Fore
SplineSet
0 0 m 5,0,-1
 2 1000 l 5,1,-1
 600 1000 l 1,2,-1
 600 900 l 1,3,-1
 700 900 l 1,4,-1
 700 600 l 1,5,-1
 600 600 l 1,6,-1
 600 500 l 1,7,-1
 202 500 l 5,8,-1
 204 0 l 5,9,-1
 0 0 l 5,0,-1
202 600 m 5,10,-1
 500 600 l 1,11,-1
 500 900 l 1,12,-1
 202 900 l 5,13,-1
 202 600 l 5,10,-1
EndSplineSet
Validated: 1
EndChar

StartChar: Q
Encoding: 81 81 82
Width: 900
GlyphClass: 2
Flags: W
LayerCount: 2
Fore
SplineSet
0 100 m 1,0,-1
 0 900 l 1,1,-1
 100 900 l 1,2,-1
 100 1000 l 1,3,-1
 600 1000 l 1,4,-1
 600 900 l 1,5,-1
 700 900 l 1,6,-1
 700 100 l 1,7,-1
 600 100 l 1,8,-1
 600 -100 l 1,9,-1
 700 -100 l 1,10,-1
 700 -200 l 1,11,-1
 498 -200 l 1,12,-1
 498 -99 l 0,13,-1
 400 -98 l 0,14,-1
 400 0 l 8,15,-1
 100 0 l 1,16,-1
 100 100 l 1,17,-1
 0 100 l 1,0,-1
200 100 m 1,18,-1
 400 100 l 1,19,-1
 398 200 l 1,20,-1
 500 200 l 1,21,-1
 500 900 l 1,22,-1
 200 900 l 1,23,-1
 200 100 l 1,18,-1
EndSplineSet
Validated: 1
EndChar

StartChar: R
Encoding: 82 82 83
Width: 901
GlyphClass: 2
Flags: W
LayerCount: 2
Fore
SplineSet
0 0 m 5,0,-1
 0 1000 l 5,1,-1
 600 1000 l 1,2,-1
 600 900 l 1,3,-1
 700 900 l 1,4,-1
 700 600 l 1,5,-1
 600 600 l 1,6,-1
 600 500 l 25,7,-1
 700 500 l 1,8,-1
 700 400 l 1,9,-1
 700 0 l 1,10,-1
 500 0 l 1,11,-1
 500 400 l 1,12,-1
 500 500 l 1,13,-1
 400 500 l 1,14,-1
 200 500 l 5,15,-1
 200 0 l 5,16,-1
 0 0 l 5,0,-1
200 600 m 5,17,-1
 500 600 l 1,18,-1
 500 900 l 1,19,-1
 200 900 l 5,20,-1
 200 600 l 5,17,-1
EndSplineSet
Validated: 1
EndChar

StartChar: S
Encoding: 83 83 84
Width: 900
GlyphClass: 2
Flags: W
LayerCount: 2
Fore
SplineSet
500 100 m 1,0,-1
 501 299 l 1,1,-1
 402 300 l 1,2,-1
 401 400.989951031 l 25,3,-1
 300.487304688 402 l 25,4,-1
 300 500 l 1,5,-1
 200 500 l 1,6,-1
 200 600 l 1,7,-1
 100 600 l 1,8,-1
 100 700 l 1,9,-1
 0 700 l 1,10,-1
 0 900 l 1,11,-1
 100 900 l 1,12,-1
 100 1000 l 1,13,-1
 698 1002 l 1,14,-1
 698 902 l 1,15,-1
 200 900 l 1,16,-1
 200 700 l 1,17,-1
 300 700 l 1,18,-1
 300 600 l 1,19,-1
 403 597 l 1,20,-1
 403 497 l 25,21,-1
 500 499 l 25,22,-1
 500 400 l 1,23,-1
 600 399 l 1,24,-1
 600 297 l 25,25,-1
 701 299 l 1,26,-1
 700 100 l 1,27,-1
 600 100 l 1,28,-1
 600 0 l 1,29,-1
 -2 0 l 1,30,-1
 -2 100 l 1,31,-1
 500 100 l 1,0,-1
EndSplineSet
Validated: 1
EndChar

StartChar: T
Encoding: 84 84 85
Width: 900
GlyphClass: 2
Flags: W
LayerCount: 2
Fore
SplineSet
4 900 m 1,0,-1
 0 1000 l 1,1,-1
 800 1000 l 1,2,-1
 802 898 l 1,3,-1
 500 900 l 1,4,-1
 500 0 l 1,5,-1
 298 0 l 1,6,-1
 300 900 l 1,7,-1
 4 900 l 1,0,-1
EndSplineSet
Validated: 1
EndChar

StartChar: U
Encoding: 85 85 86
Width: 900
GlyphClass: 2
Flags: W
LayerCount: 2
Fore
SplineSet
0 100 m 1,0,-1
 0 1000 l 1,1,-1
 200 1000 l 1,2,-1
 200 100 l 1,3,-1
 500 100 l 1,4,-1
 500 1000 l 1,5,-1
 700 1000 l 1,6,-1
 700 100 l 1,7,-1
 600 100 l 1,8,-1
 600 0 l 1,9,-1
 100 0 l 1,10,-1
 100 100 l 1,11,-1
 0 100 l 1,0,-1
EndSplineSet
Validated: 1
EndChar

StartChar: V
Encoding: 86 86 87
Width: 900
GlyphClass: 2
Flags: WO
LayerCount: 2
Fore
SplineSet
0 300 m 1,0,-1
 0 1000 l 1,1,-1
 200 1000 l 1,2,-1
 200 300 l 1,3,-1
 300 300 l 1,4,-1
 300 200 l 1,5,-1
 400 200 l 5,6,-1
 400 300 l 5,7,-1
 500 300 l 5,8,-1
 500 1000 l 5,9,-1
 700 1000 l 5,10,-1
 700 300 l 5,11,-1
 600 300 l 5,12,-1
 600 200 l 5,13,-1
 500 200 l 5,14,-1
 500 100 l 5,15,-1
 400 100 l 5,16,-1
 400 0 l 5,17,-1
 300 0 l 1,18,-1
 300 100 l 1,19,-1
 200 100 l 1,20,-1
 200 200 l 1,21,-1
 100 200 l 1,22,-1
 100 300 l 1,23,-1
 0 300 l 1,0,-1
EndSplineSet
Validated: 1
EndChar

StartChar: W
Encoding: 87 87 88
Width: 900
GlyphClass: 2
Flags: W
LayerCount: 2
Fore
SplineSet
0 200 m 1,0,-1
 0 1000 l 1,1,-1
 200 1000 l 1,2,-1
 200 300 l 1,3,-1
 300 300 l 1,4,-1
 300 404 l 5,5,-1
 400 404 l 5,6,-1
 400 300 l 1,7,-1
 500 300 l 1,8,-1
 500 1000 l 1,9,-1
 700 1000 l 1,10,-1
 700 200 l 1,11,-1
 600 200 l 1,12,-1
 600 0 l 1,13,-1
 400 0 l 1,14,-1
 400 200 l 1,15,-1
 300 200 l 1,16,-1
 300 0 l 1,17,-1
 100 0 l 1,18,-1
 100 200 l 1,19,-1
 0 200 l 1,0,-1
EndSplineSet
Validated: 1
EndChar

StartChar: X
Encoding: 88 88 89
Width: 900
GlyphClass: 2
Flags: W
LayerCount: 2
Fore
SplineSet
0 200 m 25,0,-1
 100 200 l 25,1,-1
 100 400 l 25,2,-1
 200 400 l 17,3,4
 198 400 198 400 198 600 c 9,5,-1
 195 600 l 25,6,-1
 95 601 l 25,7,-1
 95 800 l 25,8,-1
 1 800 l 25,9,-1
 0 1000 l 25,10,-1
 200 1000 l 25,11,-1
 199 800 l 25,12,-1
 295 800 l 1,13,-1
 296 599 l 25,14,-1
 396 599 l 25,15,-1
 395 800 l 1,16,-1
 500 800 l 25,17,-1
 500 1000 l 25,18,-1
 700 1000 l 25,19,-1
 699 800 l 25,20,-1
 600 800 l 25,21,-1
 598 598 l 25,22,-1
 500 600 l 25,23,-1
 499 400 l 25,24,-1
 500 400 l 25,25,-1
 602 402 l 25,26,-1
 600 200 l 25,27,-1
 700 200 l 25,28,-1
 700 0 l 25,29,-1
 500 0 l 25,30,-1
 500 200 l 25,31,-1
 400 200 l 1,32,-1
 400 401 l 29,33,-1
 300 401 l 29,34,-1
 300 200 l 1,35,-1
 200 200 l 25,36,-1
 200 0 l 25,37,-1
 0 0 l 25,38,-1
 0 200 l 25,0,-1
EndSplineSet
Validated: 1
EndChar

StartChar: Y
Encoding: 89 89 90
Width: 900
GlyphClass: 2
Flags: W
LayerCount: 2
Fore
SplineSet
0 700 m 1,0,-1
 0 1000 l 1,1,-1
 200 1000 l 1,2,-1
 200 700 l 1,3,-1
 300 700 l 1,4,-1
 300 600 l 1,5,-1
 500 600 l 1,6,-1
 500 700 l 1,7,-1
 600 700 l 1,8,-1
 600 1000 l 1,9,-1
 800 1000 l 1,10,-1
 800 700 l 1,11,-1
 700 700 l 1,12,-1
 700 600 l 1,13,-1
 600 600 l 1,14,-1
 600 500 l 1,15,-1
 500 500 l 1,16,-1
 500 0 l 1,17,-1
 296 0 l 1,18,-1
 300 500 l 1,19,-1
 200 500 l 1,20,-1
 200 600 l 1,21,-1
 100 600 l 1,22,-1
 100 700 l 1,23,-1
 0 700 l 1,0,-1
EndSplineSet
Validated: 1
EndChar

StartChar: Z
Encoding: 90 90 91
Width: 900
GlyphClass: 2
Flags: W
LayerCount: 2
Fore
SplineSet
0 0 m 1,0,-1
 0 300 l 1,1,-1
 100 300 l 1,2,-1
 100 400 l 1,3,-1
 200 400 l 1,4,-1
 200 500 l 1,5,-1
 300 500 l 1,6,-1
 300 600 l 1,7,-1
 400 600 l 1,8,-1
 400 700 l 1,9,-1
 500 700 l 1,10,-1
 500 800 l 1,11,-1
 500 800 l 1,12,-1
 500 900 l 1,13,-1
 1 901 l 1,14,-1
 0 1000 l 1,15,-1
 703 1000 l 1,16,-1
 703 800 l 1,17,-1
 700 800 l 1,18,-1
 700 700 l 1,19,-1
 600 700 l 1,20,-1
 600 600 l 1,21,-1
 500 600 l 1,22,-1
 500 500 l 1,23,-1
 400 500 l 1,24,-1
 400 400 l 1,25,-1
 300 400 l 1,26,-1
 300 300 l 1,27,-1
 200 300 l 1,28,-1
 200 100 l 1,29,-1
 704 102 l 1,30,-1
 703 0 l 1,31,-1
 0 0 l 1,0,-1
EndSplineSet
Validated: 1
EndChar

StartChar: bracketleft
Encoding: 91 91 92
Width: 900
GlyphClass: 2
Flags: W
LayerCount: 2
Fore
SplineSet
400 100 m 1,0,-1
 600 100 l 1,1,-1
 600 0 l 1,2,-1
 200 0 l 1,3,-1
 200 1000 l 1,4,-1
 600 1000 l 1,5,-1
 600 900 l 1,6,-1
 400 900 l 1,7,-1
 400 100 l 1,0,-1
EndSplineSet
Validated: 1
EndChar

StartChar: backslash
Encoding: 92 92 93
Width: 900
GlyphClass: 2
Flags: W
LayerCount: 2
Fore
SplineSet
0 600 m 1,0,-1
 0 900 l 1,1,-1
 100 900 l 1,2,-1
 100 800 l 1,3,-1
 200 800 l 1,4,-1
 200 700 l 1,5,-1
 300 700 l 1,6,-1
 300 600 l 1,7,-1
 400 600 l 1,8,-1
 400 500 l 1,9,-1
 500 500 l 1,10,-1
 500 400 l 1,11,-1
 600 400 l 1,12,-1
 600 300 l 1,13,-1
 700 300 l 1,14,-1
 700 0 l 1,15,-1
 600 0 l 1,16,-1
 600 100 l 1,17,-1
 500 100 l 1,18,-1
 500 200 l 1,19,-1
 400 200 l 1,20,-1
 400 300 l 1,21,-1
 300 300 l 1,22,-1
 300 400 l 1,23,-1
 200 400 l 1,24,-1
 200 500 l 1,25,-1
 100 500 l 1,26,-1
 100 600 l 1,27,-1
 0 600 l 1,0,-1
EndSplineSet
Validated: 1
EndChar

StartChar: bracketright
Encoding: 93 93 94
Width: 900
GlyphClass: 2
Flags: W
LayerCount: 2
Fore
SplineSet
400 100 m 1,0,-1
 400 900 l 1,1,-1
 200 900 l 1,2,-1
 200 1000 l 1,3,-1
 600 1000 l 1,4,-1
 600 0 l 1,5,-1
 200 0 l 1,6,-1
 200 100 l 1,7,-1
 400 100 l 1,0,-1
EndSplineSet
Validated: 1
EndChar

StartChar: asciicircum
Encoding: 94 94 95
Width: 900
GlyphClass: 2
Flags: W
LayerCount: 2
Fore
SplineSet
0 800 m 1,0,-1
 0 900 l 1,1,-1
 100 900 l 1,2,-1
 100 1000 l 1,3,-1
 200 1000 l 1,4,-1
 200 1100 l 1,5,-1
 300 1100 l 1,6,-1
 300 1200 l 1,7,-1
 400 1200 l 1,8,-1
 400 1100 l 1,9,-1
 500 1100 l 1,10,-1
 500 1000 l 1,11,-1
 600 1000 l 1,12,-1
 600 900 l 1,13,-1
 700 900 l 1,14,-1
 700 800 l 1,15,-1
 500 800 l 1,16,-1
 500 900 l 1,17,-1
 400 900 l 1,18,-1
 400 1000 l 1,19,-1
 300 1000 l 1,20,-1
 300 900 l 1,21,-1
 200 900 l 1,22,-1
 200 800 l 1,23,-1
 0 800 l 1,0,-1
EndSplineSet
Validated: 1
EndChar

StartChar: underscore
Encoding: 95 95 96
Width: 900
GlyphClass: 2
Flags: W
LayerCount: 2
Fore
SplineSet
0 -200 m 1,0,-1
 0 -100 l 1,1,-1
 800 -100 l 1,2,-1
 800 -200 l 1,3,-1
 0 -200 l 1,0,-1
EndSplineSet
Validated: 1
EndChar

StartChar: grave
Encoding: 96 96 97
Width: 900
GlyphClass: 2
Flags: W
LayerCount: 2
Fore
SplineSet
400 1000 m 1,0,-1
 500 1000 l 1,1,-1
 500 900 l 1,2,-1
 300 900 l 1,3,-1
 300 1000 l 1,4,-1
 200 1000 l 1,5,-1
 200 1200 l 1,6,-1
 400 1200 l 1,7,-1
 400 1000 l 1,0,-1
EndSplineSet
Validated: 1
EndChar

StartChar: a
Encoding: 97 97 98
Width: 900
GlyphClass: 2
Flags: W
LayerCount: 2
Fore
SplineSet
498 0 m 1,0,-1
 698 0 l 1,1,-1
 697 700 l 1,2,-1
 301 700 l 25,3,-1
 199 702 l 25,4,-1
 199.979492188 599 l 25,5,-1
 98 600 l 1,6,-1
 100 498 l 1,7,-1
 0 497 l 1,8,-1
 0 100 l 1,9,-1
 100 100 l 1,10,-1
 100 0 l 1,11,-1
 402 0 l 1,12,-1
 403 104 l 1,13,-1
 200 100 l 1,14,-1
 202 498 l 1,15,-1
 301 498 l 25,16,-1
 300 598 l 25,17,-1
 498 598 l 1,18,-1
 498 0 l 1,0,-1
EndSplineSet
Validated: 9
EndChar

StartChar: b
Encoding: 98 98 99
Width: 900
GlyphClass: 2
Flags: W
HStem: 0 100<300 500> 600 100<300 501> 980 20G<99 300>
VStem: 100 200<100 600 700 1000> 500 200<100 598>
LayerCount: 2
Fore
SplineSet
300.573242188 599.3359375 m 1,0,-1
 501 598 l 1,1,-1
 500 100 l 1,2,-1
 201 100 l 1,3,-1
 201 600 l 1,4,-1
 201 700 l 1,5,-1
 201 1000 l 1,6,-1
 0 1000 l 1,7,-1
 1 0 l 1,8,-1
 600 0 l 1,9,-1
 600 100 l 1,10,-1
 700 100 l 1,11,-1
 699 599 l 1,12,-1
 600 602 l 1,13,-1
 601 700 l 1,14,-1
 300 704 l 5,15,-1
 300.573242188 599.3359375 l 1,0,-1
EndSplineSet
Validated: 9
EndChar

StartChar: c
Encoding: 99 99 100
Width: 900
GlyphClass: 2
Flags: W
LayerCount: 2
Fore
SplineSet
0 100 m 1,0,-1
 0 600 l 1,1,-1
 100 600 l 1,2,-1
 100 700 l 1,3,-1
 600 700 l 1,4,-1
 600 600 l 1,5,-1
 200 600 l 1,6,-1
 200 100 l 1,7,-1
 600 100 l 1,8,-1
 600 0 l 1,9,-1
 100 0 l 1,10,-1
 100 100 l 1,11,-1
 0 100 l 1,0,-1
EndSplineSet
Validated: 1
EndChar

StartChar: d
Encoding: 100 100 101
Width: 900
GlyphClass: 2
Flags: W
LayerCount: 2
Fore
SplineSet
700 0 m 1,0,-1
 700 1000 l 1,1,-1
 499 1000 l 1,2,-1
 500 700 l 1,3,-1
 500 600 l 1,4,-1
 500 100 l 1,5,-1
 200 100 l 1,6,-1
 201 599 l 1,7,-1
 400 598 l 25,8,-1
 402 700.24609375 l 1,9,-1
 101 701 l 1,10,-1
 101 599 l 1,11,-1
 1 601 l 1,12,-1
 0 100 l 1,13,-1
 100 100 l 1,14,-1
 100 0 l 1,15,-1
 700 0 l 1,0,-1
EndSplineSet
EndChar

StartChar: e
Encoding: 101 101 102
Width: 900
GlyphClass: 2
Flags: W
LayerCount: 2
Fore
SplineSet
0 100 m 1,0,-1
 0 600 l 1,1,-1
 100 600 l 1,2,-1
 100 700 l 1,3,-1
 600 700 l 1,4,-1
 600 600 l 1,5,-1
 700 600 l 1,6,-1
 700 300 l 1,7,-1
 200 300 l 1,8,-1
 200 100 l 1,9,-1
 600 100 l 1,10,-1
 600 0 l 1,11,-1
 100 0 l 1,12,-1
 100 100 l 1,13,-1
 0 100 l 1,0,-1
200 400 m 1,14,-1
 500 400 l 1,15,-1
 500 600 l 1,16,-1
 200 600 l 1,17,-1
 200 400 l 1,14,-1
EndSplineSet
Validated: 1
EndChar

StartChar: f
Encoding: 102 102 103
Width: 900
GlyphClass: 2
Flags: W
LayerCount: 2
Fore
SplineSet
201 0 m 1,0,-1
 202 500 l 1,1,-1
 0 500 l 1,2,-1
 0 600 l 1,3,-1
 202 600 l 1,4,-1
 202 900 l 1,5,-1
 302 900 l 1,6,-1
 302 1000 l 1,7,-1
 602 1000 l 1,8,-1
 602 900 l 1,9,-1
 502 900 l 1,10,-1
 402 900 l 1,11,-1
 402 600 l 1,12,-1
 600 600 l 1,13,-1
 600 500 l 1,14,-1
 402 500 l 1,15,-1
 404 1 l 1,16,-1
 201 0 l 1,0,-1
EndSplineSet
Validated: 1
EndChar

StartChar: g
Encoding: 103 103 104
Width: 900
GlyphClass: 2
Flags: W
LayerCount: 2
Fore
SplineSet
200 600 m 1,0,-1
 200 100 l 1,1,-1
 400 102 l 1,2,-1
 402 0 l 0,3,-1
 100 0 l 1,4,-1
 100 100 l 1,5,-1
 0 100 l 1,6,-1
 0 600 l 1,7,-1
 100 600 l 1,8,-1
 100 700 l 1,9,-1
 698 698 l 1,10,-1
 698 -202 l 1,11,-1
 597 -202 l 1,12,-1
 597 -302 l 1,13,-1
 97 -302 l 1,14,-1
 97 -202 l 5,15,-1
 498 -202 l 5,16,-1
 497 598 l 1,17,-1
 200 600 l 1,0,-1
EndSplineSet
EndChar

StartChar: h
Encoding: 104 104 105
Width: 900
GlyphClass: 2
Flags: W
LayerCount: 2
Fore
SplineSet
600 700 m 1,0,-1
 600 600 l 1,1,-1
 700 600 l 1,2,-1
 700 0 l 1,3,-1
 500 0 l 1,4,-1
 500 600 l 1,5,-1
 201 601 l 1,6,-1
 200 0 l 1,7,-1
 -1 0 l 1,8,-1
 0 1000 l 1,9,-1
 200 1000 l 1,10,-1
 201 700 l 1,11,-1
 600 700 l 1,0,-1
EndSplineSet
EndChar

StartChar: i
Encoding: 105 105 106
Width: 900
GlyphClass: 2
Flags: W
LayerCount: 2
Fore
SplineSet
300 0 m 1,0,-1
 298 701 l 1,1,-1
 500 700 l 1,2,-1
 502 0 l 1,3,-1
 300 0 l 1,0,-1
300 1000 m 1,4,-1
 500 1000 l 1,5,-1
 500 800 l 1,6,-1
 300 800 l 1,7,-1
 300 1000 l 1,4,-1
EndSplineSet
Validated: 1
EndChar

StartChar: j
Encoding: 106 106 107
Width: 900
GlyphClass: 2
Flags: W
LayerCount: 2
Fore
SplineSet
300 -200 m 5,0,-1
 300 700 l 5,1,-1
 500 700 l 5,2,-1
 500 -200 l 5,3,-1
 400 -200 l 5,4,-1
 400 -300 l 5,5,-1
 0 -300 l 5,6,-1
 0 -200 l 5,7,-1
 300 -200 l 5,0,-1
300 1000 m 5,8,-1
 500 1000 l 5,9,-1
 500 800 l 5,10,-1
 300 800 l 5,11,-1
 300 1000 l 5,8,-1
EndSplineSet
Validated: 1
EndChar

StartChar: k
Encoding: 107 107 108
Width: 900
GlyphClass: 2
Flags: W
LayerCount: 2
Fore
SplineSet
0 0 m 1,0,-1
 0 1000 l 1,1,-1
 200 1000 l 1,2,-1
 200 399 l 1,3,-1
 300 397 l 0,4,-1
 300 500 l 1,5,-1
 398 500 l 1,6,-1
 398 600 l 0,7,-1
 500 600 l 1,8,-1
 500 700 l 1,9,-1
 700 700 l 1,10,-1
 700 600 l 1,11,-1
 600 600 l 1,12,-1
 600 499 l 25,13,-1
 500 498 l 1,14,-1
 501 399 l 1,15,-1
 400 401 l 1,16,-1
 400 300 l 1,17,-1
 502 296 l 1,18,-1
 502 200 l 0,19,-1
 600 200 l 1,20,-1
 598 100 l 0,21,-1
 700 100 l 1,22,-1
 700 0 l 1,23,-1
 500 0 l 1,24,-1
 500 99 l 1,25,-1
 398 100 l 0,26,-1
 398 200 l 0,27,-1
 300 200 l 1,28,-1
 300 300 l 1,29,-1
 200 300 l 1,30,-1
 200 0 l 1,31,-1
 0 0 l 1,0,-1
EndSplineSet
Validated: 1
EndChar

StartChar: l
Encoding: 108 108 109
Width: 900
GlyphClass: 2
Flags: W
LayerCount: 2
Fore
SplineSet
499 202 m 1,0,-1
 499 100 l 25,1,-1
 700 100 l 1,2,-1
 700 0 l 1,3,-1
 399 0 l 25,4,-1
 398 103 l 25,5,-1
 299.48046875 103 l 25,6,-1
 299 200 l 1,7,-1
 199 198 l 25,8,-1
 202 1000 l 1,9,-1
 402 1000 l 1,10,-1
 402 200 l 25,11,-1
 499 202 l 1,0,-1
EndSplineSet
Validated: 1
EndChar

StartChar: m
Encoding: 109 109 110
Width: 900
GlyphClass: 2
Flags: W
LayerCount: 2
Fore
SplineSet
0 0 m 1,0,-1
 0 700 l 1,1,-1
 300 700 l 1,2,-1
 300 700 l 1,3,-1
 402 700 l 1,4,-1
 402 700 l 1,5,-1
 602 700 l 1,6,-1
 602 600 l 1,7,-1
 702 600 l 1,8,-1
 702 0 l 1,9,-1
 502 0 l 1,10,-1
 502 597 l 1,11,-1
 402 597 l 1,12,-1
 402 0 l 1,13,-1
 300 0 l 1,14,-1
 300 597 l 1,15,-1
 200 597 l 1,16,-1
 200 0 l 1,17,-1
 0 0 l 1,0,-1
EndSplineSet
Validated: 1
EndChar

StartChar: n
Encoding: 110 110 111
Width: 900
GlyphClass: 2
Flags: W
LayerCount: 2
Fore
SplineSet
600 700 m 1,0,-1
 600 600 l 1,1,-1
 700 600 l 1,2,-1
 700 0 l 1,3,-1
 500 0 l 1,4,-1
 500 600 l 1,5,-1
 198 600 l 1,6,-1
 198 0 l 1,7,-1
 -2 0 l 1,8,-1
 -2 700 l 1,9,-1
 600 700 l 1,0,-1
EndSplineSet
EndChar

StartChar: o
Encoding: 111 111 112
Width: 900
GlyphClass: 2
Flags: W
LayerCount: 2
Fore
SplineSet
0 100 m 1,0,-1
 0 600 l 1,1,-1
 100 600 l 1,2,-1
 100 700 l 1,3,-1
 600 700 l 1,4,-1
 600 600 l 1,5,-1
 700 600 l 1,6,-1
 700 100 l 1,7,-1
 600 100 l 1,8,-1
 600 0 l 1,9,-1
 100 0 l 1,10,-1
 100 100 l 1,11,-1
 0 100 l 1,0,-1
200 100 m 1,12,-1
 500 100 l 1,13,-1
 500 600 l 1,14,-1
 200 600 l 1,15,-1
 200 100 l 1,12,-1
EndSplineSet
Validated: 1
EndChar

StartChar: p
Encoding: 112 112 113
Width: 900
GlyphClass: 2
Flags: W
LayerCount: 2
Fore
SplineSet
200 600 m 1,0,-1
 500 600 l 1,1,-1
 500 100 l 1,2,-1
 302 101 l 1,3,-1
 300 0 l 1,4,-1
 600 0 l 1,5,-1
 600 100 l 1,6,-1
 700 100 l 1,7,-1
 700 600 l 1,8,-1
 600 600 l 1,9,-1
 600 700 l 1,10,-1
 2 700 l 1,11,-1
 0 -300 l 1,12,-1
 201 -300 l 1,13,-1
 200 600 l 1,0,-1
EndSplineSet
EndChar

StartChar: q
Encoding: 113 113 114
Width: 900
GlyphClass: 2
Flags: W
LayerCount: 2
Fore
SplineSet
498 600 m 1,0,-1
 200 600 l 1,1,-1
 200 100 l 1,2,-1
 400 100 l 25,3,-1
 402 0 l 1,4,-1
 100 0 l 1,5,-1
 100 100 l 1,6,-1
 0 100 l 1,7,-1
 0 600 l 1,8,-1
 100 600 l 1,9,-1
 100 700 l 1,10,-1
 700 700 l 1,11,-1
 700 -300 l 1,12,-1
 500 -302 l 1,13,-1
 498 0 l 1,14,-1
 498 100 l 1,15,-1
 498 600 l 1,0,-1
EndSplineSet
EndChar

StartChar: r
Encoding: 114 114 115
Width: 900
GlyphClass: 2
Flags: W
LayerCount: 2
Fore
SplineSet
0 0 m 1,0,-1
 0 601 l 0,1,-1
 98 599 l 5,2,-1
 100 703.333333333 l 0,3,-1
 600 700 l 1,4,-1
 600 600 l 1,5,-1
 198 602 l 1,6,-1
 204 0 l 1,7,-1
 0 0 l 1,0,-1
EndSplineSet
Validated: 1
EndChar

StartChar: s
Encoding: 115 115 116
Width: 900
GlyphClass: 2
Flags: W
LayerCount: 2
Fore
SplineSet
400 100 m 1,0,-1
 400 202 l 1,1,-1
 401 300 l 5,2,-1
 300 300 l 1,3,-1
 200 300 l 1,4,-1
 99 300 l 1,5,-1
 100 400 l 1,6,-1
 0 400 l 1,7,-1
 0 500 l 1,8,-1
 0 600 l 1,9,-1
 100 600 l 1,10,-1
 100 700 l 1,11,-1
 600 700 l 1,12,-1
 600 600 l 1,13,-1
 200 600 l 1,14,-1
 200 500 l 1,15,-1
 201 404 l 1,16,-1
 303 402 l 1,17,-1
 400 399 l 1,18,-1
 499 398 l 1,19,-1
 498 298 l 1,20,-1
 599 298 l 1,21,-1
 597 202 l 1,22,-1
 600 100 l 1,23,-1
 500 101 l 1,24,-1
 499 0 l 25,25,-1
 0 0 l 1,26,-1
 0 100 l 1,27,-1
 400 100 l 1,0,-1
EndSplineSet
Validated: 1
EndChar

StartChar: t
Encoding: 116 116 117
Width: 900
GlyphClass: 2
Flags: W
LayerCount: 2
Fore
SplineSet
0 600 m 1,0,-1
 0 700 l 1,1,-1
 200 700 l 1,2,-1
 198 1004 l 1,3,-1
 400 1000 l 1,4,-1
 400 700 l 1,5,-1
 600 700 l 1,6,-1
 600 600 l 1,7,-1
 400 600 l 1,8,-1
 400 100 l 1,9,-1
 602 102 l 1,10,-1
 602 2 l 1,11,-1
 300 0 l 1,12,-1
 300 100 l 1,13,-1
 200 100 l 1,14,-1
 200 600 l 1,15,-1
 0 600 l 1,0,-1
EndSplineSet
Validated: 1
EndChar

StartChar: u
Encoding: 117 117 118
Width: 900
GlyphClass: 2
Flags: W
LayerCount: 2
Fore
SplineSet
700 0 m 1,0,-1
 700 700 l 1,1,-1
 498 700 l 1,2,-1
 498 100 l 1,3,-1
 200 100 l 1,4,-1
 200 700 l 1,5,-1
 0 700 l 1,6,-1
 0 100 l 1,7,-1
 100 100 l 1,8,-1
 100 0 l 1,9,-1
 700 0 l 1,0,-1
EndSplineSet
EndChar

StartChar: v
Encoding: 118 118 119
Width: 900
GlyphClass: 2
Flags: W
LayerCount: 2
Fore
SplineSet
0 300 m 1,0,-1
 0 700 l 1,1,-1
 200 700 l 1,2,-1
 200 300 l 1,3,-1
 300 300 l 1,4,-1
 300 200 l 1,5,-1
 400 200 l 1,6,-1
 400 300 l 1,7,-1
 500 300 l 1,8,-1
 500 700 l 1,9,-1
 700 700 l 1,10,-1
 700 300 l 1,11,-1
 600 300 l 1,12,-1
 600 200 l 1,13,-1
 500 200 l 1,14,-1
 500 100 l 1,15,-1
 400 100 l 1,16,-1
 400 0 l 1,17,-1
 300 0 l 1,18,-1
 300 100 l 1,19,-1
 200 100 l 1,20,-1
 200 200 l 1,21,-1
 100 200 l 1,22,-1
 100 300 l 1,23,-1
 0 300 l 1,0,-1
EndSplineSet
EndChar

StartChar: w
Encoding: 119 119 120
Width: 900
GlyphClass: 2
Flags: W
LayerCount: 2
Fore
SplineSet
0 100 m 1,0,-1
 0 700 l 1,1,-1
 200 700 l 1,2,-1
 200 200 l 1,3,-1
 300 200 l 1,4,-1
 300 400 l 1,5,-1
 402 400 l 5,6,-1
 402 200 l 5,7,-1
 502 200 l 5,8,-1
 502 700 l 5,9,-1
 702 700 l 5,10,-1
 702 100 l 5,11,-1
 602 100 l 5,12,-1
 602 0 l 5,13,-1
 402 0 l 5,14,-1
 402 100 l 5,15,-1
 300 100 l 1,16,-1
 300 0 l 1,17,-1
 100 0 l 1,18,-1
 100 100 l 1,19,-1
 0 100 l 1,0,-1
EndSplineSet
Validated: 1
EndChar

StartChar: x
Encoding: 120 120 121
Width: 900
GlyphClass: 2
Flags: W
LayerCount: 2
Fore
SplineSet
0 0 m 1,0,-1
 -3 200 l 1,1,-1
 97 200 l 1,2,-1
 97 300 l 1,3,-1
 197 300 l 1,4,-1
 200 300 l 1,5,-1
 200 300 l 1,6,-1
 200 400 l 1,7,-1
 200 400 l 1,8,-1
 200 400 l 1,9,-1
 100 400 l 1,10,-1
 97 500 l 1,11,-1
 -3 500 l 1,12,-1
 0 700 l 1,13,-1
 200 700 l 1,14,-1
 197 500 l 1,15,-1
 300 500 l 1,16,-1
 302 403 l 1,17,-1
 401 404 l 1,18,-1
 399 500 l 1,19,-1
 499 500 l 1,20,-1
 502 700 l 1,21,-1
 702 700 l 1,22,-1
 699 500 l 1,23,-1
 599 500 l 1,24,-1
 602 400 l 1,25,-1
 502 400 l 1,26,-1
 502 400 l 1,27,-1
 502 400 l 1,28,-1
 502 300 l 1,29,-1
 502 300 l 1,30,-1
 499 300 l 1,31,-1
 599 300 l 1,32,-1
 599 200 l 1,33,-1
 699 200 l 1,34,-1
 702 0 l 1,35,-1
 502 0 l 1,36,-1
 499 200 l 1,37,-1
 399 200 l 1,38,-1
 399 300 l 1,39,-1
 297 300 l 1,40,-1
 297 200 l 1,41,-1
 197 200 l 1,42,-1
 200 0 l 1,43,-1
 0 0 l 1,0,-1
EndSplineSet
Validated: 5
EndChar

StartChar: y
Encoding: 121 121 122
Width: 900
GlyphClass: 2
Flags: W
LayerCount: 2
Fore
SplineSet
0 100 m 1,0,-1
 0 700 l 1,1,-1
 200 700 l 1,2,-1
 200 100 l 1,3,-1
 500 100 l 1,4,-1
 500 700 l 1,5,-1
 700 700 l 1,6,-1
 700 -100 l 1,7,-1
 600 -100 l 1,8,-1
 600 -200 l 1,9,-1
 500 -200 l 1,10,-1
 500 -300 l 1,11,-1
 0 -300 l 1,12,-1
 0 -200 l 1,13,-1
 400 -200 l 1,14,-1
 400 -100 l 1,15,-1
 500 -100 l 1,16,-1
 500 0 l 1,17,-1
 100 0 l 1,18,-1
 100 100 l 1,19,-1
 0 100 l 1,0,-1
EndSplineSet
Validated: 1
EndChar

StartChar: z
Encoding: 122 122 123
Width: 900
GlyphClass: 2
Flags: W
LayerCount: 2
Fore
SplineSet
0 200 m 1,0,-1
 100 200 l 1,1,-1
 100 300 l 1,2,-1
 200 300 l 1,3,-1
 200 400 l 1,4,-1
 300 400 l 1,5,-1
 300 500 l 1,6,-1
 400 500 l 1,7,-1
 400 600 l 1,8,-1
 200 600 l 1,9,-1
 200 600 l 1,10,-1
 0 600 l 1,11,-1
 0 700 l 1,12,-1
 700 700 l 1,13,-1
 700 600 l 1,14,-1
 600 600 l 1,15,-1
 600 500 l 1,16,-1
 500 500 l 1,17,-1
 500 400 l 1,18,-1
 400 400 l 1,19,-1
 400 300 l 1,20,-1
 300 300 l 1,21,-1
 300 200 l 1,22,-1
 200 200 l 1,23,-1
 200 100 l 1,24,-1
 700 100 l 1,25,-1
 700 0 l 1,26,-1
 0 0 l 1,27,-1
 0 200 l 1,0,-1
EndSplineSet
Validated: 1
EndChar

StartChar: braceleft
Encoding: 123 123 124
Width: 900
GlyphClass: 2
Flags: W
LayerCount: 2
Fore
SplineSet
100 500 m 1,0,-1
 100 600 l 1,1,-1
 300 600 l 1,2,-1
 300 900 l 1,3,-1
 400 900 l 1,4,-1
 400 1000 l 1,5,-1
 700 1000 l 1,6,-1
 700 900 l 1,7,-1
 500 900 l 1,8,-1
 500 600 l 1,9,-1
 400 600 l 1,10,-1
 400 500 l 1,11,-1
 500 500 l 1,12,-1
 500 100 l 1,13,-1
 700 100 l 1,14,-1
 700 0 l 1,15,-1
 400 0 l 1,16,-1
 400 100 l 1,17,-1
 300 100 l 1,18,-1
 300 500 l 1,19,-1
 100 500 l 1,0,-1
EndSplineSet
Validated: 1
EndChar

StartChar: bar
Encoding: 124 124 125
Width: 900
GlyphClass: 2
Flags: W
LayerCount: 2
Fore
SplineSet
500 0 m 1,0,-1
 300 0 l 1,1,-1
 300 500 l 1,2,-1
 500 500 l 1,3,-1
 500 0 l 1,0,-1
500 600 m 1,4,-1
 300 600 l 1,5,-1
 300 1000 l 1,6,-1
 500 1000 l 1,7,-1
 500 600 l 1,4,-1
EndSplineSet
Validated: 1
EndChar

StartChar: braceright
Encoding: 125 125 126
Width: 900
GlyphClass: 2
Flags: W
LayerCount: 2
Fore
SplineSet
100 0 m 1,0,-1
 100 100 l 1,1,-1
 300 100 l 1,2,-1
 300 500 l 1,3,-1
 400 500 l 1,4,-1
 400 600 l 1,5,-1
 300 600 l 1,6,-1
 300 900 l 1,7,-1
 100 900 l 1,8,-1
 100 1000 l 1,9,-1
 400 1000 l 1,10,-1
 400 900 l 1,11,-1
 500 900 l 1,12,-1
 500 600 l 1,13,-1
 700 600 l 1,14,-1
 700 500 l 1,15,-1
 500 500 l 1,16,-1
 500 100 l 1,17,-1
 400 100 l 1,18,-1
 400 0 l 1,19,-1
 100 0 l 1,0,-1
EndSplineSet
Validated: 1
EndChar

StartChar: asciitilde
Encoding: 126 126 127
Width: 900
GlyphClass: 2
Flags: W
LayerCount: 2
Fore
SplineSet
0 800 m 1,0,-1
 0 900 l 1,1,-1
 100 900 l 1,2,-1
 100 1000 l 1,3,-1
 400 1000 l 1,4,-1
 400 900 l 1,5,-1
 500 900 l 1,6,-1
 500 1000 l 1,7,-1
 700 1000 l 1,8,-1
 700 900 l 1,9,-1
 600 900 l 1,10,-1
 600 800 l 1,11,-1
 300 800 l 1,12,-1
 300 900 l 1,13,-1
 200 900 l 1,14,-1
 200 800 l 1,15,-1
 0 800 l 1,0,-1
EndSplineSet
Validated: 1
EndChar

StartChar: uni007F
Encoding: 127 127 128
Width: 900
GlyphClass: 2
Flags: W
LayerCount: 2
Fore
SplineSet
0 100 m 1,0,-1
 0 500 l 1,1,-1
 100 500 l 1,2,-1
 100 600 l 1,3,-1
 200 600 l 1,4,-1
 200 700 l 1,5,-1
 300 700 l 1,6,-1
 300 800 l 1,7,-1
 400 800 l 1,8,-1
 400 700 l 1,9,-1
 500 700 l 1,10,-1
 500 600 l 1,11,-1
 600 600 l 1,12,-1
 600 500 l 1,13,-1
 700 500 l 1,14,-1
 700 100 l 1,15,-1
 0 100 l 1,0,-1
200 200 m 1,16,-1
 500 200 l 1,17,-1
 500 500 l 1,18,-1
 400 500 l 1,19,-1
 400 600 l 1,20,-1
 300 600 l 1,21,-1
 300 500 l 1,22,-1
 200 500 l 1,23,-1
 200 200 l 1,16,-1
EndSplineSet
Validated: 1
EndChar

StartChar: exclamdown
Encoding: 161 161 130
Width: 900
GlyphClass: 2
Flags: W
LayerCount: 2
Fore
SplineSet
200 100 m 1,0,-1
 200 400 l 1,1,-1
 300 400 l 1,2,-1
 300 700 l 1,3,-1
 500 700 l 1,4,-1
 500 400 l 1,5,-1
 600 400 l 1,6,-1
 600 100 l 1,7,-1
 500 100 l 1,8,-1
 500 0 l 1,9,-1
 300 0 l 1,10,-1
 300 100 l 1,11,-1
 200 100 l 1,0,-1
300 1000 m 1,12,-1
 500 1000 l 1,13,-1
 500 800 l 1,14,-1
 300 800 l 1,15,-1
 300 1000 l 1,12,-1
EndSplineSet
Validated: 1
EndChar

StartChar: cent
Encoding: 162 162 131
Width: 900
GlyphClass: 2
Flags: W
LayerCount: 2
Fore
SplineSet
0 300 m 1,0,-1
 0 800 l 1,1,-1
 100 800 l 1,2,-1
 100 900 l 1,3,-1
 300 900 l 1,4,-1
 300 1100 l 1,5,-1
 500 1100 l 1,6,-1
 500 900 l 1,7,-1
 700 900 l 1,8,-1
 700 800 l 1,9,-1
 800 800 l 1,10,-1
 800 700 l 1,11,-1
 600 700 l 1,12,-1
 600 800 l 1,13,-1
 200 800 l 1,14,-1
 200 300 l 1,15,-1
 600 300 l 1,16,-1
 600 400 l 1,17,-1
 800 400 l 1,18,-1
 800 300 l 1,19,-1
 700 300 l 1,20,-1
 700 200 l 1,21,-1
 500 200 l 1,22,-1
 500 0 l 1,23,-1
 300 0 l 1,24,-1
 300 200 l 1,25,-1
 100 200 l 1,26,-1
 100 300 l 1,27,-1
 0 300 l 1,0,-1
EndSplineSet
Validated: 1
EndChar

StartChar: sterling
Encoding: 163 163 132
Width: 900
GlyphClass: 2
Flags: W
LayerCount: 2
Fore
SplineSet
0 200 m 1,0,-1
 100 200 l 1,1,-1
 100 600 l 1,2,-1
 0 600 l 1,3,-1
 0 700 l 1,4,-1
 100 700 l 1,5,-1
 100 1000 l 1,6,-1
 200 1000 l 1,7,-1
 200 1100 l 1,8,-1
 500 1100 l 1,9,-1
 500 1000 l 1,10,-1
 600 1000 l 1,11,-1
 600 800 l 1,12,-1
 500 800 l 1,13,-1
 500 900 l 1,14,-1
 400 900 l 1,15,-1
 400 1000 l 1,16,-1
 300 1000 l 1,17,-1
 300 700 l 1,18,-1
 400 700 l 1,19,-1
 400 600 l 1,20,-1
 300 600 l 1,21,-1
 300 100 l 1,22,-1
 500 100 l 1,23,-1
 500 200 l 1,24,-1
 700 200 l 1,25,-1
 700 100 l 1,26,-1
 600 100 l 1,27,-1
 600 0 l 1,28,-1
 0 0 l 1,29,-1
 0 200 l 1,0,-1
EndSplineSet
Validated: 1
EndChar

StartChar: currency
Encoding: 164 164 133
Width: 900
GlyphClass: 2
Flags: W
LayerCount: 2
Fore
SplineSet
0 0 m 1,0,-1
 0 100 l 1,1,-1
 100 100 l 1,2,-1
 100 200 l 1,3,-1
 0 200 l 1,4,-1
 0 600 l 1,5,-1
 100 600 l 1,6,-1
 100 700 l 1,7,-1
 0 700 l 1,8,-1
 0 800 l 1,9,-1
 200 800 l 1,10,-1
 200 700 l 1,11,-1
 500 700 l 1,12,-1
 500 800 l 1,13,-1
 700 800 l 1,14,-1
 700 700 l 1,15,-1
 600 700 l 1,16,-1
 600 600 l 1,17,-1
 700 600 l 1,18,-1
 700 200 l 1,19,-1
 600 200 l 1,20,-1
 600 100 l 1,21,-1
 700 100 l 1,22,-1
 700 0 l 1,23,-1
 500 0 l 1,24,-1
 500 100 l 1,25,-1
 200 100 l 1,26,-1
 200 0 l 1,27,-1
 0 0 l 1,0,-1
200 200 m 1,28,-1
 500 200 l 1,29,-1
 500 600 l 1,30,-1
 200 600 l 1,31,-1
 200 200 l 1,28,-1
EndSplineSet
Validated: 1
EndChar

StartChar: yen
Encoding: 165 165 134
Width: 900
GlyphClass: 2
Flags: W
LayerCount: 2
Fore
SplineSet
0 500 m 1,0,-1
 0 600 l 1,1,-1
 300 600 l 1,2,-1
 300 700 l 1,3,-1
 200 700 l 1,4,-1
 200 800 l 1,5,-1
 100 800 l 1,6,-1
 100 900 l 1,7,-1
 0 900 l 1,8,-1
 0 1000 l 1,9,-1
 200 1000 l 1,10,-1
 200 900 l 1,11,-1
 300 900 l 1,12,-1
 300 800 l 1,13,-1
 500 800 l 1,14,-1
 500 900 l 1,15,-1
 600 900 l 1,16,-1
 600 1000 l 1,17,-1
 800 1000 l 1,18,-1
 800 900 l 1,19,-1
 700 900 l 1,20,-1
 700 800 l 1,21,-1
 600 800 l 1,22,-1
 600 700 l 1,23,-1
 500 700 l 1,24,-1
 500 600 l 1,25,-1
 800 600 l 1,26,-1
 800 500 l 1,27,-1
 500 500 l 1,28,-1
 500 400 l 1,29,-1
 800 400 l 1,30,-1
 800 300 l 1,31,-1
 500 300 l 1,32,-1
 500 0 l 1,33,-1
 300 0 l 1,34,-1
 300 300 l 1,35,-1
 0 300 l 1,36,-1
 0 400 l 1,37,-1
 300 400 l 1,38,-1
 300 500 l 1,39,-1
 0 500 l 1,0,-1
EndSplineSet
Validated: 1
EndChar

StartChar: brokenbar
Encoding: 166 166 135
Width: 900
GlyphClass: 2
Flags: W
LayerCount: 2
Fore
SplineSet
500 0 m 1,0,-1
 300 0 l 1,1,-1
 300 500 l 1,2,-1
 500 500 l 1,3,-1
 500 0 l 1,0,-1
500 600 m 1,4,-1
 300 600 l 1,5,-1
 300 1000 l 1,6,-1
 500 1000 l 1,7,-1
 500 600 l 1,4,-1
EndSplineSet
Validated: 1
EndChar

StartChar: section
Encoding: 167 167 136
Width: 900
GlyphClass: 2
Flags: W
LayerCount: 2
Fore
SplineSet
0 0 m 1,0,-1
 0 100 l 1,1,-1
 200 100 l 1,2,-1
 200 0 l 1,3,-1
 500 0 l 1,4,-1
 500 100 l 1,5,-1
 400 100 l 1,6,-1
 400 200 l 1,7,-1
 200 200 l 1,8,-1
 200 300 l 1,9,-1
 100 300 l 1,10,-1
 100 400 l 1,11,-1
 0 400 l 1,12,-1
 0 600 l 1,13,-1
 100 600 l 1,14,-1
 100 700 l 1,15,-1
 200 700 l 1,16,-1
 200 800 l 1,17,-1
 100 800 l 1,18,-1
 100 900 l 1,19,-1
 0 900 l 1,20,-1
 0 1000 l 1,21,-1
 100 1000 l 1,22,-1
 100 1100 l 1,23,-1
 600 1100 l 1,24,-1
 600 1000 l 1,25,-1
 700 1000 l 1,26,-1
 700 900 l 1,27,-1
 500 900 l 1,28,-1
 500 1000 l 1,29,-1
 200 1000 l 1,30,-1
 200 900 l 1,31,-1
 300 900 l 1,32,-1
 300 800 l 1,33,-1
 500 800 l 1,34,-1
 500 700 l 1,35,-1
 600 700 l 1,36,-1
 600 600 l 1,37,-1
 700 600 l 1,38,-1
 700 400 l 1,39,-1
 600 400 l 1,40,-1
 600 300 l 1,41,-1
 500 300 l 1,42,-1
 500 200 l 1,43,-1
 600 200 l 1,44,-1
 600 100 l 1,45,-1
 700 100 l 1,46,-1
 700 0 l 1,47,-1
 600 0 l 1,48,-1
 600 -100 l 1,49,-1
 100 -100 l 1,50,-1
 100 0 l 1,51,-1
 0 0 l 1,0,-1
400 300 m 1,52,-1
 400 400 l 1,53,-1
 500 400 l 1,54,-1
 500 600 l 1,55,-1
 400 600 l 1,56,-1
 400 700 l 1,57,-1
 300 700 l 1,58,-1
 300 600 l 1,59,-1
 200 600 l 1,60,-1
 200 400 l 1,61,-1
 300 400 l 1,62,-1
 300 300 l 1,63,-1
 400 300 l 1,52,-1
EndSplineSet
Validated: 1
EndChar

StartChar: dieresis
Encoding: 168 168 137
Width: 900
GlyphClass: 2
Flags: W
LayerCount: 2
Fore
SplineSet
500 1100 m 1,0,-1
 700 1100 l 1,1,-1
 700 1000 l 1,2,-1
 500 1000 l 1,3,-1
 500 1100 l 1,0,-1
0 1000 m 1,4,-1
 0 1100 l 1,5,-1
 200 1100 l 1,6,-1
 200 1000 l 1,7,-1
 0 1000 l 1,4,-1
EndSplineSet
Validated: 1
EndChar

StartChar: copyright
Encoding: 169 169 138
Width: 900
GlyphClass: 2
Flags: W
LayerCount: 2
Fore
SplineSet
0 200 m 1,0,-1
 0 900 l 1,1,-1
 100 900 l 1,2,-1
 100 200 l 1,3,-1
 0 200 l 1,0,-1
100 200 m 1,4,-1
 600 200 l 1,5,-1
 600 100 l 1,6,-1
 100 100 l 1,7,-1
 100 200 l 1,4,-1
100 900 m 1,8,-1
 100 1000 l 1,9,-1
 600 1000 l 1,10,-1
 600 900 l 1,11,-1
 100 900 l 1,8,-1
200 400 m 1,12,-1
 200 700 l 1,13,-1
 300 700 l 1,14,-1
 300 400 l 1,15,-1
 200 400 l 1,12,-1
300 400 m 1,16,-1
 500 400 l 1,17,-1
 500 300 l 1,18,-1
 300 300 l 1,19,-1
 300 400 l 1,16,-1
300 700 m 1,20,-1
 300 800 l 1,21,-1
 500 800 l 1,22,-1
 500 700 l 1,23,-1
 300 700 l 1,20,-1
600 200 m 1,24,-1
 600 900 l 1,25,-1
 700 900 l 1,26,-1
 700 200 l 1,27,-1
 600 200 l 1,24,-1
EndSplineSet
Validated: 5
EndChar

StartChar: ordfeminine
Encoding: 170 170 139
Width: 900
GlyphClass: 2
Flags: W
LayerCount: 2
Fore
SplineSet
100 500 m 1,0,-1
 100 600 l 1,1,-1
 700 600 l 1,2,-1
 700 500 l 1,3,-1
 100 500 l 1,0,-1
100 1000 m 1,4,-1
 200 1000 l 1,5,-1
 200 1100 l 1,6,-1
 600 1100 l 1,7,-1
 600 800 l 1,8,-1
 700 800 l 1,9,-1
 700 700 l 1,10,-1
 200 700 l 1,11,-1
 200 800 l 1,12,-1
 100 800 l 1,13,-1
 100 1000 l 1,4,-1
300 800 m 1,14,-1
 400 800 l 1,15,-1
 400 1000 l 1,16,-1
 300 1000 l 1,17,-1
 300 800 l 1,14,-1
EndSplineSet
Validated: 1
EndChar

StartChar: guillemotleft
Encoding: 171 171 140
Width: 900
GlyphClass: 2
Flags: W
LayerCount: 2
Fore
SplineSet
0 400 m 1,0,-1
 0 500 l 1,1,-1
 100 500 l 1,2,-1
 100 600 l 1,3,-1
 200 600 l 1,4,-1
 200 700 l 1,5,-1
 400 700 l 1,6,-1
 400 600 l 1,7,-1
 300 600 l 1,8,-1
 300 500 l 1,9,-1
 200 500 l 1,10,-1
 200 400 l 1,11,-1
 300 400 l 1,12,-1
 300 300 l 1,13,-1
 400 300 l 1,14,-1
 400 200 l 1,15,-1
 200 200 l 1,16,-1
 200 300 l 1,17,-1
 100 300 l 1,18,-1
 100 400 l 1,19,-1
 0 400 l 1,0,-1
400 500 m 1,20,-1
 400 600 l 1,21,-1
 500 600 l 1,22,-1
 500 700 l 1,23,-1
 700 700 l 1,24,-1
 700 600 l 1,25,-1
 600 600 l 1,26,-1
 600 500 l 1,27,-1
 500 500 l 1,28,-1
 500 400 l 1,29,-1
 600 400 l 1,30,-1
 600 300 l 1,31,-1
 700 300 l 1,32,-1
 700 200 l 1,33,-1
 500 200 l 1,34,-1
 500 300 l 1,35,-1
 400 300 l 1,36,-1
 400 400 l 1,37,-1
 300 400 l 1,38,-1
 300 500 l 1,39,-1
 400 500 l 1,20,-1
EndSplineSet
Validated: 5
EndChar

StartChar: logicalnot
Encoding: 172 172 141
Width: 900
GlyphClass: 2
Flags: W
LayerCount: 2
Fore
SplineSet
0 500 m 1,0,-1
 0 600 l 1,1,-1
 700 600 l 1,2,-1
 700 100 l 1,3,-1
 500 100 l 1,4,-1
 500 500 l 1,5,-1
 0 500 l 1,0,-1
EndSplineSet
Validated: 1
EndChar

StartChar: uni00AD
Encoding: 173 173 142
Width: 900
GlyphClass: 2
Flags: W
LayerCount: 2
Fore
SplineSet
0 400 m 1,0,-1
 0 500 l 1,1,-1
 700 500 l 1,2,-1
 700 400 l 1,3,-1
 0 400 l 1,0,-1
EndSplineSet
Validated: 1
EndChar

StartChar: registered
Encoding: 174 174 143
Width: 900
GlyphClass: 2
Flags: W
LayerCount: 2
Fore
SplineSet
0 200 m 1,0,-1
 0 900 l 1,1,-1
 100 900 l 1,2,-1
 100 200 l 1,3,-1
 0 200 l 1,0,-1
200 300 m 1,4,-1
 200 800 l 1,5,-1
 400 800 l 1,6,-1
 400 700 l 1,7,-1
 300 700 l 1,8,-1
 300 600 l 1,9,-1
 400 600 l 1,10,-1
 400 500 l 1,11,-1
 300 500 l 1,12,-1
 300 300 l 1,13,-1
 200 300 l 1,4,-1
400 500 m 1,14,-1
 500 500 l 1,15,-1
 500 300 l 1,16,-1
 400 300 l 1,17,-1
 400 500 l 1,14,-1
400 700 m 1,18,-1
 500 700 l 1,19,-1
 500 600 l 1,20,-1
 400 600 l 1,21,-1
 400 700 l 1,18,-1
600 200 m 1,22,-1
 600 100 l 1,23,-1
 100 100 l 1,24,-1
 100 200 l 1,25,-1
 600 200 l 1,22,-1
600 1000 m 1,26,-1
 600 900 l 1,27,-1
 100 900 l 1,28,-1
 100 1000 l 1,29,-1
 600 1000 l 1,26,-1
600 900 m 1,30,-1
 700 900 l 1,31,-1
 700 200 l 1,32,-1
 600 200 l 1,33,-1
 600 900 l 1,30,-1
EndSplineSet
Validated: 5
EndChar

StartChar: macron
Encoding: 175 175 144
Width: 900
GlyphClass: 2
Flags: W
LayerCount: 2
Fore
SplineSet
0 1000 m 1,0,-1
 0 1100 l 1,1,-1
 800 1100 l 1,2,-1
 800 1000 l 1,3,-1
 0 1000 l 1,0,-1
EndSplineSet
Validated: 1
EndChar

StartChar: degree
Encoding: 176 176 145
Width: 900
GlyphClass: 2
Flags: W
LayerCount: 2
Fore
SplineSet
100 1000 m 1,0,-1
 200 1000 l 1,1,-1
 200 1100 l 1,2,-1
 500 1100 l 1,3,-1
 500 1000 l 1,4,-1
 600 1000 l 1,5,-1
 600 800 l 1,6,-1
 500 800 l 1,7,-1
 500 700 l 1,8,-1
 200 700 l 1,9,-1
 200 800 l 1,10,-1
 100 800 l 1,11,-1
 100 1000 l 1,0,-1
300 800 m 1,12,-1
 400 800 l 1,13,-1
 400 1000 l 1,14,-1
 300 1000 l 1,15,-1
 300 800 l 1,12,-1
EndSplineSet
Validated: 1
EndChar

StartChar: plusminus
Encoding: 177 177 146
Width: 900
GlyphClass: 2
Flags: W
LayerCount: 2
Fore
SplineSet
0 0 m 1,0,-1
 0 100 l 1,1,-1
 800 100 l 1,2,-1
 800 0 l 1,3,-1
 0 0 l 1,0,-1
100 500 m 1,4,-1
 100 600 l 1,5,-1
 300 600 l 1,6,-1
 300 800 l 1,7,-1
 500 800 l 1,8,-1
 500 600 l 1,9,-1
 700 600 l 1,10,-1
 700 500 l 1,11,-1
 500 500 l 1,12,-1
 500 300 l 1,13,-1
 300 300 l 1,14,-1
 300 500 l 1,15,-1
 100 500 l 1,4,-1
EndSplineSet
Validated: 1
EndChar

StartChar: uni00B2
Encoding: 178 178 147
Width: 900
GlyphClass: 2
Flags: W
LayerCount: 2
Fore
SplineSet
0 500 m 1,0,-1
 0 700 l 1,1,-1
 100 700 l 1,2,-1
 100 800 l 1,3,-1
 200 800 l 1,4,-1
 200 900 l 1,5,-1
 300 900 l 1,6,-1
 300 1000 l 1,7,-1
 200 1000 l 1,8,-1
 200 900 l 1,9,-1
 0 900 l 1,10,-1
 0 1000 l 1,11,-1
 100 1000 l 1,12,-1
 100 1100 l 1,13,-1
 400 1100 l 1,14,-1
 400 1000 l 1,15,-1
 500 1000 l 1,16,-1
 500 900 l 1,17,-1
 400 900 l 1,18,-1
 400 800 l 1,19,-1
 300 800 l 1,20,-1
 300 700 l 1,21,-1
 200 700 l 1,22,-1
 200 600 l 1,23,-1
 400 600 l 1,24,-1
 400 700 l 1,25,-1
 500 700 l 1,26,-1
 500 500 l 1,27,-1
 0 500 l 1,0,-1
EndSplineSet
Validated: 5
EndChar

StartChar: uni00B3
Encoding: 179 179 148
Width: 900
GlyphClass: 2
Flags: W
LayerCount: 2
Fore
SplineSet
0 500 m 1,0,-1
 0 600 l 1,1,-1
 300 600 l 1,2,-1
 300 800 l 1,3,-1
 100 800 l 1,4,-1
 100 900 l 1,5,-1
 300 900 l 1,6,-1
 300 1000 l 1,7,-1
 0 1000 l 1,8,-1
 0 1100 l 1,9,-1
 400 1100 l 1,10,-1
 400 1000 l 1,11,-1
 500 1000 l 1,12,-1
 500 900 l 1,13,-1
 400 900 l 1,14,-1
 400 800 l 1,15,-1
 500 800 l 1,16,-1
 500 600 l 1,17,-1
 400 600 l 1,18,-1
 400 500 l 1,19,-1
 0 500 l 1,0,-1
EndSplineSet
Validated: 1
EndChar

StartChar: acute
Encoding: 180 180 149
Width: 900
GlyphClass: 2
Flags: W
LayerCount: 2
Fore
SplineSet
400 1000 m 1,0,-1
 400 1100 l 1,1,-1
 600 1100 l 1,2,-1
 600 1000 l 1,3,-1
 500 1000 l 1,4,-1
 500 900 l 1,5,-1
 400 900 l 1,6,-1
 400 800 l 1,7,-1
 200 800 l 1,8,-1
 200 900 l 1,9,-1
 300 900 l 1,10,-1
 300 1000 l 1,11,-1
 400 1000 l 1,0,-1
EndSplineSet
Validated: 1
EndChar

StartChar: mu
Encoding: 181 181 150
Width: 900
GlyphClass: 2
Flags: W
LayerCount: 2
Fore
SplineSet
0 -100 m 1,0,-1
 0 0 l 1,1,-1
 100 0 l 1,2,-1
 100 800 l 1,3,-1
 300 800 l 1,4,-1
 300 300 l 1,5,-1
 500 300 l 1,6,-1
 500 800 l 1,7,-1
 700 800 l 1,8,-1
 700 300 l 1,9,-1
 600 300 l 1,10,-1
 600 200 l 1,11,-1
 300 200 l 1,12,-1
 300 0 l 1,13,-1
 200 0 l 1,14,-1
 200 -100 l 1,15,-1
 0 -100 l 1,0,-1
EndSplineSet
Validated: 1
EndChar

StartChar: paragraph
Encoding: 182 182 151
Width: 900
GlyphClass: 2
Flags: W
LayerCount: 2
Fore
SplineSet
800 0 m 1,0,-1
 600 0 l 1,1,-1
 600 900 l 1,2,-1
 500 900 l 1,3,-1
 500 0 l 1,4,-1
 300 0 l 1,5,-1
 300 500 l 1,6,-1
 100 500 l 1,7,-1
 100 600 l 1,8,-1
 0 600 l 1,9,-1
 0 900 l 1,10,-1
 100 900 l 1,11,-1
 100 1000 l 1,12,-1
 800 1000 l 1,13,-1
 800 0 l 1,0,-1
200 600 m 1,14,-1
 300 600 l 1,15,-1
 300 900 l 1,16,-1
 200 900 l 1,17,-1
 200 600 l 1,14,-1
EndSplineSet
Validated: 1
EndChar

StartChar: periodcentered
Encoding: 183 183 152
Width: 900
GlyphClass: 2
Flags: W
LayerCount: 2
Fore
SplineSet
500 400 m 1,0,-1
 500 300 l 1,1,-1
 300 300 l 1,2,-1
 300 400 l 1,3,-1
 500 400 l 1,0,-1
EndSplineSet
Validated: 1
EndChar

StartChar: cedilla
Encoding: 184 184 153
Width: 900
GlyphClass: 2
Flags: W
LayerCount: 2
Fore
SplineSet
400 0 m 1,0,-1
 300 0 l 1,1,-1
 300 100 l 1,2,-1
 500 100 l 1,3,-1
 500 0 l 1,4,-1
 600 0 l 1,5,-1
 600 -100 l 1,6,-1
 500 -100 l 1,7,-1
 500 -200 l 1,8,-1
 100 -200 l 1,9,-1
 100 -100 l 1,10,-1
 400 -100 l 1,11,-1
 400 0 l 1,0,-1
EndSplineSet
Validated: 1
EndChar

StartChar: uni00B9
Encoding: 185 185 154
Width: 900
GlyphClass: 2
Flags: W
LayerCount: 2
Fore
SplineSet
400 600 m 1,0,-1
 500 600 l 1,1,-1
 500 500 l 1,2,-1
 100 500 l 1,3,-1
 100 600 l 1,4,-1
 200 600 l 1,5,-1
 200 900 l 1,6,-1
 100 900 l 1,7,-1
 100 1000 l 1,8,-1
 200 1000 l 1,9,-1
 200 1100 l 1,10,-1
 400 1100 l 1,11,-1
 400 600 l 1,0,-1
EndSplineSet
Validated: 1
EndChar

StartChar: ordmasculine
Encoding: 186 186 155
Width: 900
GlyphClass: 2
Flags: W
LayerCount: 2
Fore
SplineSet
100 500 m 1,0,-1
 100 600 l 1,1,-1
 600 600 l 1,2,-1
 600 500 l 1,3,-1
 100 500 l 1,0,-1
100 1000 m 1,4,-1
 200 1000 l 1,5,-1
 200 1100 l 1,6,-1
 500 1100 l 1,7,-1
 500 1000 l 1,8,-1
 600 1000 l 1,9,-1
 600 800 l 1,10,-1
 500 800 l 1,11,-1
 500 700 l 1,12,-1
 200 700 l 1,13,-1
 200 800 l 1,14,-1
 100 800 l 1,15,-1
 100 1000 l 1,4,-1
300 800 m 1,16,-1
 400 800 l 1,17,-1
 400 1000 l 1,18,-1
 300 1000 l 1,19,-1
 300 800 l 1,16,-1
EndSplineSet
Validated: 1
EndChar

StartChar: guillemotright
Encoding: 187 187 156
Width: 900
GlyphClass: 2
Flags: W
LayerCount: 2
Fore
SplineSet
0 200 m 1,0,-1
 0 300 l 1,1,-1
 100 300 l 1,2,-1
 100 400 l 1,3,-1
 200 400 l 1,4,-1
 200 500 l 1,5,-1
 100 500 l 1,6,-1
 100 600 l 1,7,-1
 0 600 l 1,8,-1
 0 700 l 1,9,-1
 200 700 l 1,10,-1
 200 600 l 1,11,-1
 300 600 l 1,12,-1
 300 500 l 1,13,-1
 400 500 l 1,14,-1
 400 400 l 1,15,-1
 300 400 l 1,16,-1
 300 300 l 1,17,-1
 200 300 l 1,18,-1
 200 200 l 1,19,-1
 0 200 l 1,0,-1
400 500 m 1,20,-1
 400 600 l 1,21,-1
 300 600 l 1,22,-1
 300 700 l 1,23,-1
 500 700 l 1,24,-1
 500 600 l 1,25,-1
 600 600 l 1,26,-1
 600 500 l 1,27,-1
 700 500 l 1,28,-1
 700 400 l 1,29,-1
 600 400 l 1,30,-1
 600 300 l 1,31,-1
 500 300 l 1,32,-1
 500 200 l 1,33,-1
 300 200 l 1,34,-1
 300 300 l 1,35,-1
 400 300 l 1,36,-1
 400 400 l 1,37,-1
 500 400 l 1,38,-1
 500 500 l 1,39,-1
 400 500 l 1,20,-1
EndSplineSet
Validated: 5
EndChar

StartChar: onequarter
Encoding: 188 188 157
Width: 900
GlyphClass: 2
Flags: W
LayerCount: 2
Fore
SplineSet
0 100 m 1,0,-1
 0 300 l 1,1,-1
 100 300 l 1,2,-1
 100 400 l 1,3,-1
 200 400 l 1,4,-1
 200 500 l 1,5,-1
 300 500 l 1,6,-1
 300 600 l 1,7,-1
 400 600 l 1,8,-1
 400 700 l 1,9,-1
 500 700 l 1,10,-1
 500 800 l 1,11,-1
 600 800 l 1,12,-1
 600 900 l 1,13,-1
 700 900 l 1,14,-1
 700 700 l 1,15,-1
 600 700 l 1,16,-1
 600 600 l 1,17,-1
 500 600 l 1,18,-1
 500 500 l 1,19,-1
 400 500 l 1,20,-1
 400 400 l 1,21,-1
 300 400 l 1,22,-1
 300 300 l 1,23,-1
 200 300 l 1,24,-1
 200 200 l 1,25,-1
 100 200 l 1,26,-1
 100 100 l 1,27,-1
 0 100 l 1,0,-1
0 600 m 1,28,-1
 0 1100 l 1,29,-1
 200 1100 l 1,30,-1
 200 600 l 1,31,-1
 0 600 l 1,28,-1
200 0 m 1,32,-1
 200 100 l 1,33,-1
 300 100 l 1,34,-1
 300 200 l 1,35,-1
 400 200 l 1,36,-1
 400 100 l 1,37,-1
 500 100 l 1,38,-1
 500 200 l 1,39,-1
 400 200 l 1,40,-1
 400 300 l 1,41,-1
 500 300 l 1,42,-1
 500 400 l 1,43,-1
 700 400 l 1,44,-1
 700 -200 l 1,45,-1
 500 -200 l 1,46,-1
 500 0 l 1,47,-1
 200 0 l 1,32,-1
EndSplineSet
Validated: 5
EndChar

StartChar: onehalf
Encoding: 189 189 158
Width: 900
GlyphClass: 2
Flags: W
LayerCount: 2
Fore
SplineSet
0 100 m 1,0,-1
 0 300 l 1,1,-1
 100 300 l 1,2,-1
 100 400 l 1,3,-1
 200 400 l 1,4,-1
 200 500 l 1,5,-1
 300 500 l 1,6,-1
 300 600 l 1,7,-1
 400 600 l 1,8,-1
 400 700 l 1,9,-1
 500 700 l 1,10,-1
 500 800 l 1,11,-1
 600 800 l 1,12,-1
 600 900 l 1,13,-1
 700 900 l 1,14,-1
 700 700 l 1,15,-1
 600 700 l 1,16,-1
 600 600 l 1,17,-1
 500 600 l 1,18,-1
 500 500 l 1,19,-1
 400 500 l 1,20,-1
 400 400 l 1,21,-1
 300 400 l 1,22,-1
 300 300 l 1,23,-1
 200 300 l 1,24,-1
 200 200 l 1,25,-1
 100 200 l 1,26,-1
 100 100 l 1,27,-1
 0 100 l 1,0,-1
0 600 m 1,28,-1
 0 1100 l 1,29,-1
 200 1100 l 1,30,-1
 200 600 l 1,31,-1
 0 600 l 1,28,-1
400 200 m 1,32,-1
 400 300 l 1,33,-1
 700 300 l 1,34,-1
 700 200 l 1,35,-1
 800 200 l 1,36,-1
 800 100 l 1,37,-1
 700 100 l 1,38,-1
 700 0 l 1,39,-1
 600 0 l 1,40,-1
 600 -100 l 1,41,-1
 800 -100 l 1,42,-1
 800 -200 l 1,43,-1
 300 -200 l 1,44,-1
 300 -100 l 1,45,-1
 400 -100 l 1,46,-1
 400 0 l 1,47,-1
 500 0 l 1,48,-1
 500 100 l 1,49,-1
 600 100 l 1,50,-1
 600 200 l 1,51,-1
 500 200 l 1,52,-1
 500 100 l 1,53,-1
 300 100 l 1,54,-1
 300 200 l 1,55,-1
 400 200 l 1,32,-1
EndSplineSet
Validated: 5
EndChar

StartChar: threequarters
Encoding: 190 190 159
Width: 900
GlyphClass: 2
Flags: W
LayerCount: 2
Fore
SplineSet
0 100 m 1,0,-1
 0 300 l 1,1,-1
 100 300 l 1,2,-1
 100 400 l 1,3,-1
 200 400 l 1,4,-1
 200 500 l 1,5,-1
 300 500 l 1,6,-1
 300 600 l 1,7,-1
 400 600 l 1,8,-1
 400 700 l 1,9,-1
 500 700 l 1,10,-1
 500 800 l 1,11,-1
 600 800 l 1,12,-1
 600 900 l 1,13,-1
 700 900 l 1,14,-1
 700 700 l 1,15,-1
 600 700 l 1,16,-1
 600 600 l 1,17,-1
 500 600 l 1,18,-1
 500 500 l 1,19,-1
 400 500 l 1,20,-1
 400 400 l 1,21,-1
 300 400 l 1,22,-1
 300 300 l 1,23,-1
 200 300 l 1,24,-1
 200 200 l 1,25,-1
 100 200 l 1,26,-1
 100 100 l 1,27,-1
 0 100 l 1,0,-1
0 600 m 1,28,-1
 0 700 l 1,29,-1
 200 700 l 1,30,-1
 200 800 l 1,31,-1
 100 800 l 1,32,-1
 100 900 l 1,33,-1
 200 900 l 1,34,-1
 200 1000 l 1,35,-1
 0 1000 l 1,36,-1
 0 1100 l 1,37,-1
 300 1100 l 1,38,-1
 300 1000 l 1,39,-1
 400 1000 l 1,40,-1
 400 900 l 1,41,-1
 300 900 l 1,42,-1
 300 800 l 1,43,-1
 400 800 l 1,44,-1
 400 700 l 1,45,-1
 300 700 l 1,46,-1
 300 600 l 1,47,-1
 0 600 l 1,28,-1
400 200 m 1,48,-1
 400 100 l 1,49,-1
 500 100 l 1,50,-1
 500 200 l 1,51,-1
 400 200 l 1,48,-1
400 300 m 1,52,-1
 500 300 l 1,53,-1
 500 400 l 1,54,-1
 700 400 l 1,55,-1
 700 -200 l 1,56,-1
 500 -200 l 1,57,-1
 500 0 l 1,58,-1
 200 0 l 1,59,-1
 200 100 l 1,60,-1
 300 100 l 1,61,-1
 300 200 l 1,62,-1
 400 200 l 1,63,-1
 400 300 l 1,52,-1
EndSplineSet
Validated: 5
EndChar

StartChar: questiondown
Encoding: 191 191 160
Width: 900
GlyphClass: 2
Flags: W
LayerCount: 2
Fore
SplineSet
0 100 m 1,0,-1
 0 400 l 1,1,-1
 100 400 l 1,2,-1
 100 500 l 1,3,-1
 200 500 l 1,4,-1
 200 700 l 1,5,-1
 400 700 l 1,6,-1
 400 500 l 1,7,-1
 300 500 l 1,8,-1
 300 400 l 1,9,-1
 200 400 l 1,10,-1
 200 100 l 1,11,-1
 500 100 l 1,12,-1
 500 300 l 1,13,-1
 700 300 l 1,14,-1
 700 100 l 1,15,-1
 600 100 l 1,16,-1
 600 0 l 1,17,-1
 100 0 l 1,18,-1
 100 100 l 1,19,-1
 0 100 l 1,0,-1
200 1000 m 1,20,-1
 400 1000 l 1,21,-1
 400 800 l 1,22,-1
 200 800 l 1,23,-1
 200 1000 l 1,20,-1
EndSplineSet
Validated: 1
EndChar

StartChar: Agrave
Encoding: 192 192 161
Width: 900
GlyphClass: 2
Flags: W
LayerCount: 2
Fore
SplineSet
0 0 m 1,0,-1
 0 700 l 1,1,-1
 100 700 l 1,2,-1
 100 800 l 1,3,-1
 200 800 l 1,4,-1
 200 900 l 1,5,-1
 300 900 l 1,6,-1
 300 1000 l 1,7,-1
 400 1000 l 1,8,-1
 400 900 l 1,9,-1
 500 900 l 1,10,-1
 500 800 l 1,11,-1
 600 800 l 1,12,-1
 600 700 l 1,13,-1
 700 700 l 1,14,-1
 700 0 l 1,15,-1
 500 0 l 1,16,-1
 500 400 l 1,17,-1
 200 400 l 1,18,-1
 200 0 l 1,19,-1
 0 0 l 1,0,-1
200 500 m 1,20,-1
 500 500 l 1,21,-1
 500 700 l 1,22,-1
 400 700 l 1,23,-1
 400 800 l 1,24,-1
 300 800 l 1,25,-1
 300 700 l 1,26,-1
 200 700 l 1,27,-1
 200 500 l 1,20,-1
400 1100 m 1,28,-1
 400 1200 l 1,29,-1
 600 1200 l 1,30,-1
 600 1100 l 1,31,-1
 700 1100 l 1,32,-1
 700 1000 l 1,33,-1
 500 1000 l 1,34,-1
 500 1100 l 1,35,-1
 400 1100 l 1,28,-1
EndSplineSet
Validated: 1
EndChar

StartChar: Aacute
Encoding: 193 193 162
Width: 900
GlyphClass: 2
Flags: W
LayerCount: 2
Fore
SplineSet
0 0 m 1,0,-1
 0 700 l 1,1,-1
 100 700 l 1,2,-1
 100 800 l 1,3,-1
 200 800 l 1,4,-1
 200 900 l 1,5,-1
 300 900 l 1,6,-1
 300 1000 l 1,7,-1
 400 1000 l 1,8,-1
 400 900 l 1,9,-1
 500 900 l 1,10,-1
 500 800 l 1,11,-1
 600 800 l 1,12,-1
 600 700 l 1,13,-1
 700 700 l 1,14,-1
 700 0 l 1,15,-1
 500 0 l 1,16,-1
 500 400 l 1,17,-1
 200 400 l 1,18,-1
 200 0 l 1,19,-1
 0 0 l 1,0,-1
0 1000 m 1,20,-1
 0 1100 l 1,21,-1
 100 1100 l 1,22,-1
 100 1200 l 1,23,-1
 300 1200 l 1,24,-1
 300 1100 l 1,25,-1
 200 1100 l 1,26,-1
 200 1000 l 1,27,-1
 0 1000 l 1,20,-1
200 500 m 1,28,-1
 500 500 l 1,29,-1
 500 700 l 1,30,-1
 400 700 l 1,31,-1
 400 800 l 1,32,-1
 300 800 l 1,33,-1
 300 700 l 1,34,-1
 200 700 l 1,35,-1
 200 500 l 1,28,-1
EndSplineSet
Validated: 1
EndChar

StartChar: Acircumflex
Encoding: 194 194 163
Width: 900
GlyphClass: 2
Flags: W
LayerCount: 2
Fore
SplineSet
0 0 m 1,0,-1
 0 700 l 1,1,-1
 100 700 l 1,2,-1
 100 800 l 1,3,-1
 200 800 l 1,4,-1
 200 900 l 1,5,-1
 300 900 l 1,6,-1
 300 1000 l 1,7,-1
 400 1000 l 1,8,-1
 400 900 l 1,9,-1
 500 900 l 1,10,-1
 500 800 l 1,11,-1
 600 800 l 1,12,-1
 600 700 l 1,13,-1
 700 700 l 1,14,-1
 700 0 l 1,15,-1
 500 0 l 1,16,-1
 500 400 l 1,17,-1
 200 400 l 1,18,-1
 200 0 l 1,19,-1
 0 0 l 1,0,-1
0 1000 m 1,20,-1
 0 1100 l 1,21,-1
 100 1100 l 1,22,-1
 100 1200 l 1,23,-1
 600 1200 l 1,24,-1
 600 1100 l 1,25,-1
 700 1100 l 1,26,-1
 700 1000 l 1,27,-1
 500 1000 l 1,28,-1
 500 1100 l 1,29,-1
 200 1100 l 1,30,-1
 200 1000 l 1,31,-1
 0 1000 l 1,20,-1
200 500 m 1,32,-1
 500 500 l 1,33,-1
 500 700 l 1,34,-1
 400 700 l 1,35,-1
 400 800 l 1,36,-1
 300 800 l 1,37,-1
 300 700 l 1,38,-1
 200 700 l 1,39,-1
 200 500 l 1,32,-1
EndSplineSet
Validated: 1
EndChar

StartChar: Atilde
Encoding: 195 195 164
Width: 900
GlyphClass: 2
Flags: W
LayerCount: 2
Fore
SplineSet
0 0 m 1,0,-1
 0 600 l 1,1,-1
 100 600 l 1,2,-1
 100 700 l 1,3,-1
 200 700 l 1,4,-1
 200 800 l 1,5,-1
 300 800 l 1,6,-1
 300 900 l 1,7,-1
 400 900 l 1,8,-1
 400 800 l 1,9,-1
 500 800 l 1,10,-1
 500 700 l 1,11,-1
 600 700 l 1,12,-1
 600 600 l 1,13,-1
 700 600 l 1,14,-1
 700 0 l 1,15,-1
 500 0 l 1,16,-1
 500 300 l 1,17,-1
 200 300 l 1,18,-1
 200 0 l 1,19,-1
 0 0 l 1,0,-1
0 1000 m 1,20,-1
 0 1100 l 1,21,-1
 100 1100 l 1,22,-1
 100 1200 l 1,23,-1
 400 1200 l 1,24,-1
 400 1100 l 1,25,-1
 500 1100 l 1,26,-1
 500 1200 l 1,27,-1
 700 1200 l 1,28,-1
 700 1100 l 1,29,-1
 600 1100 l 1,30,-1
 600 1000 l 1,31,-1
 300 1000 l 1,32,-1
 300 1100 l 1,33,-1
 200 1100 l 1,34,-1
 200 1000 l 1,35,-1
 0 1000 l 1,20,-1
200 400 m 1,36,-1
 500 400 l 1,37,-1
 500 600 l 1,38,-1
 400 600 l 1,39,-1
 400 700 l 1,40,-1
 300 700 l 1,41,-1
 300 600 l 1,42,-1
 200 600 l 1,43,-1
 200 400 l 1,36,-1
EndSplineSet
Validated: 1
EndChar

StartChar: Adieresis
Encoding: 196 196 165
Width: 900
GlyphClass: 2
Flags: W
LayerCount: 2
Fore
SplineSet
0 0 m 1,0,-1
 0 600 l 1,1,-1
 100 600 l 1,2,-1
 100 700 l 1,3,-1
 200 700 l 1,4,-1
 200 800 l 1,5,-1
 300 800 l 1,6,-1
 300 900 l 1,7,-1
 400 900 l 1,8,-1
 400 800 l 1,9,-1
 500 800 l 1,10,-1
 500 700 l 1,11,-1
 600 700 l 1,12,-1
 600 600 l 1,13,-1
 700 600 l 1,14,-1
 700 0 l 1,15,-1
 500 0 l 1,16,-1
 500 300 l 1,17,-1
 200 300 l 1,18,-1
 200 0 l 1,19,-1
 0 0 l 1,0,-1
0 1000 m 1,20,-1
 0 1100 l 1,21,-1
 200 1100 l 1,22,-1
 200 1000 l 1,23,-1
 0 1000 l 1,20,-1
200 400 m 1,24,-1
 500 400 l 1,25,-1
 500 600 l 1,26,-1
 400 600 l 1,27,-1
 400 700 l 1,28,-1
 300 700 l 1,29,-1
 300 600 l 1,30,-1
 200 600 l 1,31,-1
 200 400 l 1,24,-1
500 1100 m 1,32,-1
 700 1100 l 1,33,-1
 700 1000 l 1,34,-1
 500 1000 l 1,35,-1
 500 1100 l 1,32,-1
EndSplineSet
Validated: 1
EndChar

StartChar: Aring
Encoding: 197 197 166
Width: 900
GlyphClass: 2
Flags: W
LayerCount: 2
Fore
SplineSet
0 0 m 1,0,-1
 0 600 l 1,1,-1
 100 600 l 1,2,-1
 100 700 l 1,3,-1
 200 700 l 1,4,-1
 200 800 l 1,5,-1
 500 800 l 1,6,-1
 500 700 l 1,7,-1
 600 700 l 1,8,-1
 600 600 l 1,9,-1
 700 600 l 1,10,-1
 700 0 l 1,11,-1
 500 0 l 1,12,-1
 500 300 l 1,13,-1
 200 300 l 1,14,-1
 200 0 l 1,15,-1
 0 0 l 1,0,-1
200 400 m 1,16,-1
 500 400 l 1,17,-1
 500 600 l 1,18,-1
 400 600 l 1,19,-1
 400 700 l 1,20,-1
 300 700 l 1,21,-1
 300 600 l 1,22,-1
 200 600 l 1,23,-1
 200 400 l 1,16,-1
200 1000 m 1,24,-1
 100 1000 l 1,25,-1
 100 1100 l 1,26,-1
 200 1100 l 1,27,-1
 200 1200 l 1,28,-1
 500 1200 l 1,29,-1
 500 1100 l 1,30,-1
 600 1100 l 1,31,-1
 600 1000 l 1,32,-1
 500 1000 l 1,33,-1
 500 900 l 1,34,-1
 200 900 l 1,35,-1
 200 1000 l 1,24,-1
400 1000 m 1,36,-1
 400 1100 l 1,37,-1
 300 1100 l 1,38,-1
 300 1000 l 1,39,-1
 400 1000 l 1,36,-1
EndSplineSet
Validated: 1
EndChar

StartChar: AE
Encoding: 198 198 167
Width: 900
GlyphClass: 2
Flags: W
LayerCount: 2
Fore
SplineSet
0 0 m 1,0,-1
 0 800 l 1,1,-1
 100 800 l 1,2,-1
 100 900 l 1,3,-1
 200 900 l 1,4,-1
 200 1000 l 1,5,-1
 700 1000 l 1,6,-1
 700 900 l 1,7,-1
 600 900 l 1,8,-1
 600 600 l 1,9,-1
 700 600 l 1,10,-1
 700 500 l 1,11,-1
 600 500 l 1,12,-1
 600 100 l 1,13,-1
 700 100 l 1,14,-1
 700 0 l 1,15,-1
 400 0 l 1,16,-1
 400 500 l 1,17,-1
 200 500 l 1,18,-1
 200 0 l 1,19,-1
 0 0 l 1,0,-1
200 600 m 1,20,-1
 400 600 l 1,21,-1
 400 900 l 1,22,-1
 300 900 l 1,23,-1
 300 800 l 1,24,-1
 200 800 l 1,25,-1
 200 600 l 1,20,-1
EndSplineSet
Validated: 1
EndChar

StartChar: Ccedilla
Encoding: 199 199 168
Width: 900
GlyphClass: 2
Flags: W
LayerCount: 2
Fore
SplineSet
0 300 m 1,0,-1
 0 800 l 1,1,-1
 100 800 l 1,2,-1
 100 900 l 1,3,-1
 200 900 l 1,4,-1
 200 1000 l 1,5,-1
 600 1000 l 1,6,-1
 600 900 l 1,7,-1
 700 900 l 1,8,-1
 700 700 l 1,9,-1
 600 700 l 1,10,-1
 600 800 l 1,11,-1
 500 800 l 1,12,-1
 500 900 l 1,13,-1
 300 900 l 1,14,-1
 300 800 l 1,15,-1
 200 800 l 1,16,-1
 200 300 l 1,17,-1
 300 300 l 1,18,-1
 300 200 l 1,19,-1
 500 200 l 1,20,-1
 500 300 l 1,21,-1
 600 300 l 1,22,-1
 600 400 l 1,23,-1
 700 400 l 1,24,-1
 700 200 l 1,25,-1
 600 200 l 1,26,-1
 600 0 l 1,27,-1
 700 0 l 1,28,-1
 700 -100 l 1,29,-1
 600 -100 l 1,30,-1
 600 -200 l 1,31,-1
 100 -200 l 1,32,-1
 100 -100 l 1,33,-1
 500 -100 l 1,34,-1
 500 0 l 1,35,-1
 400 0 l 1,36,-1
 400 100 l 1,37,-1
 200 100 l 1,38,-1
 200 200 l 1,39,-1
 100 200 l 1,40,-1
 100 300 l 1,41,-1
 0 300 l 1,0,-1
EndSplineSet
Validated: 1
EndChar

StartChar: Egrave
Encoding: 200 200 169
Width: 900
GlyphClass: 2
Flags: W
LayerCount: 2
Fore
SplineSet
0 0 m 1,0,-1
 0 100 l 1,1,-1
 100 100 l 1,2,-1
 100 800 l 1,3,-1
 0 800 l 1,4,-1
 0 900 l 1,5,-1
 700 900 l 1,6,-1
 700 600 l 1,7,-1
 600 600 l 1,8,-1
 600 700 l 1,9,-1
 500 700 l 1,10,-1
 500 800 l 1,11,-1
 300 800 l 1,12,-1
 300 500 l 1,13,-1
 400 500 l 1,14,-1
 400 600 l 1,15,-1
 500 600 l 1,16,-1
 500 300 l 1,17,-1
 400 300 l 1,18,-1
 400 400 l 1,19,-1
 300 400 l 1,20,-1
 300 100 l 1,21,-1
 500 100 l 1,22,-1
 500 200 l 1,23,-1
 600 200 l 1,24,-1
 600 300 l 1,25,-1
 700 300 l 1,26,-1
 700 0 l 1,27,-1
 0 0 l 1,0,-1
200 1100 m 1,28,-1
 200 1200 l 1,29,-1
 400 1200 l 1,30,-1
 400 1100 l 1,31,-1
 500 1100 l 1,32,-1
 500 1000 l 1,33,-1
 300 1000 l 1,34,-1
 300 1100 l 1,35,-1
 200 1100 l 1,28,-1
EndSplineSet
Validated: 1
EndChar

StartChar: Eacute
Encoding: 201 201 170
Width: 900
GlyphClass: 2
Flags: W
LayerCount: 2
Fore
SplineSet
0 0 m 1,0,-1
 0 100 l 1,1,-1
 100 100 l 1,2,-1
 100 700 l 1,3,-1
 0 700 l 1,4,-1
 0 800 l 1,5,-1
 700 800 l 1,6,-1
 700 600 l 1,7,-1
 500 600 l 1,8,-1
 500 700 l 1,9,-1
 300 700 l 1,10,-1
 300 500 l 1,11,-1
 600 500 l 1,12,-1
 600 400 l 1,13,-1
 300 400 l 1,14,-1
 300 100 l 1,15,-1
 500 100 l 1,16,-1
 500 200 l 1,17,-1
 700 200 l 1,18,-1
 700 0 l 1,19,-1
 0 0 l 1,0,-1
200 1000 m 1,20,-1
 200 1100 l 1,21,-1
 300 1100 l 1,22,-1
 300 1200 l 1,23,-1
 500 1200 l 1,24,-1
 500 1100 l 1,25,-1
 400 1100 l 1,26,-1
 400 1000 l 1,27,-1
 300 1000 l 1,28,-1
 300 900 l 1,29,-1
 100 900 l 1,30,-1
 100 1000 l 1,31,-1
 200 1000 l 1,20,-1
EndSplineSet
Validated: 1
EndChar

StartChar: Ecircumflex
Encoding: 202 202 171
Width: 900
GlyphClass: 2
Flags: W
LayerCount: 2
Fore
SplineSet
0 0 m 1,0,-1
 0 100 l 1,1,-1
 100 100 l 1,2,-1
 100 800 l 1,3,-1
 0 800 l 1,4,-1
 0 900 l 1,5,-1
 700 900 l 1,6,-1
 700 600 l 1,7,-1
 600 600 l 1,8,-1
 600 700 l 1,9,-1
 500 700 l 1,10,-1
 500 800 l 1,11,-1
 300 800 l 1,12,-1
 300 500 l 1,13,-1
 400 500 l 1,14,-1
 400 600 l 1,15,-1
 500 600 l 1,16,-1
 500 300 l 1,17,-1
 400 300 l 1,18,-1
 400 400 l 1,19,-1
 300 400 l 1,20,-1
 300 100 l 1,21,-1
 500 100 l 1,22,-1
 500 200 l 1,23,-1
 600 200 l 1,24,-1
 600 300 l 1,25,-1
 700 300 l 1,26,-1
 700 0 l 1,27,-1
 0 0 l 1,0,-1
200 1100 m 1,28,-1
 200 1200 l 1,29,-1
 500 1200 l 1,30,-1
 500 1100 l 1,31,-1
 600 1100 l 1,32,-1
 600 1000 l 1,33,-1
 400 1000 l 1,34,-1
 400 1100 l 1,35,-1
 300 1100 l 1,36,-1
 300 1000 l 1,37,-1
 100 1000 l 1,38,-1
 100 1100 l 1,39,-1
 200 1100 l 1,28,-1
EndSplineSet
Validated: 1
EndChar

StartChar: Edieresis
Encoding: 203 203 172
Width: 900
GlyphClass: 2
Flags: W
LayerCount: 2
Fore
SplineSet
0 0 m 1,0,-1
 0 100 l 1,1,-1
 100 100 l 1,2,-1
 100 800 l 1,3,-1
 0 800 l 1,4,-1
 0 900 l 1,5,-1
 700 900 l 1,6,-1
 700 600 l 1,7,-1
 600 600 l 1,8,-1
 600 700 l 1,9,-1
 500 700 l 1,10,-1
 500 800 l 1,11,-1
 300 800 l 1,12,-1
 300 500 l 1,13,-1
 400 500 l 1,14,-1
 400 600 l 1,15,-1
 500 600 l 1,16,-1
 500 300 l 1,17,-1
 400 300 l 1,18,-1
 400 400 l 1,19,-1
 300 400 l 1,20,-1
 300 100 l 1,21,-1
 500 100 l 1,22,-1
 500 200 l 1,23,-1
 600 200 l 1,24,-1
 600 300 l 1,25,-1
 700 300 l 1,26,-1
 700 0 l 1,27,-1
 0 0 l 1,0,-1
0 1000 m 1,28,-1
 0 1100 l 1,29,-1
 200 1100 l 1,30,-1
 200 1000 l 1,31,-1
 0 1000 l 1,28,-1
500 1100 m 1,32,-1
 700 1100 l 1,33,-1
 700 1000 l 1,34,-1
 500 1000 l 1,35,-1
 500 1100 l 1,32,-1
EndSplineSet
Validated: 1
EndChar

StartChar: Igrave
Encoding: 204 204 173
Width: 900
GlyphClass: 2
Flags: W
LayerCount: 2
Fore
SplineSet
200 0 m 1,0,-1
 200 100 l 1,1,-1
 300 100 l 1,2,-1
 300 800 l 1,3,-1
 200 800 l 1,4,-1
 200 900 l 1,5,-1
 600 900 l 1,6,-1
 600 800 l 1,7,-1
 500 800 l 1,8,-1
 500 100 l 1,9,-1
 600 100 l 1,10,-1
 600 0 l 1,11,-1
 200 0 l 1,0,-1
300 1100 m 1,12,-1
 200 1100 l 1,13,-1
 200 1200 l 1,14,-1
 400 1200 l 1,15,-1
 400 1100 l 1,16,-1
 500 1100 l 1,17,-1
 500 1000 l 1,18,-1
 300 1000 l 1,19,-1
 300 1100 l 1,12,-1
EndSplineSet
Validated: 1
EndChar

StartChar: Iacute
Encoding: 205 205 174
Width: 900
GlyphClass: 2
Flags: W
LayerCount: 2
Fore
SplineSet
200 0 m 1,0,-1
 200 100 l 1,1,-1
 300 100 l 1,2,-1
 300 800 l 1,3,-1
 200 800 l 1,4,-1
 200 900 l 1,5,-1
 600 900 l 1,6,-1
 600 800 l 1,7,-1
 500 800 l 1,8,-1
 500 100 l 1,9,-1
 600 100 l 1,10,-1
 600 0 l 1,11,-1
 200 0 l 1,0,-1
300 1100 m 1,12,-1
 400 1100 l 1,13,-1
 400 1200 l 1,14,-1
 600 1200 l 1,15,-1
 600 1100 l 1,16,-1
 500 1100 l 1,17,-1
 500 1000 l 1,18,-1
 300 1000 l 1,19,-1
 300 1100 l 1,12,-1
EndSplineSet
Validated: 1
EndChar

StartChar: Icircumflex
Encoding: 206 206 175
Width: 900
GlyphClass: 2
Flags: W
LayerCount: 2
Fore
SplineSet
100 1100 m 1,0,-1
 200 1100 l 1,1,-1
 200 1200 l 1,2,-1
 600 1200 l 1,3,-1
 600 1100 l 1,4,-1
 700 1100 l 1,5,-1
 700 1000 l 1,6,-1
 500 1000 l 1,7,-1
 500 1100 l 1,8,-1
 300 1100 l 1,9,-1
 300 1000 l 1,10,-1
 100 1000 l 1,11,-1
 100 1100 l 1,0,-1
200 0 m 1,12,-1
 200 100 l 1,13,-1
 300 100 l 1,14,-1
 300 800 l 1,15,-1
 200 800 l 1,16,-1
 200 900 l 1,17,-1
 600 900 l 1,18,-1
 600 800 l 1,19,-1
 500 800 l 1,20,-1
 500 100 l 1,21,-1
 600 100 l 1,22,-1
 600 0 l 1,23,-1
 200 0 l 1,12,-1
EndSplineSet
Validated: 1
EndChar

StartChar: Idieresis
Encoding: 207 207 176
Width: 900
GlyphClass: 2
Flags: W
LayerCount: 2
Fore
SplineSet
100 1100 m 1,0,-1
 300 1100 l 1,1,-1
 300 1000 l 1,2,-1
 100 1000 l 1,3,-1
 100 1100 l 1,0,-1
200 0 m 1,4,-1
 200 100 l 1,5,-1
 300 100 l 1,6,-1
 300 800 l 1,7,-1
 200 800 l 1,8,-1
 200 900 l 1,9,-1
 600 900 l 1,10,-1
 600 800 l 1,11,-1
 500 800 l 1,12,-1
 500 100 l 1,13,-1
 600 100 l 1,14,-1
 600 0 l 1,15,-1
 200 0 l 1,4,-1
500 1100 m 1,16,-1
 700 1100 l 1,17,-1
 700 1000 l 1,18,-1
 500 1000 l 1,19,-1
 500 1100 l 1,16,-1
EndSplineSet
Validated: 1
EndChar

StartChar: Eth
Encoding: 208 208 177
Width: 900
GlyphClass: 2
Flags: W
LayerCount: 2
Fore
SplineSet
0 0 m 1,0,-1
 0 100 l 1,1,-1
 100 100 l 1,2,-1
 100 500 l 1,3,-1
 0 500 l 1,4,-1
 0 600 l 1,5,-1
 100 600 l 1,6,-1
 100 900 l 1,7,-1
 0 900 l 1,8,-1
 0 1000 l 1,9,-1
 500 1000 l 1,10,-1
 500 900 l 1,11,-1
 600 900 l 1,12,-1
 600 800 l 1,13,-1
 700 800 l 1,14,-1
 700 200 l 1,15,-1
 600 200 l 1,16,-1
 600 100 l 1,17,-1
 500 100 l 1,18,-1
 500 0 l 1,19,-1
 0 0 l 1,0,-1
400 100 m 1,20,-1
 400 200 l 1,21,-1
 500 200 l 1,22,-1
 500 800 l 1,23,-1
 400 800 l 1,24,-1
 400 900 l 1,25,-1
 300 900 l 1,26,-1
 300 600 l 1,27,-1
 400 600 l 1,28,-1
 400 500 l 1,29,-1
 300 500 l 1,30,-1
 300 100 l 1,31,-1
 400 100 l 1,20,-1
EndSplineSet
Validated: 1
EndChar

StartChar: Ntilde
Encoding: 209 209 178
Width: 900
GlyphClass: 2
Flags: W
LayerCount: 2
Fore
SplineSet
0 0 m 1,0,-1
 0 900 l 1,1,-1
 200 900 l 1,2,-1
 200 800 l 1,3,-1
 300 800 l 1,4,-1
 300 700 l 1,5,-1
 400 700 l 1,6,-1
 400 600 l 1,7,-1
 500 600 l 1,8,-1
 500 900 l 1,9,-1
 700 900 l 1,10,-1
 700 0 l 1,11,-1
 500 0 l 1,12,-1
 500 300 l 1,13,-1
 400 300 l 1,14,-1
 400 400 l 1,15,-1
 300 400 l 1,16,-1
 300 500 l 1,17,-1
 200 500 l 1,18,-1
 200 0 l 1,19,-1
 0 0 l 1,0,-1
0 1000 m 1,20,-1
 0 1100 l 1,21,-1
 100 1100 l 1,22,-1
 100 1200 l 1,23,-1
 400 1200 l 1,24,-1
 400 1100 l 1,25,-1
 500 1100 l 1,26,-1
 500 1200 l 1,27,-1
 700 1200 l 1,28,-1
 700 1100 l 1,29,-1
 600 1100 l 1,30,-1
 600 1000 l 1,31,-1
 300 1000 l 1,32,-1
 300 1100 l 1,33,-1
 200 1100 l 1,34,-1
 200 1000 l 1,35,-1
 0 1000 l 1,20,-1
EndSplineSet
Validated: 1
EndChar

StartChar: Ograve
Encoding: 210 210 179
Width: 900
GlyphClass: 2
Flags: W
LayerCount: 2
Fore
SplineSet
0 100 m 1,0,-1
 0 800 l 1,1,-1
 100 800 l 1,2,-1
 100 900 l 1,3,-1
 600 900 l 1,4,-1
 600 800 l 1,5,-1
 700 800 l 1,6,-1
 700 100 l 1,7,-1
 600 100 l 1,8,-1
 600 0 l 1,9,-1
 100 0 l 1,10,-1
 100 100 l 1,11,-1
 0 100 l 1,0,-1
300 1100 m 1,12,-1
 200 1100 l 1,13,-1
 200 1200 l 1,14,-1
 400 1200 l 1,15,-1
 400 1100 l 1,16,-1
 500 1100 l 1,17,-1
 500 1000 l 1,18,-1
 300 1000 l 1,19,-1
 300 1100 l 1,12,-1
200 100 m 1,20,-1
 500 100 l 1,21,-1
 500 800 l 1,22,-1
 200 800 l 1,23,-1
 200 100 l 1,20,-1
EndSplineSet
Validated: 1
EndChar

StartChar: Oacute
Encoding: 211 211 180
Width: 900
GlyphClass: 2
Flags: W
LayerCount: 2
Fore
SplineSet
0 100 m 1,0,-1
 0 800 l 1,1,-1
 100 800 l 1,2,-1
 100 900 l 1,3,-1
 600 900 l 1,4,-1
 600 800 l 1,5,-1
 700 800 l 1,6,-1
 700 100 l 1,7,-1
 600 100 l 1,8,-1
 600 0 l 1,9,-1
 100 0 l 1,10,-1
 100 100 l 1,11,-1
 0 100 l 1,0,-1
300 1100 m 1,12,-1
 300 1200 l 1,13,-1
 500 1200 l 1,14,-1
 500 1100 l 1,15,-1
 400 1100 l 1,16,-1
 400 1000 l 1,17,-1
 200 1000 l 1,18,-1
 200 1100 l 1,19,-1
 300 1100 l 1,12,-1
200 100 m 1,20,-1
 500 100 l 1,21,-1
 500 800 l 1,22,-1
 200 800 l 1,23,-1
 200 100 l 1,20,-1
EndSplineSet
Validated: 1
EndChar

StartChar: Ocircumflex
Encoding: 212 212 181
Width: 900
GlyphClass: 2
Flags: W
LayerCount: 2
Fore
SplineSet
0 100 m 1,0,-1
 0 800 l 1,1,-1
 100 800 l 1,2,-1
 100 900 l 1,3,-1
 600 900 l 1,4,-1
 600 800 l 1,5,-1
 700 800 l 1,6,-1
 700 100 l 1,7,-1
 600 100 l 1,8,-1
 600 0 l 1,9,-1
 100 0 l 1,10,-1
 100 100 l 1,11,-1
 0 100 l 1,0,-1
200 100 m 1,12,-1
 500 100 l 1,13,-1
 500 800 l 1,14,-1
 200 800 l 1,15,-1
 200 100 l 1,12,-1
200 1100 m 1,16,-1
 200 1200 l 1,17,-1
 500 1200 l 1,18,-1
 500 1100 l 1,19,-1
 600 1100 l 1,20,-1
 600 1000 l 1,21,-1
 400 1000 l 1,22,-1
 400 1100 l 1,23,-1
 300 1100 l 1,24,-1
 300 1000 l 1,25,-1
 100 1000 l 1,26,-1
 100 1100 l 1,27,-1
 200 1100 l 1,16,-1
EndSplineSet
Validated: 1
EndChar

StartChar: Otilde
Encoding: 213 213 182
Width: 900
GlyphClass: 2
Flags: W
LayerCount: 2
Fore
SplineSet
0 100 m 1,0,-1
 0 800 l 1,1,-1
 100 800 l 1,2,-1
 100 900 l 1,3,-1
 600 900 l 1,4,-1
 600 800 l 1,5,-1
 700 800 l 1,6,-1
 700 100 l 1,7,-1
 600 100 l 1,8,-1
 600 0 l 1,9,-1
 100 0 l 1,10,-1
 100 100 l 1,11,-1
 0 100 l 1,0,-1
0 1000 m 1,12,-1
 0 1100 l 1,13,-1
 100 1100 l 1,14,-1
 100 1200 l 1,15,-1
 400 1200 l 1,16,-1
 400 1100 l 1,17,-1
 500 1100 l 1,18,-1
 500 1200 l 1,19,-1
 700 1200 l 1,20,-1
 700 1100 l 1,21,-1
 600 1100 l 1,22,-1
 600 1000 l 1,23,-1
 300 1000 l 1,24,-1
 300 1100 l 1,25,-1
 200 1100 l 1,26,-1
 200 1000 l 1,27,-1
 0 1000 l 1,12,-1
200 100 m 1,28,-1
 500 100 l 1,29,-1
 500 800 l 1,30,-1
 200 800 l 1,31,-1
 200 100 l 1,28,-1
EndSplineSet
Validated: 1
EndChar

StartChar: Odieresis
Encoding: 214 214 183
Width: 900
GlyphClass: 2
Flags: W
LayerCount: 2
Fore
SplineSet
0 100 m 1,0,-1
 0 800 l 1,1,-1
 100 800 l 1,2,-1
 100 900 l 1,3,-1
 600 900 l 1,4,-1
 600 800 l 1,5,-1
 700 800 l 1,6,-1
 700 100 l 1,7,-1
 600 100 l 1,8,-1
 600 0 l 1,9,-1
 100 0 l 1,10,-1
 100 100 l 1,11,-1
 0 100 l 1,0,-1
0 1000 m 1,12,-1
 0 1100 l 1,13,-1
 200 1100 l 1,14,-1
 200 1000 l 1,15,-1
 0 1000 l 1,12,-1
200 100 m 1,16,-1
 500 100 l 1,17,-1
 500 800 l 1,18,-1
 200 800 l 1,19,-1
 200 100 l 1,16,-1
500 1100 m 1,20,-1
 700 1100 l 1,21,-1
 700 1000 l 1,22,-1
 500 1000 l 1,23,-1
 500 1100 l 1,20,-1
EndSplineSet
Validated: 1
EndChar

StartChar: multiply
Encoding: 215 215 184
Width: 900
GlyphClass: 2
Flags: W
LayerCount: 2
Fore
SplineSet
0 100 m 1,0,-1
 0 200 l 1,1,-1
 100 200 l 1,2,-1
 100 300 l 1,3,-1
 200 300 l 1,4,-1
 200 500 l 1,5,-1
 100 500 l 1,6,-1
 100 600 l 1,7,-1
 0 600 l 1,8,-1
 0 700 l 1,9,-1
 200 700 l 1,10,-1
 200 600 l 1,11,-1
 300 600 l 1,12,-1
 300 500 l 1,13,-1
 400 500 l 1,14,-1
 400 600 l 1,15,-1
 500 600 l 1,16,-1
 500 700 l 1,17,-1
 700 700 l 1,18,-1
 700 600 l 1,19,-1
 600 600 l 1,20,-1
 600 500 l 1,21,-1
 500 500 l 1,22,-1
 500 300 l 1,23,-1
 600 300 l 1,24,-1
 600 200 l 1,25,-1
 700 200 l 1,26,-1
 700 100 l 1,27,-1
 500 100 l 1,28,-1
 500 200 l 1,29,-1
 400 200 l 1,30,-1
 400 300 l 1,31,-1
 300 300 l 1,32,-1
 300 200 l 1,33,-1
 200 200 l 1,34,-1
 200 100 l 1,35,-1
 0 100 l 1,0,-1
EndSplineSet
Validated: 1
EndChar

StartChar: Oslash
Encoding: 216 216 185
Width: 900
GlyphClass: 2
Flags: W
LayerCount: 2
Fore
SplineSet
0 100 m 1,0,-1
 0 900 l 1,1,-1
 100 900 l 1,2,-1
 100 1000 l 1,3,-1
 500 1000 l 1,4,-1
 500 1100 l 1,5,-1
 600 1100 l 1,6,-1
 600 900 l 1,7,-1
 700 900 l 1,8,-1
 700 100 l 1,9,-1
 600 100 l 1,10,-1
 600 0 l 1,11,-1
 200 0 l 1,12,-1
 200 -100 l 1,13,-1
 100 -100 l 1,14,-1
 100 100 l 1,15,-1
 0 100 l 1,0,-1
200 300 m 1,16,-1
 300 300 l 1,17,-1
 300 100 l 1,18,-1
 500 100 l 1,19,-1
 500 700 l 1,20,-1
 400 700 l 1,21,-1
 400 900 l 1,22,-1
 200 900 l 1,23,-1
 200 300 l 1,16,-1
400 300 m 1,24,-1
 300 300 l 1,25,-1
 300 700 l 1,26,-1
 400 700 l 1,27,-1
 400 300 l 1,24,-1
EndSplineSet
Validated: 5
EndChar

StartChar: Ugrave
Encoding: 217 217 186
Width: 900
GlyphClass: 2
Flags: W
LayerCount: 2
Fore
SplineSet
0 100 m 1,0,-1
 0 900 l 1,1,-1
 200 900 l 1,2,-1
 200 100 l 1,3,-1
 500 100 l 1,4,-1
 500 900 l 1,5,-1
 700 900 l 1,6,-1
 700 100 l 1,7,-1
 600 100 l 1,8,-1
 600 0 l 1,9,-1
 100 0 l 1,10,-1
 100 100 l 1,11,-1
 0 100 l 1,0,-1
300 1100 m 1,12,-1
 200 1100 l 1,13,-1
 200 1200 l 1,14,-1
 400 1200 l 1,15,-1
 400 1100 l 1,16,-1
 500 1100 l 1,17,-1
 500 1000 l 1,18,-1
 300 1000 l 1,19,-1
 300 1100 l 1,12,-1
EndSplineSet
Validated: 1
EndChar

StartChar: Uacute
Encoding: 218 218 187
Width: 900
GlyphClass: 2
Flags: W
LayerCount: 2
Fore
SplineSet
0 100 m 1,0,-1
 0 900 l 1,1,-1
 200 900 l 1,2,-1
 200 100 l 1,3,-1
 500 100 l 1,4,-1
 500 900 l 1,5,-1
 700 900 l 1,6,-1
 700 100 l 1,7,-1
 600 100 l 1,8,-1
 600 0 l 1,9,-1
 100 0 l 1,10,-1
 100 100 l 1,11,-1
 0 100 l 1,0,-1
300 1100 m 1,12,-1
 300 1200 l 1,13,-1
 500 1200 l 1,14,-1
 500 1100 l 1,15,-1
 400 1100 l 1,16,-1
 400 1000 l 1,17,-1
 200 1000 l 1,18,-1
 200 1100 l 1,19,-1
 300 1100 l 1,12,-1
EndSplineSet
Validated: 1
EndChar

StartChar: Ucircumflex
Encoding: 219 219 188
Width: 900
GlyphClass: 2
Flags: W
LayerCount: 2
Fore
SplineSet
0 100 m 1,0,-1
 0 900 l 1,1,-1
 200 900 l 1,2,-1
 200 100 l 1,3,-1
 500 100 l 1,4,-1
 500 900 l 1,5,-1
 700 900 l 1,6,-1
 700 100 l 1,7,-1
 600 100 l 1,8,-1
 600 0 l 1,9,-1
 100 0 l 1,10,-1
 100 100 l 1,11,-1
 0 100 l 1,0,-1
100 1100 m 1,12,-1
 200 1100 l 1,13,-1
 200 1200 l 1,14,-1
 500 1200 l 1,15,-1
 500 1100 l 1,16,-1
 600 1100 l 1,17,-1
 600 1000 l 1,18,-1
 400 1000 l 1,19,-1
 400 1100 l 1,20,-1
 300 1100 l 1,21,-1
 300 1000 l 1,22,-1
 100 1000 l 1,23,-1
 100 1100 l 1,12,-1
EndSplineSet
Validated: 1
EndChar

StartChar: Udieresis
Encoding: 220 220 189
Width: 900
GlyphClass: 2
Flags: W
LayerCount: 2
Fore
SplineSet
0 100 m 1,0,-1
 0 900 l 1,1,-1
 200 900 l 1,2,-1
 200 100 l 1,3,-1
 500 100 l 1,4,-1
 500 900 l 1,5,-1
 700 900 l 1,6,-1
 700 100 l 1,7,-1
 600 100 l 1,8,-1
 600 0 l 1,9,-1
 100 0 l 1,10,-1
 100 100 l 1,11,-1
 0 100 l 1,0,-1
0 1000 m 1,12,-1
 0 1100 l 1,13,-1
 200 1100 l 1,14,-1
 200 1000 l 1,15,-1
 0 1000 l 1,12,-1
500 1100 m 1,16,-1
 700 1100 l 1,17,-1
 700 1000 l 1,18,-1
 500 1000 l 1,19,-1
 500 1100 l 1,16,-1
EndSplineSet
Validated: 1
EndChar

StartChar: Yacute
Encoding: 221 221 190
Width: 900
GlyphClass: 2
Flags: W
LayerCount: 2
Fore
SplineSet
0 700 m 1,0,-1
 0 1000 l 1,1,-1
 200 1000 l 1,2,-1
 200 700 l 1,3,-1
 300 700 l 1,4,-1
 300 600 l 1,5,-1
 500 600 l 1,6,-1
 500 700 l 1,7,-1
 600 700 l 1,8,-1
 600 1000 l 1,9,-1
 800 1000 l 1,10,-1
 800 700 l 1,11,-1
 700 700 l 1,12,-1
 700 600 l 1,13,-1
 600 600 l 1,14,-1
 600 500 l 1,15,-1
 500 500 l 1,16,-1
 500 100 l 1,17,-1
 600 100 l 1,18,-1
 600 0 l 1,19,-1
 200 0 l 1,20,-1
 200 100 l 1,21,-1
 300 100 l 1,22,-1
 300 500 l 1,23,-1
 200 500 l 1,24,-1
 200 600 l 1,25,-1
 100 600 l 1,26,-1
 100 700 l 1,27,-1
 0 700 l 1,0,-1
400 1100 m 1,28,-1
 400 1200 l 1,29,-1
 600 1200 l 1,30,-1
 600 1100 l 1,31,-1
 500 1100 l 1,32,-1
 500 1000 l 1,33,-1
 300 1000 l 1,34,-1
 300 1100 l 1,35,-1
 400 1100 l 1,28,-1
EndSplineSet
Validated: 1
EndChar

StartChar: Thorn
Encoding: 222 222 191
Width: 900
GlyphClass: 2
Flags: W
LayerCount: 2
Fore
SplineSet
0 0 m 1,0,-1
 0 100 l 1,1,-1
 100 100 l 1,2,-1
 100 900 l 1,3,-1
 0 900 l 1,4,-1
 0 1000 l 1,5,-1
 400 1000 l 1,6,-1
 400 900 l 1,7,-1
 300 900 l 1,8,-1
 300 800 l 1,9,-1
 600 800 l 1,10,-1
 600 700 l 1,11,-1
 700 700 l 1,12,-1
 700 300 l 1,13,-1
 600 300 l 1,14,-1
 600 200 l 1,15,-1
 300 200 l 1,16,-1
 300 100 l 1,17,-1
 400 100 l 1,18,-1
 400 0 l 1,19,-1
 0 0 l 1,0,-1
300 300 m 1,20,-1
 500 300 l 1,21,-1
 500 700 l 1,22,-1
 300 700 l 1,23,-1
 300 300 l 1,20,-1
EndSplineSet
Validated: 1
EndChar

StartChar: germandbls
Encoding: 223 223 192
Width: 900
GlyphClass: 2
Flags: W
LayerCount: 2
Fore
SplineSet
0 0 m 1,0,-1
 0 900 l 1,1,-1
 100 900 l 1,2,-1
 100 1000 l 1,3,-1
 500 1000 l 1,4,-1
 500 900 l 1,5,-1
 600 900 l 1,6,-1
 600 600 l 1,7,-1
 500 600 l 1,8,-1
 500 500 l 1,9,-1
 600 500 l 1,10,-1
 600 400 l 1,11,-1
 700 400 l 1,12,-1
 700 100 l 1,13,-1
 600 100 l 1,14,-1
 600 0 l 1,15,-1
 400 0 l 1,16,-1
 400 100 l 1,17,-1
 500 100 l 1,18,-1
 500 400 l 1,19,-1
 400 400 l 1,20,-1
 400 500 l 1,21,-1
 300 500 l 1,22,-1
 300 600 l 1,23,-1
 400 600 l 1,24,-1
 400 900 l 1,25,-1
 200 900 l 1,26,-1
 200 0 l 1,27,-1
 0 0 l 1,0,-1
EndSplineSet
Validated: 1
EndChar

StartChar: agrave
Encoding: 224 224 193
Width: 900
GlyphClass: 2
Flags: W
LayerCount: 2
Fore
SplineSet
0 100 m 1,0,-1
 0 400 l 1,1,-1
 100 400 l 1,2,-1
 100 500 l 1,3,-1
 400 500 l 1,4,-1
 400 600 l 1,5,-1
 100 600 l 1,6,-1
 100 700 l 1,7,-1
 500 700 l 1,8,-1
 500 600 l 1,9,-1
 600 600 l 1,10,-1
 600 100 l 1,11,-1
 700 100 l 1,12,-1
 700 0 l 1,13,-1
 500 0 l 1,14,-1
 500 100 l 1,15,-1
 400 100 l 1,16,-1
 400 400 l 1,17,-1
 200 400 l 1,18,-1
 200 100 l 1,19,-1
 400 100 l 1,20,-1
 400 0 l 1,21,-1
 100 0 l 1,22,-1
 100 100 l 1,23,-1
 0 100 l 1,0,-1
200 1000 m 1,24,-1
 100 1000 l 1,25,-1
 100 1100 l 1,26,-1
 300 1100 l 1,27,-1
 300 1000 l 1,28,-1
 400 1000 l 1,29,-1
 400 900 l 1,30,-1
 500 900 l 1,31,-1
 500 800 l 1,32,-1
 300 800 l 1,33,-1
 300 900 l 1,34,-1
 200 900 l 1,35,-1
 200 1000 l 1,24,-1
EndSplineSet
Validated: 5
EndChar

StartChar: aacute
Encoding: 225 225 194
Width: 900
GlyphClass: 2
Flags: W
LayerCount: 2
Fore
SplineSet
0 100 m 1,0,-1
 0 400 l 1,1,-1
 100 400 l 1,2,-1
 100 500 l 1,3,-1
 400 500 l 1,4,-1
 400 600 l 1,5,-1
 100 600 l 1,6,-1
 100 700 l 1,7,-1
 500 700 l 1,8,-1
 500 600 l 1,9,-1
 600 600 l 1,10,-1
 600 100 l 1,11,-1
 700 100 l 1,12,-1
 700 0 l 1,13,-1
 500 0 l 1,14,-1
 500 100 l 1,15,-1
 400 100 l 1,16,-1
 400 400 l 1,17,-1
 200 400 l 1,18,-1
 200 100 l 1,19,-1
 400 100 l 1,20,-1
 400 0 l 1,21,-1
 100 0 l 1,22,-1
 100 100 l 1,23,-1
 0 100 l 1,0,-1
200 900 m 1,24,-1
 200 1000 l 1,25,-1
 300 1000 l 1,26,-1
 300 1100 l 1,27,-1
 500 1100 l 1,28,-1
 500 1000 l 1,29,-1
 400 1000 l 1,30,-1
 400 900 l 1,31,-1
 300 900 l 1,32,-1
 300 800 l 1,33,-1
 100 800 l 1,34,-1
 100 900 l 1,35,-1
 200 900 l 1,24,-1
EndSplineSet
Validated: 5
EndChar

StartChar: acircumflex
Encoding: 226 226 195
Width: 900
GlyphClass: 2
Flags: W
LayerCount: 2
Fore
SplineSet
0 100 m 1,0,-1
 0 400 l 1,1,-1
 100 400 l 1,2,-1
 100 500 l 1,3,-1
 400 500 l 1,4,-1
 400 600 l 1,5,-1
 100 600 l 1,6,-1
 100 700 l 1,7,-1
 500 700 l 1,8,-1
 500 600 l 1,9,-1
 600 600 l 1,10,-1
 600 100 l 1,11,-1
 700 100 l 1,12,-1
 700 0 l 1,13,-1
 500 0 l 1,14,-1
 500 100 l 1,15,-1
 400 100 l 1,16,-1
 400 400 l 1,17,-1
 200 400 l 1,18,-1
 200 100 l 1,19,-1
 400 100 l 1,20,-1
 400 0 l 1,21,-1
 100 0 l 1,22,-1
 100 100 l 1,23,-1
 0 100 l 1,0,-1
200 900 m 1,24,-1
 200 1000 l 1,25,-1
 300 1000 l 1,26,-1
 300 1100 l 1,27,-1
 400 1100 l 1,28,-1
 400 1000 l 1,29,-1
 500 1000 l 1,30,-1
 500 900 l 1,31,-1
 600 900 l 1,32,-1
 600 800 l 1,33,-1
 400 800 l 1,34,-1
 400 900 l 1,35,-1
 300 900 l 1,36,-1
 300 800 l 1,37,-1
 100 800 l 1,38,-1
 100 900 l 1,39,-1
 200 900 l 1,24,-1
EndSplineSet
Validated: 5
EndChar

StartChar: atilde
Encoding: 227 227 196
Width: 900
GlyphClass: 2
Flags: W
LayerCount: 2
Fore
SplineSet
0 100 m 1,0,-1
 0 400 l 1,1,-1
 100 400 l 1,2,-1
 100 500 l 1,3,-1
 400 500 l 1,4,-1
 400 600 l 1,5,-1
 100 600 l 1,6,-1
 100 700 l 1,7,-1
 500 700 l 1,8,-1
 500 600 l 1,9,-1
 600 600 l 1,10,-1
 600 100 l 1,11,-1
 700 100 l 1,12,-1
 700 0 l 1,13,-1
 500 0 l 1,14,-1
 500 100 l 1,15,-1
 400 100 l 1,16,-1
 400 400 l 1,17,-1
 200 400 l 1,18,-1
 200 100 l 1,19,-1
 400 100 l 1,20,-1
 400 0 l 1,21,-1
 100 0 l 1,22,-1
 100 100 l 1,23,-1
 0 100 l 1,0,-1
0 800 m 1,24,-1
 0 900 l 1,25,-1
 100 900 l 1,26,-1
 100 1000 l 1,27,-1
 400 1000 l 1,28,-1
 400 900 l 1,29,-1
 500 900 l 1,30,-1
 500 1000 l 1,31,-1
 700 1000 l 1,32,-1
 700 900 l 1,33,-1
 600 900 l 1,34,-1
 600 800 l 1,35,-1
 300 800 l 1,36,-1
 300 900 l 1,37,-1
 200 900 l 1,38,-1
 200 800 l 1,39,-1
 0 800 l 1,24,-1
EndSplineSet
Validated: 5
EndChar

StartChar: adieresis
Encoding: 228 228 197
Width: 900
GlyphClass: 2
Flags: W
LayerCount: 2
Fore
SplineSet
0 100 m 1,0,-1
 0 400 l 1,1,-1
 100 400 l 1,2,-1
 100 500 l 1,3,-1
 400 500 l 1,4,-1
 400 600 l 1,5,-1
 100 600 l 1,6,-1
 100 700 l 1,7,-1
 500 700 l 1,8,-1
 500 600 l 1,9,-1
 600 600 l 1,10,-1
 600 100 l 1,11,-1
 700 100 l 1,12,-1
 700 0 l 1,13,-1
 500 0 l 1,14,-1
 500 100 l 1,15,-1
 400 100 l 1,16,-1
 400 400 l 1,17,-1
 200 400 l 1,18,-1
 200 100 l 1,19,-1
 400 100 l 1,20,-1
 400 0 l 1,21,-1
 100 0 l 1,22,-1
 100 100 l 1,23,-1
 0 100 l 1,0,-1
0 900 m 1,24,-1
 0 1000 l 1,25,-1
 200 1000 l 1,26,-1
 200 900 l 1,27,-1
 0 900 l 1,24,-1
400 900 m 1,28,-1
 400 1000 l 1,29,-1
 600 1000 l 1,30,-1
 600 900 l 1,31,-1
 400 900 l 1,28,-1
EndSplineSet
Validated: 5
EndChar

StartChar: aring
Encoding: 229 229 198
Width: 900
GlyphClass: 2
Flags: W
LayerCount: 2
Fore
SplineSet
0 100 m 1,0,-1
 0 400 l 1,1,-1
 100 400 l 1,2,-1
 100 500 l 1,3,-1
 400 500 l 1,4,-1
 400 600 l 1,5,-1
 100 600 l 1,6,-1
 100 700 l 1,7,-1
 500 700 l 1,8,-1
 500 600 l 1,9,-1
 600 600 l 1,10,-1
 600 100 l 1,11,-1
 700 100 l 1,12,-1
 700 0 l 1,13,-1
 500 0 l 1,14,-1
 500 100 l 1,15,-1
 400 100 l 1,16,-1
 400 400 l 1,17,-1
 200 400 l 1,18,-1
 200 100 l 1,19,-1
 400 100 l 1,20,-1
 400 0 l 1,21,-1
 100 0 l 1,22,-1
 100 100 l 1,23,-1
 0 100 l 1,0,-1
200 1000 m 1,24,-1
 200 1100 l 1,25,-1
 500 1100 l 1,26,-1
 500 1000 l 1,27,-1
 600 1000 l 1,28,-1
 600 900 l 1,29,-1
 500 900 l 1,30,-1
 500 800 l 1,31,-1
 200 800 l 1,32,-1
 200 900 l 1,33,-1
 100 900 l 1,34,-1
 100 1000 l 1,35,-1
 200 1000 l 1,24,-1
400 1000 m 1,36,-1
 300 1000 l 1,37,-1
 300 900 l 1,38,-1
 400 900 l 1,39,-1
 400 1000 l 1,36,-1
EndSplineSet
Validated: 5
EndChar

StartChar: ae
Encoding: 230 230 199
Width: 900
GlyphClass: 2
Flags: W
LayerCount: 2
Fore
SplineSet
0 100 m 1,0,-1
 0 300 l 1,1,-1
 100 300 l 1,2,-1
 100 400 l 1,3,-1
 300 400 l 1,4,-1
 300 500 l 1,5,-1
 200 500 l 1,6,-1
 200 600 l 1,7,-1
 100 600 l 1,8,-1
 100 700 l 1,9,-1
 300 700 l 1,10,-1
 300 600 l 1,11,-1
 400 600 l 1,12,-1
 400 700 l 1,13,-1
 700 700 l 1,14,-1
 700 600 l 1,15,-1
 800 600 l 1,16,-1
 800 400 l 1,17,-1
 700 400 l 1,18,-1
 700 300 l 1,19,-1
 500 300 l 1,20,-1
 500 200 l 1,21,-1
 600 200 l 1,22,-1
 600 100 l 1,23,-1
 800 100 l 1,24,-1
 800 0 l 1,25,-1
 500 0 l 1,26,-1
 500 100 l 1,27,-1
 400 100 l 1,28,-1
 400 0 l 1,29,-1
 100 0 l 1,30,-1
 100 100 l 1,31,-1
 0 100 l 1,0,-1
200 100 m 1,32,-1
 300 100 l 1,33,-1
 300 300 l 1,34,-1
 200 300 l 1,35,-1
 200 100 l 1,32,-1
600 400 m 1,36,-1
 600 600 l 1,37,-1
 500 600 l 1,38,-1
 500 400 l 1,39,-1
 600 400 l 1,36,-1
EndSplineSet
Validated: 1
EndChar

StartChar: ccedilla
Encoding: 231 231 200
Width: 900
GlyphClass: 2
Flags: W
LayerCount: 2
Fore
SplineSet
200 200 m 1,0,-1
 200 300 l 1,1,-1
 100 300 l 1,2,-1
 100 700 l 1,3,-1
 200 700 l 1,4,-1
 200 800 l 1,5,-1
 600 800 l 1,6,-1
 600 700 l 1,7,-1
 700 700 l 1,8,-1
 700 600 l 1,9,-1
 500 600 l 1,10,-1
 500 700 l 1,11,-1
 300 700 l 1,12,-1
 300 300 l 1,13,-1
 500 300 l 1,14,-1
 500 400 l 1,15,-1
 700 400 l 1,16,-1
 700 300 l 1,17,-1
 600 300 l 1,18,-1
 600 100 l 1,19,-1
 700 100 l 1,20,-1
 700 0 l 1,21,-1
 600 0 l 1,22,-1
 600 -100 l 1,23,-1
 200 -100 l 1,24,-1
 200 0 l 1,25,-1
 500 0 l 1,26,-1
 500 100 l 1,27,-1
 400 100 l 1,28,-1
 400 200 l 1,29,-1
 200 200 l 1,0,-1
EndSplineSet
Validated: 1
EndChar

StartChar: egrave
Encoding: 232 232 201
Width: 900
GlyphClass: 2
Flags: W
LayerCount: 2
Fore
SplineSet
0 100 m 1,0,-1
 0 600 l 1,1,-1
 100 600 l 1,2,-1
 100 700 l 1,3,-1
 600 700 l 1,4,-1
 600 600 l 1,5,-1
 700 600 l 1,6,-1
 700 400 l 1,7,-1
 200 400 l 1,8,-1
 200 100 l 1,9,-1
 500 100 l 1,10,-1
 500 200 l 1,11,-1
 700 200 l 1,12,-1
 700 100 l 1,13,-1
 600 100 l 1,14,-1
 600 0 l 1,15,-1
 100 0 l 1,16,-1
 100 100 l 1,17,-1
 0 100 l 1,0,-1
200 500 m 1,18,-1
 500 500 l 1,19,-1
 500 600 l 1,20,-1
 200 600 l 1,21,-1
 200 500 l 1,18,-1
200 1000 m 1,22,-1
 100 1000 l 1,23,-1
 100 1100 l 1,24,-1
 300 1100 l 1,25,-1
 300 1000 l 1,26,-1
 400 1000 l 1,27,-1
 400 900 l 1,28,-1
 500 900 l 1,29,-1
 500 800 l 1,30,-1
 300 800 l 1,31,-1
 300 900 l 1,32,-1
 200 900 l 1,33,-1
 200 1000 l 1,22,-1
EndSplineSet
Validated: 1
EndChar

StartChar: eacute
Encoding: 233 233 202
Width: 900
GlyphClass: 2
Flags: W
LayerCount: 2
Fore
SplineSet
0 100 m 1,0,-1
 0 600 l 1,1,-1
 100 600 l 1,2,-1
 100 700 l 1,3,-1
 600 700 l 1,4,-1
 600 600 l 1,5,-1
 700 600 l 1,6,-1
 700 400 l 1,7,-1
 200 400 l 1,8,-1
 200 100 l 1,9,-1
 500 100 l 1,10,-1
 500 200 l 1,11,-1
 700 200 l 1,12,-1
 700 100 l 1,13,-1
 600 100 l 1,14,-1
 600 0 l 1,15,-1
 100 0 l 1,16,-1
 100 100 l 1,17,-1
 0 100 l 1,0,-1
200 500 m 1,18,-1
 500 500 l 1,19,-1
 500 600 l 1,20,-1
 200 600 l 1,21,-1
 200 500 l 1,18,-1
200 800 m 1,22,-1
 200 900 l 1,23,-1
 300 900 l 1,24,-1
 300 1000 l 1,25,-1
 400 1000 l 1,26,-1
 400 1100 l 1,27,-1
 600 1100 l 1,28,-1
 600 1000 l 1,29,-1
 500 1000 l 1,30,-1
 500 900 l 1,31,-1
 400 900 l 1,32,-1
 400 800 l 1,33,-1
 200 800 l 1,22,-1
EndSplineSet
Validated: 1
EndChar

StartChar: ecircumflex
Encoding: 234 234 203
Width: 900
GlyphClass: 2
Flags: W
LayerCount: 2
Fore
SplineSet
0 100 m 1,0,-1
 0 600 l 1,1,-1
 100 600 l 1,2,-1
 100 700 l 1,3,-1
 600 700 l 1,4,-1
 600 600 l 1,5,-1
 700 600 l 1,6,-1
 700 400 l 1,7,-1
 200 400 l 1,8,-1
 200 100 l 1,9,-1
 500 100 l 1,10,-1
 500 200 l 1,11,-1
 700 200 l 1,12,-1
 700 100 l 1,13,-1
 600 100 l 1,14,-1
 600 0 l 1,15,-1
 100 0 l 1,16,-1
 100 100 l 1,17,-1
 0 100 l 1,0,-1
200 500 m 1,18,-1
 500 500 l 1,19,-1
 500 600 l 1,20,-1
 200 600 l 1,21,-1
 200 500 l 1,18,-1
200 900 m 1,22,-1
 200 1000 l 1,23,-1
 300 1000 l 1,24,-1
 300 1100 l 1,25,-1
 400 1100 l 1,26,-1
 400 1000 l 1,27,-1
 500 1000 l 1,28,-1
 500 900 l 1,29,-1
 600 900 l 1,30,-1
 600 800 l 1,31,-1
 400 800 l 1,32,-1
 400 900 l 1,33,-1
 300 900 l 1,34,-1
 300 800 l 1,35,-1
 100 800 l 1,36,-1
 100 900 l 1,37,-1
 200 900 l 1,22,-1
EndSplineSet
Validated: 1
EndChar

StartChar: edieresis
Encoding: 235 235 204
Width: 900
GlyphClass: 2
Flags: W
LayerCount: 2
Fore
SplineSet
0 100 m 1,0,-1
 0 600 l 1,1,-1
 100 600 l 1,2,-1
 100 700 l 1,3,-1
 600 700 l 1,4,-1
 600 600 l 1,5,-1
 700 600 l 1,6,-1
 700 400 l 1,7,-1
 200 400 l 1,8,-1
 200 100 l 1,9,-1
 500 100 l 1,10,-1
 500 200 l 1,11,-1
 700 200 l 1,12,-1
 700 100 l 1,13,-1
 600 100 l 1,14,-1
 600 0 l 1,15,-1
 100 0 l 1,16,-1
 100 100 l 1,17,-1
 0 100 l 1,0,-1
0 900 m 1,18,-1
 0 1000 l 1,19,-1
 200 1000 l 1,20,-1
 200 900 l 1,21,-1
 0 900 l 1,18,-1
200 500 m 1,22,-1
 500 500 l 1,23,-1
 500 600 l 1,24,-1
 200 600 l 1,25,-1
 200 500 l 1,22,-1
500 900 m 1,26,-1
 500 1000 l 1,27,-1
 700 1000 l 1,28,-1
 700 900 l 1,29,-1
 500 900 l 1,26,-1
EndSplineSet
Validated: 1
EndChar

StartChar: igrave
Encoding: 236 236 205
Width: 900
GlyphClass: 2
Flags: W
LayerCount: 2
Fore
SplineSet
100 1100 m 1,0,-1
 300 1100 l 1,1,-1
 300 1000 l 1,2,-1
 400 1000 l 1,3,-1
 400 900 l 1,4,-1
 500 900 l 1,5,-1
 500 800 l 1,6,-1
 300 800 l 1,7,-1
 300 900 l 1,8,-1
 200 900 l 1,9,-1
 200 1000 l 1,10,-1
 100 1000 l 1,11,-1
 100 1100 l 1,0,-1
200 0 m 1,12,-1
 200 100 l 1,13,-1
 300 100 l 1,14,-1
 300 600 l 1,15,-1
 200 600 l 1,16,-1
 200 700 l 1,17,-1
 500 700 l 1,18,-1
 500 100 l 1,19,-1
 600 100 l 1,20,-1
 600 0 l 1,21,-1
 200 0 l 1,12,-1
EndSplineSet
Validated: 1
EndChar

StartChar: iacute
Encoding: 237 237 206
Width: 900
GlyphClass: 2
Flags: W
LayerCount: 2
Fore
SplineSet
200 0 m 1,0,-1
 200 100 l 1,1,-1
 300 100 l 1,2,-1
 300 600 l 1,3,-1
 200 600 l 1,4,-1
 200 700 l 1,5,-1
 500 700 l 1,6,-1
 500 100 l 1,7,-1
 600 100 l 1,8,-1
 600 0 l 1,9,-1
 200 0 l 1,0,-1
200 800 m 1,10,-1
 200 900 l 1,11,-1
 300 900 l 1,12,-1
 300 1000 l 1,13,-1
 400 1000 l 1,14,-1
 400 1100 l 1,15,-1
 600 1100 l 1,16,-1
 600 1000 l 1,17,-1
 500 1000 l 1,18,-1
 500 900 l 1,19,-1
 400 900 l 1,20,-1
 400 800 l 1,21,-1
 200 800 l 1,10,-1
EndSplineSet
Validated: 1
EndChar

StartChar: icircumflex
Encoding: 238 238 207
Width: 900
GlyphClass: 2
Flags: W
LayerCount: 2
Fore
SplineSet
200 0 m 1,0,-1
 200 100 l 1,1,-1
 300 100 l 1,2,-1
 300 600 l 1,3,-1
 200 600 l 1,4,-1
 200 700 l 1,5,-1
 500 700 l 1,6,-1
 500 100 l 1,7,-1
 600 100 l 1,8,-1
 600 0 l 1,9,-1
 200 0 l 1,0,-1
200 900 m 1,10,-1
 200 1000 l 1,11,-1
 300 1000 l 1,12,-1
 300 1100 l 1,13,-1
 500 1100 l 1,14,-1
 500 1000 l 1,15,-1
 600 1000 l 1,16,-1
 600 900 l 1,17,-1
 700 900 l 1,18,-1
 700 800 l 1,19,-1
 500 800 l 1,20,-1
 500 900 l 1,21,-1
 300 900 l 1,22,-1
 300 800 l 1,23,-1
 100 800 l 1,24,-1
 100 900 l 1,25,-1
 200 900 l 1,10,-1
EndSplineSet
Validated: 1
EndChar

StartChar: idieresis
Encoding: 239 239 208
Width: 900
GlyphClass: 2
Flags: W
LayerCount: 2
Fore
SplineSet
100 900 m 1,0,-1
 100 1000 l 1,1,-1
 300 1000 l 1,2,-1
 300 900 l 1,3,-1
 100 900 l 1,0,-1
200 0 m 1,4,-1
 200 100 l 1,5,-1
 300 100 l 1,6,-1
 300 600 l 1,7,-1
 200 600 l 1,8,-1
 200 700 l 1,9,-1
 500 700 l 1,10,-1
 500 100 l 1,11,-1
 600 100 l 1,12,-1
 600 0 l 1,13,-1
 200 0 l 1,4,-1
500 900 m 1,14,-1
 500 1000 l 1,15,-1
 700 1000 l 1,16,-1
 700 900 l 1,17,-1
 500 900 l 1,14,-1
EndSplineSet
Validated: 1
EndChar

StartChar: eth
Encoding: 240 240 209
Width: 900
GlyphClass: 2
Flags: W
LayerCount: 2
Fore
SplineSet
200 100 m 1,0,-1
 100 100 l 1,1,-1
 100 500 l 1,2,-1
 200 500 l 1,3,-1
 200 600 l 1,4,-1
 500 600 l 1,5,-1
 500 700 l 1,6,-1
 400 700 l 1,7,-1
 400 800 l 1,8,-1
 300 800 l 1,9,-1
 300 900 l 1,10,-1
 200 900 l 1,11,-1
 200 1000 l 1,12,-1
 400 1000 l 1,13,-1
 400 900 l 1,14,-1
 500 900 l 1,15,-1
 500 800 l 1,16,-1
 600 800 l 1,17,-1
 600 700 l 1,18,-1
 700 700 l 1,19,-1
 700 100 l 1,20,-1
 600 100 l 1,21,-1
 600 0 l 1,22,-1
 200 0 l 1,23,-1
 200 100 l 1,0,-1
200 700 m 1,24,-1
 200 800 l 1,25,-1
 300 800 l 1,26,-1
 300 700 l 1,27,-1
 200 700 l 1,24,-1
600 1000 m 1,28,-1
 600 900 l 1,29,-1
 500 900 l 1,30,-1
 500 1000 l 1,31,-1
 600 1000 l 1,28,-1
300 100 m 1,32,-1
 500 100 l 1,33,-1
 500 500 l 1,34,-1
 300 500 l 1,35,-1
 300 100 l 1,32,-1
EndSplineSet
Validated: 5
EndChar

StartChar: ntilde
Encoding: 241 241 210
Width: 900
GlyphClass: 2
Flags: W
LayerCount: 2
Fore
SplineSet
0 600 m 1,0,-1
 0 700 l 1,1,-1
 200 700 l 1,2,-1
 200 600 l 1,3,-1
 300 600 l 1,4,-1
 300 0 l 1,5,-1
 100 0 l 1,6,-1
 100 600 l 1,7,-1
 0 600 l 1,0,-1
0 800 m 1,8,-1
 0 900 l 1,9,-1
 100 900 l 1,10,-1
 100 1000 l 1,11,-1
 400 1000 l 1,12,-1
 400 900 l 1,13,-1
 500 900 l 1,14,-1
 500 1000 l 1,15,-1
 700 1000 l 1,16,-1
 700 900 l 1,17,-1
 600 900 l 1,18,-1
 600 800 l 1,19,-1
 300 800 l 1,20,-1
 300 900 l 1,21,-1
 200 900 l 1,22,-1
 200 800 l 1,23,-1
 0 800 l 1,8,-1
600 700 m 1,24,-1
 600 600 l 1,25,-1
 700 600 l 1,26,-1
 700 0 l 1,27,-1
 500 0 l 1,28,-1
 500 600 l 1,29,-1
 300 600 l 1,30,-1
 300 700 l 1,31,-1
 600 700 l 1,24,-1
EndSplineSet
Validated: 5
EndChar

StartChar: ograve
Encoding: 242 242 211
Width: 900
GlyphClass: 2
Flags: W
LayerCount: 2
Fore
SplineSet
0 100 m 1,0,-1
 0 600 l 1,1,-1
 100 600 l 1,2,-1
 100 700 l 1,3,-1
 600 700 l 1,4,-1
 600 600 l 1,5,-1
 700 600 l 1,6,-1
 700 100 l 1,7,-1
 600 100 l 1,8,-1
 600 0 l 1,9,-1
 100 0 l 1,10,-1
 100 100 l 1,11,-1
 0 100 l 1,0,-1
200 100 m 1,12,-1
 500 100 l 1,13,-1
 500 600 l 1,14,-1
 200 600 l 1,15,-1
 200 100 l 1,12,-1
200 1000 m 1,16,-1
 100 1000 l 1,17,-1
 100 1100 l 1,18,-1
 300 1100 l 1,19,-1
 300 1000 l 1,20,-1
 400 1000 l 1,21,-1
 400 900 l 1,22,-1
 500 900 l 1,23,-1
 500 800 l 1,24,-1
 300 800 l 1,25,-1
 300 900 l 1,26,-1
 200 900 l 1,27,-1
 200 1000 l 1,16,-1
EndSplineSet
Validated: 1
EndChar

StartChar: oacute
Encoding: 243 243 212
Width: 900
GlyphClass: 2
Flags: W
LayerCount: 2
Fore
SplineSet
0 100 m 1,0,-1
 0 600 l 1,1,-1
 100 600 l 1,2,-1
 100 700 l 1,3,-1
 600 700 l 1,4,-1
 600 600 l 1,5,-1
 700 600 l 1,6,-1
 700 100 l 1,7,-1
 600 100 l 1,8,-1
 600 0 l 1,9,-1
 100 0 l 1,10,-1
 100 100 l 1,11,-1
 0 100 l 1,0,-1
200 100 m 1,12,-1
 500 100 l 1,13,-1
 500 600 l 1,14,-1
 200 600 l 1,15,-1
 200 100 l 1,12,-1
200 900 m 1,16,-1
 200 1000 l 1,17,-1
 300 1000 l 1,18,-1
 300 1100 l 1,19,-1
 500 1100 l 1,20,-1
 500 1000 l 1,21,-1
 400 1000 l 1,22,-1
 400 900 l 1,23,-1
 300 900 l 1,24,-1
 300 800 l 1,25,-1
 100 800 l 1,26,-1
 100 900 l 1,27,-1
 200 900 l 1,16,-1
EndSplineSet
Validated: 1
EndChar

StartChar: ocircumflex
Encoding: 244 244 213
Width: 900
GlyphClass: 2
Flags: W
LayerCount: 2
Fore
SplineSet
0 100 m 1,0,-1
 0 600 l 1,1,-1
 100 600 l 1,2,-1
 100 700 l 1,3,-1
 600 700 l 1,4,-1
 600 600 l 1,5,-1
 700 600 l 1,6,-1
 700 100 l 1,7,-1
 600 100 l 1,8,-1
 600 0 l 1,9,-1
 100 0 l 1,10,-1
 100 100 l 1,11,-1
 0 100 l 1,0,-1
200 100 m 1,12,-1
 500 100 l 1,13,-1
 500 600 l 1,14,-1
 200 600 l 1,15,-1
 200 100 l 1,12,-1
200 900 m 1,16,-1
 200 1000 l 1,17,-1
 300 1000 l 1,18,-1
 300 1100 l 1,19,-1
 400 1100 l 1,20,-1
 400 1000 l 1,21,-1
 500 1000 l 1,22,-1
 500 900 l 1,23,-1
 600 900 l 1,24,-1
 600 800 l 1,25,-1
 400 800 l 1,26,-1
 400 900 l 1,27,-1
 300 900 l 1,28,-1
 300 800 l 1,29,-1
 100 800 l 1,30,-1
 100 900 l 1,31,-1
 200 900 l 1,16,-1
EndSplineSet
Validated: 1
EndChar

StartChar: otilde
Encoding: 245 245 214
Width: 900
GlyphClass: 2
Flags: W
LayerCount: 2
Fore
SplineSet
0 100 m 1,0,-1
 0 600 l 1,1,-1
 100 600 l 1,2,-1
 100 700 l 1,3,-1
 600 700 l 1,4,-1
 600 600 l 1,5,-1
 700 600 l 1,6,-1
 700 100 l 1,7,-1
 600 100 l 1,8,-1
 600 0 l 1,9,-1
 100 0 l 1,10,-1
 100 100 l 1,11,-1
 0 100 l 1,0,-1
0 800 m 1,12,-1
 0 900 l 1,13,-1
 100 900 l 1,14,-1
 100 1000 l 1,15,-1
 400 1000 l 1,16,-1
 400 900 l 1,17,-1
 500 900 l 1,18,-1
 500 1000 l 1,19,-1
 700 1000 l 1,20,-1
 700 900 l 1,21,-1
 600 900 l 1,22,-1
 600 800 l 1,23,-1
 300 800 l 1,24,-1
 300 900 l 1,25,-1
 200 900 l 1,26,-1
 200 800 l 1,27,-1
 0 800 l 1,12,-1
200 100 m 1,28,-1
 500 100 l 1,29,-1
 500 600 l 1,30,-1
 200 600 l 1,31,-1
 200 100 l 1,28,-1
EndSplineSet
Validated: 1
EndChar

StartChar: odieresis
Encoding: 246 246 215
Width: 900
GlyphClass: 2
Flags: W
LayerCount: 2
Fore
SplineSet
0 100 m 1,0,-1
 0 600 l 1,1,-1
 100 600 l 1,2,-1
 100 700 l 1,3,-1
 600 700 l 1,4,-1
 600 600 l 1,5,-1
 700 600 l 1,6,-1
 700 100 l 1,7,-1
 600 100 l 1,8,-1
 600 0 l 1,9,-1
 100 0 l 1,10,-1
 100 100 l 1,11,-1
 0 100 l 1,0,-1
0 900 m 1,12,-1
 0 1000 l 1,13,-1
 200 1000 l 1,14,-1
 200 900 l 1,15,-1
 0 900 l 1,12,-1
200 100 m 1,16,-1
 500 100 l 1,17,-1
 500 600 l 1,18,-1
 200 600 l 1,19,-1
 200 100 l 1,16,-1
500 900 m 1,20,-1
 500 1000 l 1,21,-1
 700 1000 l 1,22,-1
 700 900 l 1,23,-1
 500 900 l 1,20,-1
EndSplineSet
Validated: 1
EndChar

StartChar: divide
Encoding: 247 247 216
Width: 900
GlyphClass: 2
Flags: W
LayerCount: 2
Fore
SplineSet
500 100 m 1,0,-1
 300 100 l 1,1,-1
 300 300 l 1,2,-1
 500 300 l 1,3,-1
 500 100 l 1,0,-1
100 400 m 1,4,-1
 100 500 l 1,5,-1
 700 500 l 1,6,-1
 700 400 l 1,7,-1
 100 400 l 1,4,-1
500 600 m 1,8,-1
 300 600 l 1,9,-1
 300 800 l 1,10,-1
 500 800 l 1,11,-1
 500 600 l 1,8,-1
EndSplineSet
Validated: 1
EndChar

StartChar: oslash
Encoding: 248 248 217
Width: 900
GlyphClass: 2
Flags: W
LayerCount: 2
Fore
SplineSet
0 100 m 1,0,-1
 0 600 l 1,1,-1
 100 600 l 1,2,-1
 100 700 l 1,3,-1
 600 700 l 1,4,-1
 600 600 l 1,5,-1
 700 600 l 1,6,-1
 700 100 l 1,7,-1
 600 100 l 1,8,-1
 600 0 l 1,9,-1
 100 0 l 1,10,-1
 100 100 l 1,11,-1
 0 100 l 1,0,-1
200 200 m 1,12,-1
 200 100 l 1,13,-1
 500 100 l 1,14,-1
 500 400 l 1,15,-1
 400 400 l 1,16,-1
 400 300 l 1,17,-1
 300 300 l 1,18,-1
 300 200 l 1,19,-1
 200 200 l 1,12,-1
200 400 m 1,20,-1
 300 400 l 1,21,-1
 300 500 l 1,22,-1
 400 500 l 1,23,-1
 400 600 l 1,24,-1
 200 600 l 1,25,-1
 200 400 l 1,20,-1
EndSplineSet
Validated: 1
EndChar

StartChar: ugrave
Encoding: 249 249 218
Width: 900
GlyphClass: 2
Flags: W
LayerCount: 2
Fore
SplineSet
0 100 m 1,0,-1
 0 700 l 1,1,-1
 200 700 l 1,2,-1
 200 100 l 1,3,-1
 400 100 l 1,4,-1
 400 0 l 1,5,-1
 100 0 l 1,6,-1
 100 100 l 1,7,-1
 0 100 l 1,0,-1
200 1000 m 1,8,-1
 100 1000 l 1,9,-1
 100 1100 l 1,10,-1
 300 1100 l 1,11,-1
 300 1000 l 1,12,-1
 400 1000 l 1,13,-1
 400 900 l 1,14,-1
 500 900 l 1,15,-1
 500 800 l 1,16,-1
 300 800 l 1,17,-1
 300 900 l 1,18,-1
 200 900 l 1,19,-1
 200 1000 l 1,8,-1
400 100 m 1,20,-1
 400 700 l 1,21,-1
 600 700 l 1,22,-1
 600 100 l 1,23,-1
 700 100 l 1,24,-1
 700 0 l 1,25,-1
 500 0 l 1,26,-1
 500 100 l 1,27,-1
 400 100 l 1,20,-1
EndSplineSet
Validated: 5
EndChar

StartChar: uacute
Encoding: 250 250 219
Width: 900
GlyphClass: 2
Flags: W
LayerCount: 2
Fore
SplineSet
0 100 m 1,0,-1
 0 700 l 1,1,-1
 200 700 l 1,2,-1
 200 100 l 1,3,-1
 400 100 l 1,4,-1
 400 0 l 1,5,-1
 100 0 l 1,6,-1
 100 100 l 1,7,-1
 0 100 l 1,0,-1
200 900 m 1,8,-1
 200 1000 l 1,9,-1
 300 1000 l 1,10,-1
 300 1100 l 1,11,-1
 500 1100 l 1,12,-1
 500 1000 l 1,13,-1
 400 1000 l 1,14,-1
 400 900 l 1,15,-1
 300 900 l 1,16,-1
 300 800 l 1,17,-1
 100 800 l 1,18,-1
 100 900 l 1,19,-1
 200 900 l 1,8,-1
400 100 m 1,20,-1
 400 700 l 1,21,-1
 600 700 l 1,22,-1
 600 100 l 1,23,-1
 700 100 l 1,24,-1
 700 0 l 1,25,-1
 500 0 l 1,26,-1
 500 100 l 1,27,-1
 400 100 l 1,20,-1
EndSplineSet
Validated: 5
EndChar

StartChar: ucircumflex
Encoding: 251 251 220
Width: 900
GlyphClass: 2
Flags: W
LayerCount: 2
Fore
SplineSet
0 100 m 1,0,-1
 0 700 l 1,1,-1
 200 700 l 1,2,-1
 200 100 l 1,3,-1
 400 100 l 1,4,-1
 400 0 l 1,5,-1
 100 0 l 1,6,-1
 100 100 l 1,7,-1
 0 100 l 1,0,-1
0 800 m 1,8,-1
 0 900 l 1,9,-1
 100 900 l 1,10,-1
 100 1000 l 1,11,-1
 200 1000 l 1,12,-1
 200 1100 l 1,13,-1
 400 1100 l 1,14,-1
 400 1000 l 1,15,-1
 500 1000 l 1,16,-1
 500 900 l 1,17,-1
 600 900 l 1,18,-1
 600 800 l 1,19,-1
 400 800 l 1,20,-1
 400 900 l 1,21,-1
 200 900 l 1,22,-1
 200 800 l 1,23,-1
 0 800 l 1,8,-1
400 100 m 1,24,-1
 400 700 l 1,25,-1
 600 700 l 1,26,-1
 600 100 l 1,27,-1
 700 100 l 1,28,-1
 700 0 l 1,29,-1
 500 0 l 1,30,-1
 500 100 l 1,31,-1
 400 100 l 1,24,-1
EndSplineSet
Validated: 5
EndChar

StartChar: udieresis
Encoding: 252 252 221
Width: 900
GlyphClass: 2
Flags: W
LayerCount: 2
Fore
SplineSet
0 100 m 1,0,-1
 0 700 l 1,1,-1
 200 700 l 1,2,-1
 200 100 l 1,3,-1
 400 100 l 1,4,-1
 400 0 l 1,5,-1
 100 0 l 1,6,-1
 100 100 l 1,7,-1
 0 100 l 1,0,-1
0 900 m 1,8,-1
 0 1000 l 1,9,-1
 200 1000 l 1,10,-1
 200 900 l 1,11,-1
 0 900 l 1,8,-1
400 100 m 1,12,-1
 400 700 l 1,13,-1
 600 700 l 1,14,-1
 600 100 l 1,15,-1
 700 100 l 1,16,-1
 700 0 l 1,17,-1
 500 0 l 1,18,-1
 500 100 l 1,19,-1
 400 100 l 1,12,-1
400 900 m 1,20,-1
 400 1000 l 1,21,-1
 600 1000 l 1,22,-1
 600 900 l 1,23,-1
 400 900 l 1,20,-1
EndSplineSet
Validated: 5
EndChar

StartChar: yacute
Encoding: 253 253 222
Width: 900
GlyphClass: 2
Flags: W
LayerCount: 2
Fore
SplineSet
0 100 m 1,0,-1
 0 700 l 1,1,-1
 200 700 l 1,2,-1
 200 100 l 1,3,-1
 500 100 l 1,4,-1
 500 700 l 1,5,-1
 700 700 l 1,6,-1
 700 -100 l 1,7,-1
 600 -100 l 1,8,-1
 600 -200 l 1,9,-1
 500 -200 l 1,10,-1
 500 -300 l 1,11,-1
 0 -300 l 1,12,-1
 0 -200 l 1,13,-1
 400 -200 l 1,14,-1
 400 -100 l 1,15,-1
 500 -100 l 1,16,-1
 500 0 l 1,17,-1
 100 0 l 1,18,-1
 100 100 l 1,19,-1
 0 100 l 1,0,-1
200 800 m 1,20,-1
 200 900 l 1,21,-1
 300 900 l 1,22,-1
 300 1000 l 1,23,-1
 400 1000 l 1,24,-1
 400 1100 l 1,25,-1
 600 1100 l 1,26,-1
 600 1000 l 1,27,-1
 500 1000 l 1,28,-1
 500 900 l 1,29,-1
 400 900 l 1,30,-1
 400 800 l 1,31,-1
 200 800 l 1,20,-1
EndSplineSet
Validated: 1
EndChar

StartChar: thorn
Encoding: 254 254 223
Width: 900
GlyphClass: 2
Flags: W
LayerCount: 2
Fore
SplineSet
0 -200 m 1,0,-1
 100 -200 l 1,1,-1
 100 900 l 1,2,-1
 0 900 l 1,3,-1
 0 1000 l 1,4,-1
 300 1000 l 1,5,-1
 300 700 l 1,6,-1
 600 700 l 1,7,-1
 600 600 l 1,8,-1
 700 600 l 1,9,-1
 700 100 l 1,10,-1
 600 100 l 1,11,-1
 600 0 l 1,12,-1
 300 0 l 1,13,-1
 300 -200 l 1,14,-1
 400 -200 l 1,15,-1
 400 -300 l 1,16,-1
 0 -300 l 1,17,-1
 0 -200 l 1,0,-1
300 100 m 1,18,-1
 500 100 l 1,19,-1
 500 600 l 1,20,-1
 300 600 l 1,21,-1
 300 100 l 1,18,-1
EndSplineSet
Validated: 1
EndChar

StartChar: ydieresis
Encoding: 255 255 224
Width: 900
GlyphClass: 2
Flags: W
LayerCount: 2
Fore
SplineSet
0 100 m 1,0,-1
 0 700 l 1,1,-1
 200 700 l 1,2,-1
 200 100 l 1,3,-1
 500 100 l 1,4,-1
 500 700 l 1,5,-1
 700 700 l 1,6,-1
 700 -100 l 1,7,-1
 600 -100 l 1,8,-1
 600 -200 l 1,9,-1
 500 -200 l 1,10,-1
 500 -300 l 1,11,-1
 100 -300 l 1,12,-1
 100 -200 l 1,13,-1
 400 -200 l 1,14,-1
 400 -100 l 1,15,-1
 500 -100 l 1,16,-1
 500 0 l 1,17,-1
 100 0 l 1,18,-1
 100 100 l 1,19,-1
 0 100 l 1,0,-1
0 900 m 1,20,-1
 0 1000 l 1,21,-1
 200 1000 l 1,22,-1
 200 900 l 1,23,-1
 0 900 l 1,20,-1
500 900 m 1,24,-1
 500 1000 l 1,25,-1
 700 1000 l 1,26,-1
 700 900 l 1,27,-1
 500 900 l 1,24,-1
EndSplineSet
Validated: 1
EndChar

StartChar: Amacron
Encoding: 256 256 225
Width: 900
GlyphClass: 2
Flags: W
LayerCount: 2
Fore
SplineSet
0 0 m 1,0,-1
 0 700 l 1,1,-1
 100 700 l 1,2,-1
 100 800 l 1,3,-1
 200 800 l 1,4,-1
 200 900 l 1,5,-1
 300 900 l 1,6,-1
 300 1000 l 1,7,-1
 400 1000 l 1,8,-1
 400 900 l 1,9,-1
 500 900 l 1,10,-1
 500 800 l 1,11,-1
 600 800 l 1,12,-1
 600 700 l 1,13,-1
 700 700 l 1,14,-1
 700 0 l 1,15,-1
 500 0 l 1,16,-1
 500 400 l 1,17,-1
 200 400 l 1,18,-1
 200 0 l 1,19,-1
 0 0 l 1,0,-1
200 500 m 1,20,-1
 500 500 l 1,21,-1
 500 700 l 1,22,-1
 400 700 l 1,23,-1
 400 800 l 1,24,-1
 300 800 l 1,25,-1
 300 700 l 1,26,-1
 200 700 l 1,27,-1
 200 500 l 1,20,-1
600 1200 m 1,28,-1
 600 1100 l 1,29,-1
 100 1100 l 1,30,-1
 100 1200 l 1,31,-1
 600 1200 l 1,28,-1
EndSplineSet
Validated: 1
EndChar

StartChar: amacron
Encoding: 257 257 226
Width: 900
GlyphClass: 2
Flags: W
LayerCount: 2
Fore
SplineSet
0 100 m 1,0,-1
 0 400 l 1,1,-1
 100 400 l 1,2,-1
 100 500 l 1,3,-1
 400 500 l 1,4,-1
 400 600 l 1,5,-1
 100 600 l 1,6,-1
 100 700 l 1,7,-1
 500 700 l 1,8,-1
 500 600 l 1,9,-1
 600 600 l 1,10,-1
 600 100 l 1,11,-1
 700 100 l 1,12,-1
 700 0 l 1,13,-1
 500 0 l 1,14,-1
 500 100 l 1,15,-1
 400 100 l 1,16,-1
 400 400 l 1,17,-1
 200 400 l 1,18,-1
 200 100 l 1,19,-1
 400 100 l 1,20,-1
 400 0 l 1,21,-1
 100 0 l 1,22,-1
 100 100 l 1,23,-1
 0 100 l 1,0,-1
600 1000 m 1,24,-1
 600 900 l 1,25,-1
 100 900 l 1,26,-1
 100 1000 l 1,27,-1
 600 1000 l 1,24,-1
EndSplineSet
Validated: 5
EndChar

StartChar: Abreve
Encoding: 258 258 227
Width: 900
GlyphClass: 2
Flags: W
LayerCount: 2
Fore
SplineSet
0 0 m 1,0,-1
 0 600 l 1,1,-1
 100 600 l 1,2,-1
 100 700 l 1,3,-1
 200 700 l 1,4,-1
 200 800 l 1,5,-1
 300 800 l 1,6,-1
 300 900 l 1,7,-1
 400 900 l 1,8,-1
 400 800 l 1,9,-1
 500 800 l 1,10,-1
 500 700 l 1,11,-1
 600 700 l 1,12,-1
 600 600 l 1,13,-1
 700 600 l 1,14,-1
 700 0 l 1,15,-1
 500 0 l 1,16,-1
 500 300 l 1,17,-1
 200 300 l 1,18,-1
 200 0 l 1,19,-1
 0 0 l 1,0,-1
0 1100 m 1,20,-1
 0 1200 l 1,21,-1
 200 1200 l 1,22,-1
 200 1100 l 1,23,-1
 500 1100 l 1,24,-1
 500 1200 l 1,25,-1
 700 1200 l 1,26,-1
 700 1100 l 1,27,-1
 600 1100 l 1,28,-1
 600 1000 l 1,29,-1
 100 1000 l 1,30,-1
 100 1100 l 1,31,-1
 0 1100 l 1,20,-1
200 400 m 1,32,-1
 500 400 l 1,33,-1
 500 600 l 1,34,-1
 400 600 l 1,35,-1
 400 700 l 1,36,-1
 300 700 l 1,37,-1
 300 600 l 1,38,-1
 200 600 l 1,39,-1
 200 400 l 1,32,-1
EndSplineSet
Validated: 1
EndChar

StartChar: abreve
Encoding: 259 259 228
Width: 900
GlyphClass: 2
Flags: W
LayerCount: 2
Fore
SplineSet
0 100 m 1,0,-1
 0 400 l 1,1,-1
 100 400 l 1,2,-1
 100 500 l 1,3,-1
 400 500 l 1,4,-1
 400 600 l 1,5,-1
 100 600 l 1,6,-1
 100 700 l 1,7,-1
 500 700 l 1,8,-1
 500 600 l 1,9,-1
 600 600 l 1,10,-1
 600 100 l 1,11,-1
 700 100 l 1,12,-1
 700 0 l 1,13,-1
 500 0 l 1,14,-1
 500 100 l 1,15,-1
 400 100 l 1,16,-1
 400 400 l 1,17,-1
 200 400 l 1,18,-1
 200 100 l 1,19,-1
 400 100 l 1,20,-1
 400 0 l 1,21,-1
 100 0 l 1,22,-1
 100 100 l 1,23,-1
 0 100 l 1,0,-1
0 900 m 1,24,-1
 0 1000 l 1,25,-1
 200 1000 l 1,26,-1
 200 900 l 1,27,-1
 500 900 l 1,28,-1
 500 1000 l 1,29,-1
 700 1000 l 1,30,-1
 700 900 l 1,31,-1
 600 900 l 1,32,-1
 600 800 l 1,33,-1
 100 800 l 1,34,-1
 100 900 l 1,35,-1
 0 900 l 1,24,-1
EndSplineSet
Validated: 5
EndChar

StartChar: Aogonek
Encoding: 260 260 229
Width: 900
GlyphClass: 2
Flags: W
LayerCount: 2
Fore
SplineSet
0 0 m 1,0,-1
 0 700 l 1,1,-1
 100 700 l 1,2,-1
 100 800 l 1,3,-1
 200 800 l 1,4,-1
 200 900 l 1,5,-1
 300 900 l 1,6,-1
 300 1000 l 1,7,-1
 400 1000 l 1,8,-1
 400 900 l 1,9,-1
 500 900 l 1,10,-1
 500 800 l 1,11,-1
 600 800 l 1,12,-1
 600 700 l 1,13,-1
 700 700 l 1,14,-1
 700 0 l 1,15,-1
 500 0 l 1,16,-1
 500 400 l 1,17,-1
 200 400 l 1,18,-1
 200 0 l 1,19,-1
 0 0 l 1,0,-1
200 -200 m 1,20,-1
 200 -100 l 1,21,-1
 300 -100 l 1,22,-1
 300 0 l 1,23,-1
 500 0 l 1,24,-1
 500 -100 l 1,25,-1
 400 -100 l 1,26,-1
 400 -200 l 1,27,-1
 700 -200 l 1,28,-1
 700 -300 l 1,29,-1
 300 -300 l 1,30,-1
 300 -200 l 1,31,-1
 200 -200 l 1,20,-1
200 500 m 1,32,-1
 500 500 l 1,33,-1
 500 700 l 1,34,-1
 400 700 l 1,35,-1
 400 800 l 1,36,-1
 300 800 l 1,37,-1
 300 700 l 1,38,-1
 200 700 l 1,39,-1
 200 500 l 1,32,-1
EndSplineSet
Validated: 5
EndChar

StartChar: aogonek
Encoding: 261 261 230
Width: 900
GlyphClass: 2
Flags: W
LayerCount: 2
Fore
SplineSet
0 100 m 1,0,-1
 0 400 l 1,1,-1
 100 400 l 1,2,-1
 100 500 l 1,3,-1
 400 500 l 1,4,-1
 400 600 l 1,5,-1
 100 600 l 1,6,-1
 100 700 l 1,7,-1
 500 700 l 1,8,-1
 500 600 l 1,9,-1
 600 600 l 1,10,-1
 600 100 l 1,11,-1
 700 100 l 1,12,-1
 700 0 l 1,13,-1
 500 0 l 1,14,-1
 500 100 l 1,15,-1
 400 100 l 1,16,-1
 400 400 l 1,17,-1
 200 400 l 1,18,-1
 200 100 l 1,19,-1
 400 100 l 1,20,-1
 400 0 l 1,21,-1
 500 0 l 1,22,-1
 500 -100 l 1,23,-1
 400 -100 l 1,24,-1
 400 -200 l 1,25,-1
 700 -200 l 1,26,-1
 700 -300 l 1,27,-1
 300 -300 l 1,28,-1
 300 -200 l 1,29,-1
 200 -200 l 1,30,-1
 200 -100 l 1,31,-1
 300 -100 l 1,32,-1
 300 0 l 1,33,-1
 100 0 l 1,34,-1
 100 100 l 1,35,-1
 0 100 l 1,0,-1
EndSplineSet
Validated: 5
EndChar

StartChar: Cacute
Encoding: 262 262 231
Width: 900
GlyphClass: 2
Flags: W
LayerCount: 2
Fore
SplineSet
0 200 m 1,0,-1
 0 700 l 1,1,-1
 100 700 l 1,2,-1
 100 800 l 1,3,-1
 200 800 l 1,4,-1
 200 900 l 1,5,-1
 600 900 l 1,6,-1
 600 800 l 1,7,-1
 700 800 l 1,8,-1
 700 600 l 1,9,-1
 600 600 l 1,10,-1
 600 700 l 1,11,-1
 500 700 l 1,12,-1
 500 800 l 1,13,-1
 300 800 l 1,14,-1
 300 700 l 1,15,-1
 200 700 l 1,16,-1
 200 200 l 1,17,-1
 300 200 l 1,18,-1
 300 100 l 1,19,-1
 500 100 l 1,20,-1
 500 200 l 1,21,-1
 600 200 l 1,22,-1
 600 300 l 1,23,-1
 700 300 l 1,24,-1
 700 100 l 1,25,-1
 600 100 l 1,26,-1
 600 0 l 1,27,-1
 200 0 l 1,28,-1
 200 100 l 1,29,-1
 100 100 l 1,30,-1
 100 200 l 1,31,-1
 0 200 l 1,0,-1
400 1100 m 1,32,-1
 400 1200 l 1,33,-1
 600 1200 l 1,34,-1
 600 1100 l 1,35,-1
 500 1100 l 1,36,-1
 500 1000 l 1,37,-1
 300 1000 l 1,38,-1
 300 1100 l 1,39,-1
 400 1100 l 1,32,-1
EndSplineSet
Validated: 1
EndChar

StartChar: cacute
Encoding: 263 263 232
Width: 900
GlyphClass: 2
Flags: W
LayerCount: 2
Fore
SplineSet
0 100 m 1,0,-1
 0 600 l 1,1,-1
 100 600 l 1,2,-1
 100 700 l 1,3,-1
 600 700 l 1,4,-1
 600 600 l 1,5,-1
 700 600 l 1,6,-1
 700 500 l 1,7,-1
 500 500 l 1,8,-1
 500 600 l 1,9,-1
 200 600 l 1,10,-1
 200 100 l 1,11,-1
 500 100 l 1,12,-1
 500 200 l 1,13,-1
 700 200 l 1,14,-1
 700 100 l 1,15,-1
 600 100 l 1,16,-1
 600 0 l 1,17,-1
 100 0 l 1,18,-1
 100 100 l 1,19,-1
 0 100 l 1,0,-1
200 800 m 1,20,-1
 200 900 l 1,21,-1
 300 900 l 1,22,-1
 300 1000 l 1,23,-1
 400 1000 l 1,24,-1
 400 1100 l 1,25,-1
 600 1100 l 1,26,-1
 600 1000 l 1,27,-1
 500 1000 l 1,28,-1
 500 900 l 1,29,-1
 400 900 l 1,30,-1
 400 800 l 1,31,-1
 200 800 l 1,20,-1
EndSplineSet
Validated: 1
EndChar

StartChar: Ccircumflex
Encoding: 264 264 233
Width: 900
GlyphClass: 2
Flags: W
LayerCount: 2
Fore
SplineSet
0 200 m 1,0,-1
 0 700 l 1,1,-1
 100 700 l 1,2,-1
 100 800 l 1,3,-1
 200 800 l 1,4,-1
 200 900 l 1,5,-1
 600 900 l 1,6,-1
 600 800 l 1,7,-1
 700 800 l 1,8,-1
 700 600 l 1,9,-1
 600 600 l 1,10,-1
 600 700 l 1,11,-1
 500 700 l 1,12,-1
 500 800 l 1,13,-1
 300 800 l 1,14,-1
 300 700 l 1,15,-1
 200 700 l 1,16,-1
 200 200 l 1,17,-1
 300 200 l 1,18,-1
 300 100 l 1,19,-1
 500 100 l 1,20,-1
 500 200 l 1,21,-1
 600 200 l 1,22,-1
 600 300 l 1,23,-1
 700 300 l 1,24,-1
 700 100 l 1,25,-1
 600 100 l 1,26,-1
 600 0 l 1,27,-1
 200 0 l 1,28,-1
 200 100 l 1,29,-1
 100 100 l 1,30,-1
 100 200 l 1,31,-1
 0 200 l 1,0,-1
200 1000 m 1,32,-1
 200 1100 l 1,33,-1
 300 1100 l 1,34,-1
 300 1200 l 1,35,-1
 600 1200 l 1,36,-1
 600 1100 l 1,37,-1
 700 1100 l 1,38,-1
 700 1000 l 1,39,-1
 500 1000 l 1,40,-1
 500 1100 l 1,41,-1
 400 1100 l 1,42,-1
 400 1000 l 1,43,-1
 200 1000 l 1,32,-1
EndSplineSet
Validated: 1
EndChar

StartChar: ccircumflex
Encoding: 265 265 234
Width: 900
GlyphClass: 2
Flags: W
LayerCount: 2
Fore
SplineSet
0 100 m 1,0,-1
 0 600 l 1,1,-1
 100 600 l 1,2,-1
 100 700 l 1,3,-1
 600 700 l 1,4,-1
 600 600 l 1,5,-1
 700 600 l 1,6,-1
 700 500 l 1,7,-1
 500 500 l 1,8,-1
 500 600 l 1,9,-1
 200 600 l 1,10,-1
 200 100 l 1,11,-1
 500 100 l 1,12,-1
 500 200 l 1,13,-1
 700 200 l 1,14,-1
 700 100 l 1,15,-1
 600 100 l 1,16,-1
 600 0 l 1,17,-1
 100 0 l 1,18,-1
 100 100 l 1,19,-1
 0 100 l 1,0,-1
200 900 m 1,20,-1
 200 1000 l 1,21,-1
 300 1000 l 1,22,-1
 300 1100 l 1,23,-1
 400 1100 l 1,24,-1
 400 1000 l 1,25,-1
 500 1000 l 1,26,-1
 500 900 l 1,27,-1
 600 900 l 1,28,-1
 600 800 l 1,29,-1
 400 800 l 1,30,-1
 400 900 l 1,31,-1
 300 900 l 1,32,-1
 300 800 l 1,33,-1
 100 800 l 1,34,-1
 100 900 l 1,35,-1
 200 900 l 1,20,-1
EndSplineSet
Validated: 1
EndChar

StartChar: Cdotaccent
Encoding: 266 266 235
Width: 900
GlyphClass: 2
Flags: W
LayerCount: 2
Fore
SplineSet
0 200 m 1,0,-1
 0 700 l 1,1,-1
 100 700 l 1,2,-1
 100 800 l 1,3,-1
 200 800 l 1,4,-1
 200 900 l 1,5,-1
 600 900 l 1,6,-1
 600 800 l 1,7,-1
 700 800 l 1,8,-1
 700 600 l 1,9,-1
 600 600 l 1,10,-1
 600 700 l 1,11,-1
 500 700 l 1,12,-1
 500 800 l 1,13,-1
 300 800 l 1,14,-1
 300 700 l 1,15,-1
 200 700 l 1,16,-1
 200 200 l 1,17,-1
 300 200 l 1,18,-1
 300 100 l 1,19,-1
 500 100 l 1,20,-1
 500 200 l 1,21,-1
 600 200 l 1,22,-1
 600 300 l 1,23,-1
 700 300 l 1,24,-1
 700 100 l 1,25,-1
 600 100 l 1,26,-1
 600 0 l 1,27,-1
 200 0 l 1,28,-1
 200 100 l 1,29,-1
 100 100 l 1,30,-1
 100 200 l 1,31,-1
 0 200 l 1,0,-1
300 1200 m 1,32,-1
 500 1200 l 1,33,-1
 500 1000 l 1,34,-1
 300 1000 l 1,35,-1
 300 1200 l 1,32,-1
EndSplineSet
Validated: 1
EndChar

StartChar: cdotaccent
Encoding: 267 267 236
Width: 900
GlyphClass: 2
Flags: W
LayerCount: 2
Fore
SplineSet
0 100 m 1,0,-1
 0 600 l 1,1,-1
 100 600 l 1,2,-1
 100 700 l 1,3,-1
 600 700 l 1,4,-1
 600 600 l 1,5,-1
 700 600 l 1,6,-1
 700 500 l 1,7,-1
 500 500 l 1,8,-1
 500 600 l 1,9,-1
 200 600 l 1,10,-1
 200 100 l 1,11,-1
 500 100 l 1,12,-1
 500 200 l 1,13,-1
 700 200 l 1,14,-1
 700 100 l 1,15,-1
 600 100 l 1,16,-1
 600 0 l 1,17,-1
 100 0 l 1,18,-1
 100 100 l 1,19,-1
 0 100 l 1,0,-1
300 1000 m 1,20,-1
 500 1000 l 1,21,-1
 500 800 l 1,22,-1
 300 800 l 1,23,-1
 300 1000 l 1,20,-1
EndSplineSet
Validated: 1
EndChar

StartChar: Ccaron
Encoding: 268 268 237
Width: 900
GlyphClass: 2
Flags: W
LayerCount: 2
Fore
SplineSet
0 200 m 1,0,-1
 0 700 l 1,1,-1
 100 700 l 1,2,-1
 100 800 l 1,3,-1
 200 800 l 1,4,-1
 200 900 l 1,5,-1
 600 900 l 1,6,-1
 600 800 l 1,7,-1
 700 800 l 1,8,-1
 700 600 l 1,9,-1
 600 600 l 1,10,-1
 600 700 l 1,11,-1
 500 700 l 1,12,-1
 500 800 l 1,13,-1
 300 800 l 1,14,-1
 300 700 l 1,15,-1
 200 700 l 1,16,-1
 200 200 l 1,17,-1
 300 200 l 1,18,-1
 300 100 l 1,19,-1
 500 100 l 1,20,-1
 500 200 l 1,21,-1
 600 200 l 1,22,-1
 600 300 l 1,23,-1
 700 300 l 1,24,-1
 700 100 l 1,25,-1
 600 100 l 1,26,-1
 600 0 l 1,27,-1
 200 0 l 1,28,-1
 200 100 l 1,29,-1
 100 100 l 1,30,-1
 100 200 l 1,31,-1
 0 200 l 1,0,-1
200 1000 m 1,32,-1
 200 1100 l 1,33,-1
 100 1100 l 1,34,-1
 100 1200 l 1,35,-1
 300 1200 l 1,36,-1
 300 1100 l 1,37,-1
 500 1100 l 1,38,-1
 500 1200 l 1,39,-1
 700 1200 l 1,40,-1
 700 1100 l 1,41,-1
 600 1100 l 1,42,-1
 600 1000 l 1,43,-1
 200 1000 l 1,32,-1
EndSplineSet
Validated: 1
EndChar

StartChar: ccaron
Encoding: 269 269 238
Width: 900
GlyphClass: 2
Flags: W
LayerCount: 2
Fore
SplineSet
0 100 m 1,0,-1
 0 600 l 1,1,-1
 100 600 l 1,2,-1
 100 700 l 1,3,-1
 600 700 l 1,4,-1
 600 600 l 1,5,-1
 700 600 l 1,6,-1
 700 500 l 1,7,-1
 500 500 l 1,8,-1
 500 600 l 1,9,-1
 200 600 l 1,10,-1
 200 100 l 1,11,-1
 500 100 l 1,12,-1
 500 200 l 1,13,-1
 700 200 l 1,14,-1
 700 100 l 1,15,-1
 600 100 l 1,16,-1
 600 0 l 1,17,-1
 100 0 l 1,18,-1
 100 100 l 1,19,-1
 0 100 l 1,0,-1
200 900 m 1,20,-1
 100 900 l 1,21,-1
 100 1000 l 1,22,-1
 300 1000 l 1,23,-1
 300 900 l 1,24,-1
 400 900 l 1,25,-1
 400 1000 l 1,26,-1
 600 1000 l 1,27,-1
 600 900 l 1,28,-1
 500 900 l 1,29,-1
 500 800 l 1,30,-1
 200 800 l 1,31,-1
 200 900 l 1,20,-1
EndSplineSet
Validated: 1
EndChar

StartChar: Dcaron
Encoding: 270 270 239
Width: 900
GlyphClass: 2
Flags: W
LayerCount: 2
Fore
SplineSet
0 0 m 1,0,-1
 0 100 l 1,1,-1
 100 100 l 1,2,-1
 100 800 l 1,3,-1
 0 800 l 1,4,-1
 0 900 l 1,5,-1
 500 900 l 1,6,-1
 500 800 l 1,7,-1
 600 800 l 1,8,-1
 600 700 l 1,9,-1
 700 700 l 1,10,-1
 700 200 l 1,11,-1
 600 200 l 1,12,-1
 600 100 l 1,13,-1
 500 100 l 1,14,-1
 500 0 l 1,15,-1
 0 0 l 1,0,-1
200 1000 m 1,16,-1
 200 1100 l 1,17,-1
 100 1100 l 1,18,-1
 100 1200 l 1,19,-1
 300 1200 l 1,20,-1
 300 1100 l 1,21,-1
 400 1100 l 1,22,-1
 400 1200 l 1,23,-1
 600 1200 l 1,24,-1
 600 1100 l 1,25,-1
 500 1100 l 1,26,-1
 500 1000 l 1,27,-1
 200 1000 l 1,16,-1
400 100 m 1,28,-1
 400 200 l 1,29,-1
 500 200 l 1,30,-1
 500 700 l 1,31,-1
 400 700 l 1,32,-1
 400 800 l 1,33,-1
 300 800 l 1,34,-1
 300 100 l 1,35,-1
 400 100 l 1,28,-1
EndSplineSet
Validated: 1
EndChar

StartChar: dcaron
Encoding: 271 271 240
Width: 900
GlyphClass: 2
Flags: W
LayerCount: 2
Fore
SplineSet
0 100 m 1,0,-1
 0 500 l 1,1,-1
 100 500 l 1,2,-1
 100 600 l 1,3,-1
 200 600 l 1,4,-1
 200 700 l 1,5,-1
 400 700 l 1,6,-1
 400 900 l 1,7,-1
 300 900 l 1,8,-1
 300 1000 l 1,9,-1
 600 1000 l 1,10,-1
 600 1200 l 1,11,-1
 800 1200 l 1,12,-1
 800 1000 l 1,13,-1
 700 1000 l 1,14,-1
 700 900 l 1,15,-1
 600 900 l 1,16,-1
 600 100 l 1,17,-1
 700 100 l 1,18,-1
 700 0 l 1,19,-1
 500 0 l 1,20,-1
 500 100 l 1,21,-1
 400 100 l 1,22,-1
 400 600 l 1,23,-1
 300 600 l 1,24,-1
 300 500 l 1,25,-1
 200 500 l 1,26,-1
 200 100 l 1,27,-1
 400 100 l 1,28,-1
 400 0 l 1,29,-1
 100 0 l 1,30,-1
 100 100 l 1,31,-1
 0 100 l 1,0,-1
EndSplineSet
Validated: 5
EndChar

StartChar: Dcroat
Encoding: 272 272 241
Width: 900
GlyphClass: 2
Flags: W
LayerCount: 2
Fore
SplineSet
0 0 m 1,0,-1
 0 100 l 1,1,-1
 100 100 l 1,2,-1
 100 500 l 1,3,-1
 0 500 l 1,4,-1
 0 600 l 1,5,-1
 100 600 l 1,6,-1
 100 900 l 1,7,-1
 0 900 l 1,8,-1
 0 1000 l 1,9,-1
 500 1000 l 1,10,-1
 500 900 l 1,11,-1
 600 900 l 1,12,-1
 600 800 l 1,13,-1
 700 800 l 1,14,-1
 700 200 l 1,15,-1
 600 200 l 1,16,-1
 600 100 l 1,17,-1
 500 100 l 1,18,-1
 500 0 l 1,19,-1
 0 0 l 1,0,-1
400 100 m 1,20,-1
 400 200 l 1,21,-1
 500 200 l 1,22,-1
 500 800 l 1,23,-1
 400 800 l 1,24,-1
 400 900 l 1,25,-1
 300 900 l 1,26,-1
 300 600 l 1,27,-1
 400 600 l 1,28,-1
 400 500 l 1,29,-1
 300 500 l 1,30,-1
 300 100 l 1,31,-1
 400 100 l 1,20,-1
EndSplineSet
Validated: 1
EndChar

StartChar: dcroat
Encoding: 273 273 242
Width: 900
GlyphClass: 2
Flags: W
LayerCount: 2
Fore
SplineSet
0 100 m 1,0,-1
 0 400 l 1,1,-1
 100 400 l 1,2,-1
 100 500 l 1,3,-1
 200 500 l 1,4,-1
 200 600 l 1,5,-1
 400 600 l 1,6,-1
 400 700 l 1,7,-1
 100 700 l 1,8,-1
 100 800 l 1,9,-1
 400 800 l 1,10,-1
 400 1000 l 1,11,-1
 600 1000 l 1,12,-1
 600 800 l 1,13,-1
 700 800 l 1,14,-1
 700 700 l 1,15,-1
 600 700 l 1,16,-1
 600 100 l 1,17,-1
 700 100 l 1,18,-1
 700 0 l 1,19,-1
 500 0 l 1,20,-1
 500 100 l 1,21,-1
 400 100 l 1,22,-1
 400 500 l 1,23,-1
 300 500 l 1,24,-1
 300 400 l 1,25,-1
 200 400 l 1,26,-1
 200 100 l 1,27,-1
 400 100 l 1,28,-1
 400 0 l 1,29,-1
 100 0 l 1,30,-1
 100 100 l 1,31,-1
 0 100 l 1,0,-1
EndSplineSet
Validated: 5
EndChar

StartChar: Emacron
Encoding: 274 274 243
Width: 900
GlyphClass: 2
Flags: W
LayerCount: 2
Fore
SplineSet
0 0 m 1,0,-1
 0 100 l 1,1,-1
 100 100 l 1,2,-1
 100 900 l 1,3,-1
 0 900 l 1,4,-1
 0 1000 l 1,5,-1
 700 1000 l 1,6,-1
 700 700 l 1,7,-1
 600 700 l 1,8,-1
 600 800 l 1,9,-1
 500 800 l 1,10,-1
 500 900 l 1,11,-1
 300 900 l 1,12,-1
 300 600 l 1,13,-1
 400 600 l 1,14,-1
 400 700 l 1,15,-1
 500 700 l 1,16,-1
 500 400 l 1,17,-1
 400 400 l 1,18,-1
 400 500 l 1,19,-1
 300 500 l 1,20,-1
 300 100 l 1,21,-1
 500 100 l 1,22,-1
 500 200 l 1,23,-1
 600 200 l 1,24,-1
 600 300 l 1,25,-1
 700 300 l 1,26,-1
 700 0 l 1,27,-1
 0 0 l 1,0,-1
600 1200 m 1,28,-1
 600 1100 l 1,29,-1
 100 1100 l 1,30,-1
 100 1200 l 1,31,-1
 600 1200 l 1,28,-1
EndSplineSet
Validated: 1
EndChar

StartChar: emacron
Encoding: 275 275 244
Width: 900
GlyphClass: 2
Flags: W
LayerCount: 2
Fore
SplineSet
0 100 m 1,0,-1
 0 600 l 1,1,-1
 100 600 l 1,2,-1
 100 700 l 1,3,-1
 600 700 l 1,4,-1
 600 600 l 1,5,-1
 700 600 l 1,6,-1
 700 400 l 1,7,-1
 200 400 l 1,8,-1
 200 100 l 1,9,-1
 500 100 l 1,10,-1
 500 200 l 1,11,-1
 700 200 l 1,12,-1
 700 100 l 1,13,-1
 600 100 l 1,14,-1
 600 0 l 1,15,-1
 100 0 l 1,16,-1
 100 100 l 1,17,-1
 0 100 l 1,0,-1
200 500 m 1,18,-1
 500 500 l 1,19,-1
 500 600 l 1,20,-1
 200 600 l 1,21,-1
 200 500 l 1,18,-1
600 1000 m 1,22,-1
 600 900 l 1,23,-1
 100 900 l 1,24,-1
 100 1000 l 1,25,-1
 600 1000 l 1,22,-1
EndSplineSet
Validated: 1
EndChar

StartChar: Ebreve
Encoding: 276 276 245
Width: 900
GlyphClass: 2
Flags: W
LayerCount: 2
Fore
SplineSet
0 0 m 1,0,-1
 0 100 l 1,1,-1
 100 100 l 1,2,-1
 100 800 l 1,3,-1
 0 800 l 1,4,-1
 0 900 l 1,5,-1
 700 900 l 1,6,-1
 700 600 l 1,7,-1
 600 600 l 1,8,-1
 600 700 l 1,9,-1
 500 700 l 1,10,-1
 500 800 l 1,11,-1
 300 800 l 1,12,-1
 300 500 l 1,13,-1
 400 500 l 1,14,-1
 400 600 l 1,15,-1
 500 600 l 1,16,-1
 500 300 l 1,17,-1
 400 300 l 1,18,-1
 400 400 l 1,19,-1
 300 400 l 1,20,-1
 300 100 l 1,21,-1
 500 100 l 1,22,-1
 500 200 l 1,23,-1
 600 200 l 1,24,-1
 600 300 l 1,25,-1
 700 300 l 1,26,-1
 700 0 l 1,27,-1
 0 0 l 1,0,-1
0 1100 m 1,28,-1
 0 1200 l 1,29,-1
 200 1200 l 1,30,-1
 200 1100 l 1,31,-1
 500 1100 l 1,32,-1
 500 1200 l 1,33,-1
 700 1200 l 1,34,-1
 700 1100 l 1,35,-1
 600 1100 l 1,36,-1
 600 1000 l 1,37,-1
 100 1000 l 1,38,-1
 100 1100 l 1,39,-1
 0 1100 l 1,28,-1
EndSplineSet
Validated: 1
EndChar

StartChar: ebreve
Encoding: 277 277 246
Width: 900
GlyphClass: 2
Flags: W
LayerCount: 2
Fore
SplineSet
0 100 m 1,0,-1
 0 600 l 1,1,-1
 100 600 l 1,2,-1
 100 700 l 1,3,-1
 600 700 l 1,4,-1
 600 600 l 1,5,-1
 700 600 l 1,6,-1
 700 400 l 1,7,-1
 200 400 l 1,8,-1
 200 100 l 1,9,-1
 500 100 l 1,10,-1
 500 200 l 1,11,-1
 700 200 l 1,12,-1
 700 100 l 1,13,-1
 600 100 l 1,14,-1
 600 0 l 1,15,-1
 100 0 l 1,16,-1
 100 100 l 1,17,-1
 0 100 l 1,0,-1
0 900 m 1,18,-1
 0 1000 l 1,19,-1
 200 1000 l 1,20,-1
 200 900 l 1,21,-1
 500 900 l 1,22,-1
 500 1000 l 1,23,-1
 700 1000 l 1,24,-1
 700 900 l 1,25,-1
 600 900 l 1,26,-1
 600 800 l 1,27,-1
 100 800 l 1,28,-1
 100 900 l 1,29,-1
 0 900 l 1,18,-1
200 500 m 1,30,-1
 500 500 l 1,31,-1
 500 600 l 1,32,-1
 200 600 l 1,33,-1
 200 500 l 1,30,-1
EndSplineSet
Validated: 1
EndChar

StartChar: Edotaccent
Encoding: 278 278 247
Width: 900
GlyphClass: 2
Flags: W
LayerCount: 2
Fore
SplineSet
0 0 m 1,0,-1
 0 100 l 1,1,-1
 100 100 l 1,2,-1
 100 800 l 1,3,-1
 0 800 l 1,4,-1
 0 900 l 1,5,-1
 700 900 l 1,6,-1
 700 600 l 1,7,-1
 600 600 l 1,8,-1
 600 700 l 1,9,-1
 500 700 l 1,10,-1
 500 800 l 1,11,-1
 300 800 l 1,12,-1
 300 500 l 1,13,-1
 400 500 l 1,14,-1
 400 600 l 1,15,-1
 500 600 l 1,16,-1
 500 300 l 1,17,-1
 400 300 l 1,18,-1
 400 400 l 1,19,-1
 300 400 l 1,20,-1
 300 100 l 1,21,-1
 500 100 l 1,22,-1
 500 200 l 1,23,-1
 600 200 l 1,24,-1
 600 300 l 1,25,-1
 700 300 l 1,26,-1
 700 0 l 1,27,-1
 0 0 l 1,0,-1
300 1200 m 1,28,-1
 500 1200 l 1,29,-1
 500 1000 l 1,30,-1
 300 1000 l 1,31,-1
 300 1200 l 1,28,-1
EndSplineSet
Validated: 1
EndChar

StartChar: edotaccent
Encoding: 279 279 248
Width: 900
GlyphClass: 2
Flags: W
LayerCount: 2
Fore
SplineSet
0 100 m 1,0,-1
 0 600 l 1,1,-1
 100 600 l 1,2,-1
 100 700 l 1,3,-1
 600 700 l 1,4,-1
 600 600 l 1,5,-1
 700 600 l 1,6,-1
 700 400 l 1,7,-1
 200 400 l 1,8,-1
 200 100 l 1,9,-1
 500 100 l 1,10,-1
 500 200 l 1,11,-1
 700 200 l 1,12,-1
 700 100 l 1,13,-1
 600 100 l 1,14,-1
 600 0 l 1,15,-1
 100 0 l 1,16,-1
 100 100 l 1,17,-1
 0 100 l 1,0,-1
200 500 m 1,18,-1
 500 500 l 1,19,-1
 500 600 l 1,20,-1
 200 600 l 1,21,-1
 200 500 l 1,18,-1
300 1000 m 1,22,-1
 500 1000 l 1,23,-1
 500 800 l 1,24,-1
 300 800 l 1,25,-1
 300 1000 l 1,22,-1
EndSplineSet
Validated: 1
EndChar

StartChar: Eogonek
Encoding: 280 280 249
Width: 900
GlyphClass: 2
Flags: W
LayerCount: 2
Fore
SplineSet
0 0 m 1,0,-1
 0 100 l 1,1,-1
 100 100 l 1,2,-1
 100 900 l 1,3,-1
 0 900 l 1,4,-1
 0 1000 l 1,5,-1
 700 1000 l 1,6,-1
 700 700 l 1,7,-1
 600 700 l 1,8,-1
 600 800 l 1,9,-1
 500 800 l 1,10,-1
 500 900 l 1,11,-1
 300 900 l 1,12,-1
 300 600 l 1,13,-1
 400 600 l 1,14,-1
 400 700 l 1,15,-1
 500 700 l 1,16,-1
 500 400 l 1,17,-1
 400 400 l 1,18,-1
 400 500 l 1,19,-1
 300 500 l 1,20,-1
 300 100 l 1,21,-1
 500 100 l 1,22,-1
 500 200 l 1,23,-1
 600 200 l 1,24,-1
 600 300 l 1,25,-1
 700 300 l 1,26,-1
 700 0 l 1,27,-1
 500 0 l 1,28,-1
 500 -100 l 1,29,-1
 400 -100 l 1,30,-1
 400 -200 l 1,31,-1
 700 -200 l 1,32,-1
 700 -300 l 1,33,-1
 300 -300 l 1,34,-1
 300 -200 l 1,35,-1
 200 -200 l 1,36,-1
 200 -100 l 1,37,-1
 300 -100 l 1,38,-1
 300 0 l 1,39,-1
 0 0 l 1,0,-1
EndSplineSet
Validated: 1
EndChar

StartChar: eogonek
Encoding: 281 281 250
Width: 900
GlyphClass: 2
Flags: W
LayerCount: 2
Fore
SplineSet
0 100 m 1,0,-1
 0 600 l 1,1,-1
 100 600 l 1,2,-1
 100 700 l 1,3,-1
 600 700 l 1,4,-1
 600 600 l 1,5,-1
 700 600 l 1,6,-1
 700 400 l 1,7,-1
 200 400 l 1,8,-1
 200 100 l 1,9,-1
 500 100 l 1,10,-1
 500 200 l 1,11,-1
 700 200 l 1,12,-1
 700 100 l 1,13,-1
 600 100 l 1,14,-1
 600 0 l 1,15,-1
 400 0 l 1,16,-1
 400 -100 l 1,17,-1
 300 -100 l 1,18,-1
 300 -200 l 1,19,-1
 600 -200 l 1,20,-1
 600 -300 l 1,21,-1
 200 -300 l 1,22,-1
 200 -200 l 1,23,-1
 100 -200 l 1,24,-1
 100 -100 l 1,25,-1
 200 -100 l 1,26,-1
 200 0 l 1,27,-1
 100 0 l 1,28,-1
 100 100 l 1,29,-1
 0 100 l 1,0,-1
200 500 m 1,30,-1
 500 500 l 1,31,-1
 500 600 l 1,32,-1
 200 600 l 1,33,-1
 200 500 l 1,30,-1
EndSplineSet
Validated: 1
EndChar

StartChar: Ecaron
Encoding: 282 282 251
Width: 900
GlyphClass: 2
Flags: W
LayerCount: 2
Fore
SplineSet
0 0 m 1,0,-1
 0 100 l 1,1,-1
 100 100 l 1,2,-1
 100 800 l 1,3,-1
 0 800 l 1,4,-1
 0 900 l 1,5,-1
 700 900 l 1,6,-1
 700 600 l 1,7,-1
 600 600 l 1,8,-1
 600 700 l 1,9,-1
 500 700 l 1,10,-1
 500 800 l 1,11,-1
 300 800 l 1,12,-1
 300 500 l 1,13,-1
 400 500 l 1,14,-1
 400 600 l 1,15,-1
 500 600 l 1,16,-1
 500 300 l 1,17,-1
 400 300 l 1,18,-1
 400 400 l 1,19,-1
 300 400 l 1,20,-1
 300 100 l 1,21,-1
 500 100 l 1,22,-1
 500 200 l 1,23,-1
 600 200 l 1,24,-1
 600 300 l 1,25,-1
 700 300 l 1,26,-1
 700 0 l 1,27,-1
 0 0 l 1,0,-1
200 1000 m 1,28,-1
 200 1100 l 1,29,-1
 100 1100 l 1,30,-1
 100 1200 l 1,31,-1
 300 1200 l 1,32,-1
 300 1100 l 1,33,-1
 400 1100 l 1,34,-1
 400 1200 l 1,35,-1
 600 1200 l 1,36,-1
 600 1100 l 1,37,-1
 500 1100 l 1,38,-1
 500 1000 l 1,39,-1
 200 1000 l 1,28,-1
EndSplineSet
Validated: 1
EndChar

StartChar: ecaron
Encoding: 283 283 252
Width: 900
GlyphClass: 2
Flags: W
LayerCount: 2
Fore
SplineSet
0 100 m 1,0,-1
 0 600 l 1,1,-1
 100 600 l 1,2,-1
 100 700 l 1,3,-1
 600 700 l 1,4,-1
 600 600 l 1,5,-1
 700 600 l 1,6,-1
 700 400 l 1,7,-1
 200 400 l 1,8,-1
 200 100 l 1,9,-1
 500 100 l 1,10,-1
 500 200 l 1,11,-1
 700 200 l 1,12,-1
 700 100 l 1,13,-1
 600 100 l 1,14,-1
 600 0 l 1,15,-1
 100 0 l 1,16,-1
 100 100 l 1,17,-1
 0 100 l 1,0,-1
200 500 m 1,18,-1
 500 500 l 1,19,-1
 500 600 l 1,20,-1
 200 600 l 1,21,-1
 200 500 l 1,18,-1
200 900 m 1,22,-1
 100 900 l 1,23,-1
 100 1000 l 1,24,-1
 300 1000 l 1,25,-1
 300 900 l 1,26,-1
 500 900 l 1,27,-1
 500 1000 l 1,28,-1
 700 1000 l 1,29,-1
 700 900 l 1,30,-1
 600 900 l 1,31,-1
 600 800 l 1,32,-1
 200 800 l 1,33,-1
 200 900 l 1,22,-1
EndSplineSet
Validated: 1
EndChar

StartChar: Gcircumflex
Encoding: 284 284 253
Width: 900
GlyphClass: 2
Flags: W
LayerCount: 2
Fore
SplineSet
0 200 m 1,0,-1
 0 700 l 1,1,-1
 100 700 l 1,2,-1
 100 800 l 1,3,-1
 200 800 l 1,4,-1
 200 900 l 1,5,-1
 600 900 l 1,6,-1
 600 800 l 1,7,-1
 700 800 l 1,8,-1
 700 600 l 1,9,-1
 600 600 l 1,10,-1
 600 700 l 1,11,-1
 500 700 l 1,12,-1
 500 800 l 1,13,-1
 300 800 l 1,14,-1
 300 700 l 1,15,-1
 200 700 l 1,16,-1
 200 200 l 1,17,-1
 300 200 l 1,18,-1
 300 100 l 1,19,-1
 500 100 l 1,20,-1
 500 0 l 1,21,-1
 200 0 l 1,22,-1
 200 100 l 1,23,-1
 100 100 l 1,24,-1
 100 200 l 1,25,-1
 0 200 l 1,0,-1
200 1000 m 1,26,-1
 200 1100 l 1,27,-1
 300 1100 l 1,28,-1
 300 1200 l 1,29,-1
 600 1200 l 1,30,-1
 600 1100 l 1,31,-1
 700 1100 l 1,32,-1
 700 1000 l 1,33,-1
 500 1000 l 1,34,-1
 500 1100 l 1,35,-1
 400 1100 l 1,36,-1
 400 1000 l 1,37,-1
 200 1000 l 1,26,-1
600 100 m 1,38,-1
 500 100 l 1,39,-1
 500 300 l 1,40,-1
 300 300 l 1,41,-1
 300 400 l 1,42,-1
 700 400 l 1,43,-1
 700 0 l 1,44,-1
 600 0 l 1,45,-1
 600 100 l 1,38,-1
EndSplineSet
Validated: 5
EndChar

StartChar: gcircumflex
Encoding: 285 285 254
Width: 900
GlyphClass: 2
Flags: W
LayerCount: 2
Fore
SplineSet
0 -200 m 1,0,-1
 0 -100 l 1,1,-1
 200 -100 l 1,2,-1
 200 -200 l 1,3,-1
 400 -200 l 1,4,-1
 400 0 l 1,5,-1
 100 0 l 1,6,-1
 100 100 l 1,7,-1
 0 100 l 1,8,-1
 0 600 l 1,9,-1
 100 600 l 1,10,-1
 100 700 l 1,11,-1
 400 700 l 1,12,-1
 400 600 l 1,13,-1
 200 600 l 1,14,-1
 200 100 l 1,15,-1
 400 100 l 1,16,-1
 400 600 l 1,17,-1
 500 600 l 1,18,-1
 500 700 l 1,19,-1
 700 700 l 1,20,-1
 700 600 l 1,21,-1
 600 600 l 1,22,-1
 600 -200 l 1,23,-1
 500 -200 l 1,24,-1
 500 -300 l 1,25,-1
 100 -300 l 1,26,-1
 100 -200 l 1,27,-1
 0 -200 l 1,0,-1
200 900 m 1,28,-1
 200 1000 l 1,29,-1
 300 1000 l 1,30,-1
 300 1100 l 1,31,-1
 400 1100 l 1,32,-1
 400 1000 l 1,33,-1
 500 1000 l 1,34,-1
 500 900 l 1,35,-1
 600 900 l 1,36,-1
 600 800 l 1,37,-1
 400 800 l 1,38,-1
 400 900 l 1,39,-1
 300 900 l 1,40,-1
 300 800 l 1,41,-1
 100 800 l 1,42,-1
 100 900 l 1,43,-1
 200 900 l 1,28,-1
EndSplineSet
Validated: 5
EndChar

StartChar: Gbreve
Encoding: 286 286 255
Width: 900
GlyphClass: 2
Flags: W
LayerCount: 2
Fore
SplineSet
0 200 m 1,0,-1
 0 700 l 1,1,-1
 100 700 l 1,2,-1
 100 800 l 1,3,-1
 200 800 l 1,4,-1
 200 900 l 1,5,-1
 600 900 l 1,6,-1
 600 800 l 1,7,-1
 700 800 l 1,8,-1
 700 600 l 1,9,-1
 600 600 l 1,10,-1
 600 700 l 1,11,-1
 500 700 l 1,12,-1
 500 800 l 1,13,-1
 300 800 l 1,14,-1
 300 700 l 1,15,-1
 200 700 l 1,16,-1
 200 200 l 1,17,-1
 300 200 l 1,18,-1
 300 100 l 1,19,-1
 500 100 l 1,20,-1
 500 0 l 1,21,-1
 200 0 l 1,22,-1
 200 100 l 1,23,-1
 100 100 l 1,24,-1
 100 200 l 1,25,-1
 0 200 l 1,0,-1
200 1000 m 1,26,-1
 200 1100 l 1,27,-1
 100 1100 l 1,28,-1
 100 1200 l 1,29,-1
 300 1200 l 1,30,-1
 300 1100 l 1,31,-1
 500 1100 l 1,32,-1
 500 1200 l 1,33,-1
 700 1200 l 1,34,-1
 700 1100 l 1,35,-1
 600 1100 l 1,36,-1
 600 1000 l 1,37,-1
 200 1000 l 1,26,-1
600 100 m 1,38,-1
 500 100 l 1,39,-1
 500 300 l 1,40,-1
 300 300 l 1,41,-1
 300 400 l 1,42,-1
 700 400 l 1,43,-1
 700 0 l 1,44,-1
 600 0 l 1,45,-1
 600 100 l 1,38,-1
EndSplineSet
Validated: 5
EndChar

StartChar: gbreve
Encoding: 287 287 256
Width: 900
GlyphClass: 2
Flags: W
LayerCount: 2
Fore
SplineSet
0 -200 m 1,0,-1
 0 -100 l 1,1,-1
 200 -100 l 1,2,-1
 200 -200 l 1,3,-1
 400 -200 l 1,4,-1
 400 0 l 1,5,-1
 100 0 l 1,6,-1
 100 100 l 1,7,-1
 0 100 l 1,8,-1
 0 600 l 1,9,-1
 100 600 l 1,10,-1
 100 700 l 1,11,-1
 400 700 l 1,12,-1
 400 600 l 1,13,-1
 200 600 l 1,14,-1
 200 100 l 1,15,-1
 400 100 l 1,16,-1
 400 600 l 1,17,-1
 500 600 l 1,18,-1
 500 700 l 1,19,-1
 700 700 l 1,20,-1
 700 600 l 1,21,-1
 600 600 l 1,22,-1
 600 -200 l 1,23,-1
 500 -200 l 1,24,-1
 500 -300 l 1,25,-1
 100 -300 l 1,26,-1
 100 -200 l 1,27,-1
 0 -200 l 1,0,-1
0 900 m 1,28,-1
 0 1000 l 1,29,-1
 200 1000 l 1,30,-1
 200 900 l 1,31,-1
 500 900 l 1,32,-1
 500 1000 l 1,33,-1
 700 1000 l 1,34,-1
 700 900 l 1,35,-1
 600 900 l 1,36,-1
 600 800 l 1,37,-1
 100 800 l 1,38,-1
 100 900 l 1,39,-1
 0 900 l 1,28,-1
EndSplineSet
Validated: 5
EndChar

StartChar: Gdotaccent
Encoding: 288 288 257
Width: 900
GlyphClass: 2
Flags: W
LayerCount: 2
Fore
SplineSet
0 200 m 1,0,-1
 0 700 l 1,1,-1
 100 700 l 1,2,-1
 100 800 l 1,3,-1
 200 800 l 1,4,-1
 200 900 l 1,5,-1
 600 900 l 1,6,-1
 600 800 l 1,7,-1
 700 800 l 1,8,-1
 700 600 l 1,9,-1
 600 600 l 1,10,-1
 600 700 l 1,11,-1
 500 700 l 1,12,-1
 500 800 l 1,13,-1
 300 800 l 1,14,-1
 300 700 l 1,15,-1
 200 700 l 1,16,-1
 200 200 l 1,17,-1
 300 200 l 1,18,-1
 300 100 l 1,19,-1
 500 100 l 1,20,-1
 500 0 l 1,21,-1
 200 0 l 1,22,-1
 200 100 l 1,23,-1
 100 100 l 1,24,-1
 100 200 l 1,25,-1
 0 200 l 1,0,-1
600 100 m 1,26,-1
 500 100 l 1,27,-1
 500 300 l 1,28,-1
 300 300 l 1,29,-1
 300 400 l 1,30,-1
 700 400 l 1,31,-1
 700 0 l 1,32,-1
 600 0 l 1,33,-1
 600 100 l 1,26,-1
300 1200 m 1,34,-1
 500 1200 l 1,35,-1
 500 1000 l 1,36,-1
 300 1000 l 1,37,-1
 300 1200 l 1,34,-1
EndSplineSet
Validated: 5
EndChar

StartChar: gdotaccent
Encoding: 289 289 258
Width: 900
GlyphClass: 2
Flags: W
LayerCount: 2
Fore
SplineSet
0 -200 m 1,0,-1
 0 -100 l 1,1,-1
 200 -100 l 1,2,-1
 200 -200 l 1,3,-1
 400 -200 l 1,4,-1
 400 0 l 1,5,-1
 100 0 l 1,6,-1
 100 100 l 1,7,-1
 0 100 l 1,8,-1
 0 600 l 1,9,-1
 100 600 l 1,10,-1
 100 700 l 1,11,-1
 400 700 l 1,12,-1
 400 600 l 1,13,-1
 200 600 l 1,14,-1
 200 100 l 1,15,-1
 400 100 l 1,16,-1
 400 600 l 1,17,-1
 500 600 l 1,18,-1
 500 700 l 1,19,-1
 700 700 l 1,20,-1
 700 600 l 1,21,-1
 600 600 l 1,22,-1
 600 -200 l 1,23,-1
 500 -200 l 1,24,-1
 500 -300 l 1,25,-1
 100 -300 l 1,26,-1
 100 -200 l 1,27,-1
 0 -200 l 1,0,-1
300 1000 m 1,28,-1
 500 1000 l 1,29,-1
 500 800 l 1,30,-1
 300 800 l 1,31,-1
 300 1000 l 1,28,-1
EndSplineSet
Validated: 5
EndChar

StartChar: uni0122
Encoding: 290 290 259
Width: 900
GlyphClass: 2
Flags: W
LayerCount: 2
Fore
SplineSet
0 200 m 1,0,-1
 0 800 l 1,1,-1
 100 800 l 1,2,-1
 100 900 l 1,3,-1
 200 900 l 1,4,-1
 200 1000 l 1,5,-1
 600 1000 l 1,6,-1
 600 900 l 1,7,-1
 700 900 l 1,8,-1
 700 700 l 1,9,-1
 600 700 l 1,10,-1
 600 800 l 1,11,-1
 500 800 l 1,12,-1
 500 900 l 1,13,-1
 300 900 l 1,14,-1
 300 800 l 1,15,-1
 200 800 l 1,16,-1
 200 200 l 1,17,-1
 300 200 l 1,18,-1
 300 100 l 1,19,-1
 500 100 l 1,20,-1
 500 -100 l 1,21,-1
 600 -100 l 1,22,-1
 600 -200 l 1,23,-1
 500 -200 l 1,24,-1
 500 -300 l 1,25,-1
 100 -300 l 1,26,-1
 100 -200 l 1,27,-1
 400 -200 l 1,28,-1
 400 -100 l 1,29,-1
 300 -100 l 1,30,-1
 300 0 l 1,31,-1
 200 0 l 1,32,-1
 200 100 l 1,33,-1
 100 100 l 1,34,-1
 100 200 l 1,35,-1
 0 200 l 1,0,-1
600 100 m 1,36,-1
 500 100 l 1,37,-1
 500 400 l 1,38,-1
 300 400 l 1,39,-1
 300 500 l 1,40,-1
 700 500 l 1,41,-1
 700 0 l 1,42,-1
 600 0 l 1,43,-1
 600 100 l 1,36,-1
EndSplineSet
Validated: 5
EndChar

StartChar: uni0123
Encoding: 291 291 260
Width: 900
GlyphClass: 2
Flags: W
LayerCount: 2
Fore
SplineSet
0 -200 m 1,0,-1
 0 -100 l 1,1,-1
 200 -100 l 1,2,-1
 200 -200 l 1,3,-1
 400 -200 l 1,4,-1
 400 0 l 1,5,-1
 100 0 l 1,6,-1
 100 100 l 1,7,-1
 0 100 l 1,8,-1
 0 600 l 1,9,-1
 100 600 l 1,10,-1
 100 700 l 1,11,-1
 400 700 l 1,12,-1
 400 600 l 1,13,-1
 200 600 l 1,14,-1
 200 100 l 1,15,-1
 400 100 l 1,16,-1
 400 600 l 1,17,-1
 500 600 l 1,18,-1
 500 700 l 1,19,-1
 700 700 l 1,20,-1
 700 600 l 1,21,-1
 600 600 l 1,22,-1
 600 -200 l 1,23,-1
 500 -200 l 1,24,-1
 500 -300 l 1,25,-1
 100 -300 l 1,26,-1
 100 -200 l 1,27,-1
 0 -200 l 1,0,-1
200 900 m 1,28,-1
 200 1000 l 1,29,-1
 300 1000 l 1,30,-1
 300 1100 l 1,31,-1
 700 1100 l 1,32,-1
 700 1000 l 1,33,-1
 400 1000 l 1,34,-1
 400 900 l 1,35,-1
 500 900 l 1,36,-1
 500 800 l 1,37,-1
 300 800 l 1,38,-1
 300 900 l 1,39,-1
 200 900 l 1,28,-1
EndSplineSet
Validated: 5
EndChar

StartChar: Hcircumflex
Encoding: 292 292 261
Width: 900
GlyphClass: 2
Flags: W
LayerCount: 2
Fore
SplineSet
0 0 m 1,0,-1
 0 900 l 1,1,-1
 200 900 l 1,2,-1
 200 500 l 1,3,-1
 500 500 l 1,4,-1
 500 900 l 1,5,-1
 700 900 l 1,6,-1
 700 0 l 1,7,-1
 500 0 l 1,8,-1
 500 400 l 1,9,-1
 200 400 l 1,10,-1
 200 0 l 1,11,-1
 0 0 l 1,0,-1
100 1100 m 1,12,-1
 200 1100 l 1,13,-1
 200 1200 l 1,14,-1
 500 1200 l 1,15,-1
 500 1100 l 1,16,-1
 600 1100 l 1,17,-1
 600 1000 l 1,18,-1
 400 1000 l 1,19,-1
 400 1100 l 1,20,-1
 300 1100 l 1,21,-1
 300 1000 l 1,22,-1
 100 1000 l 1,23,-1
 100 1100 l 1,12,-1
EndSplineSet
Validated: 1
EndChar

StartChar: hcircumflex
Encoding: 293 293 262
Width: 900
GlyphClass: 2
Flags: W
LayerCount: 2
Fore
SplineSet
0 0 m 1,0,-1
 0 100 l 1,1,-1
 100 100 l 1,2,-1
 100 800 l 1,3,-1
 0 800 l 1,4,-1
 0 900 l 1,5,-1
 300 900 l 1,6,-1
 300 500 l 1,7,-1
 400 500 l 1,8,-1
 400 400 l 1,9,-1
 300 400 l 1,10,-1
 300 0 l 1,11,-1
 0 0 l 1,0,-1
200 1100 m 1,12,-1
 200 1200 l 1,13,-1
 500 1200 l 1,14,-1
 500 1100 l 1,15,-1
 600 1100 l 1,16,-1
 600 1000 l 1,17,-1
 400 1000 l 1,18,-1
 400 1100 l 1,19,-1
 300 1100 l 1,20,-1
 300 1000 l 1,21,-1
 100 1000 l 1,22,-1
 100 1100 l 1,23,-1
 200 1100 l 1,12,-1
400 500 m 1,24,-1
 400 600 l 1,25,-1
 600 600 l 1,26,-1
 600 500 l 1,27,-1
 700 500 l 1,28,-1
 700 0 l 1,29,-1
 500 0 l 1,30,-1
 500 500 l 1,31,-1
 400 500 l 1,24,-1
EndSplineSet
Validated: 5
EndChar

StartChar: Hbar
Encoding: 294 294 263
Width: 900
GlyphClass: 2
Flags: W
LayerCount: 2
Fore
SplineSet
0 700 m 1,0,-1
 0 800 l 1,1,-1
 100 800 l 1,2,-1
 100 1000 l 1,3,-1
 300 1000 l 1,4,-1
 300 800 l 1,5,-1
 500 800 l 1,6,-1
 500 1000 l 1,7,-1
 700 1000 l 1,8,-1
 700 800 l 1,9,-1
 800 800 l 1,10,-1
 800 700 l 1,11,-1
 700 700 l 1,12,-1
 700 0 l 1,13,-1
 500 0 l 1,14,-1
 500 500 l 1,15,-1
 300 500 l 1,16,-1
 300 0 l 1,17,-1
 100 0 l 1,18,-1
 100 700 l 1,19,-1
 0 700 l 1,0,-1
300 700 m 1,20,-1
 300 600 l 1,21,-1
 500 600 l 1,22,-1
 500 700 l 1,23,-1
 300 700 l 1,20,-1
EndSplineSet
Validated: 1
EndChar

StartChar: hbar
Encoding: 295 295 264
Width: 900
GlyphClass: 2
Flags: W
LayerCount: 2
Fore
SplineSet
0 0 m 1,0,-1
 0 100 l 1,1,-1
 100 100 l 1,2,-1
 100 700 l 1,3,-1
 0 700 l 1,4,-1
 0 800 l 1,5,-1
 100 800 l 1,6,-1
 100 900 l 1,7,-1
 0 900 l 1,8,-1
 0 1000 l 1,9,-1
 300 1000 l 1,10,-1
 300 800 l 1,11,-1
 500 800 l 1,12,-1
 500 700 l 1,13,-1
 300 700 l 1,14,-1
 300 500 l 1,15,-1
 400 500 l 1,16,-1
 400 400 l 1,17,-1
 300 400 l 1,18,-1
 300 0 l 1,19,-1
 0 0 l 1,0,-1
400 500 m 1,20,-1
 400 600 l 1,21,-1
 600 600 l 1,22,-1
 600 500 l 1,23,-1
 700 500 l 1,24,-1
 700 0 l 1,25,-1
 500 0 l 1,26,-1
 500 500 l 1,27,-1
 400 500 l 1,20,-1
EndSplineSet
Validated: 5
EndChar

StartChar: Itilde
Encoding: 296 296 265
Width: 900
GlyphClass: 2
Flags: W
LayerCount: 2
Fore
SplineSet
0 1000 m 1,0,-1
 0 1100 l 1,1,-1
 100 1100 l 1,2,-1
 100 1200 l 1,3,-1
 400 1200 l 1,4,-1
 400 1100 l 1,5,-1
 500 1100 l 1,6,-1
 500 1200 l 1,7,-1
 700 1200 l 1,8,-1
 700 1100 l 1,9,-1
 600 1100 l 1,10,-1
 600 1000 l 1,11,-1
 300 1000 l 1,12,-1
 300 1100 l 1,13,-1
 200 1100 l 1,14,-1
 200 1000 l 1,15,-1
 0 1000 l 1,0,-1
200 0 m 1,16,-1
 200 100 l 1,17,-1
 300 100 l 1,18,-1
 300 800 l 1,19,-1
 200 800 l 1,20,-1
 200 900 l 1,21,-1
 600 900 l 1,22,-1
 600 800 l 1,23,-1
 500 800 l 1,24,-1
 500 100 l 1,25,-1
 600 100 l 1,26,-1
 600 0 l 1,27,-1
 200 0 l 1,16,-1
EndSplineSet
Validated: 1
EndChar

StartChar: itilde
Encoding: 297 297 266
Width: 900
GlyphClass: 2
Flags: W
LayerCount: 2
Fore
SplineSet
0 800 m 1,0,-1
 0 900 l 1,1,-1
 100 900 l 1,2,-1
 100 1000 l 1,3,-1
 400 1000 l 1,4,-1
 400 900 l 1,5,-1
 500 900 l 1,6,-1
 500 1000 l 1,7,-1
 700 1000 l 1,8,-1
 700 900 l 1,9,-1
 600 900 l 1,10,-1
 600 800 l 1,11,-1
 300 800 l 1,12,-1
 300 900 l 1,13,-1
 200 900 l 1,14,-1
 200 800 l 1,15,-1
 0 800 l 1,0,-1
200 0 m 1,16,-1
 200 100 l 1,17,-1
 300 100 l 1,18,-1
 300 600 l 1,19,-1
 200 600 l 1,20,-1
 200 700 l 1,21,-1
 500 700 l 1,22,-1
 500 100 l 1,23,-1
 600 100 l 1,24,-1
 600 0 l 1,25,-1
 200 0 l 1,16,-1
EndSplineSet
Validated: 1
EndChar

StartChar: Imacron
Encoding: 298 298 267
Width: 900
GlyphClass: 2
Flags: W
LayerCount: 2
Fore
SplineSet
100 1100 m 1,0,-1
 100 1200 l 1,1,-1
 700 1200 l 1,2,-1
 700 1100 l 1,3,-1
 100 1100 l 1,0,-1
200 0 m 1,4,-1
 200 100 l 1,5,-1
 300 100 l 1,6,-1
 300 900 l 1,7,-1
 200 900 l 1,8,-1
 200 1000 l 1,9,-1
 600 1000 l 1,10,-1
 600 900 l 1,11,-1
 500 900 l 1,12,-1
 500 100 l 1,13,-1
 600 100 l 1,14,-1
 600 0 l 1,15,-1
 200 0 l 1,4,-1
EndSplineSet
Validated: 1
EndChar

StartChar: imacron
Encoding: 299 299 268
Width: 900
GlyphClass: 2
Flags: W
LayerCount: 2
Fore
SplineSet
100 900 m 1,0,-1
 100 1000 l 1,1,-1
 600 1000 l 1,2,-1
 600 900 l 1,3,-1
 100 900 l 1,0,-1
200 0 m 1,4,-1
 200 100 l 1,5,-1
 300 100 l 1,6,-1
 300 600 l 1,7,-1
 200 600 l 1,8,-1
 200 700 l 1,9,-1
 500 700 l 1,10,-1
 500 100 l 1,11,-1
 600 100 l 1,12,-1
 600 0 l 1,13,-1
 200 0 l 1,4,-1
EndSplineSet
Validated: 1
EndChar

StartChar: Ibreve
Encoding: 300 300 269
Width: 900
GlyphClass: 2
Flags: W
LayerCount: 2
Fore
SplineSet
100 1100 m 1,0,-1
 100 1200 l 1,1,-1
 300 1200 l 1,2,-1
 300 1100 l 1,3,-1
 500 1100 l 1,4,-1
 500 1200 l 1,5,-1
 700 1200 l 1,6,-1
 700 1100 l 1,7,-1
 600 1100 l 1,8,-1
 600 1000 l 1,9,-1
 200 1000 l 1,10,-1
 200 1100 l 1,11,-1
 100 1100 l 1,0,-1
200 0 m 1,12,-1
 200 100 l 1,13,-1
 300 100 l 1,14,-1
 300 800 l 1,15,-1
 200 800 l 1,16,-1
 200 900 l 1,17,-1
 600 900 l 1,18,-1
 600 800 l 1,19,-1
 500 800 l 1,20,-1
 500 100 l 1,21,-1
 600 100 l 1,22,-1
 600 0 l 1,23,-1
 200 0 l 1,12,-1
EndSplineSet
Validated: 1
EndChar

StartChar: ibreve
Encoding: 301 301 270
Width: 900
GlyphClass: 2
Flags: W
LayerCount: 2
Fore
SplineSet
100 900 m 1,0,-1
 100 1000 l 1,1,-1
 300 1000 l 1,2,-1
 300 900 l 1,3,-1
 500 900 l 1,4,-1
 500 1000 l 1,5,-1
 700 1000 l 1,6,-1
 700 900 l 1,7,-1
 600 900 l 1,8,-1
 600 800 l 1,9,-1
 200 800 l 1,10,-1
 200 900 l 1,11,-1
 100 900 l 1,0,-1
200 0 m 1,12,-1
 200 100 l 1,13,-1
 300 100 l 1,14,-1
 300 600 l 1,15,-1
 200 600 l 1,16,-1
 200 700 l 1,17,-1
 500 700 l 1,18,-1
 500 100 l 1,19,-1
 600 100 l 1,20,-1
 600 0 l 1,21,-1
 200 0 l 1,12,-1
EndSplineSet
Validated: 1
EndChar

StartChar: Iogonek
Encoding: 302 302 271
Width: 900
GlyphClass: 2
Flags: W
LayerCount: 2
Fore
SplineSet
200 0 m 1,0,-1
 200 100 l 1,1,-1
 300 100 l 1,2,-1
 300 900 l 1,3,-1
 200 900 l 1,4,-1
 200 1000 l 1,5,-1
 600 1000 l 1,6,-1
 600 900 l 1,7,-1
 500 900 l 1,8,-1
 500 100 l 1,9,-1
 600 100 l 1,10,-1
 600 0 l 1,11,-1
 500 0 l 1,12,-1
 500 -100 l 1,13,-1
 400 -100 l 1,14,-1
 400 -200 l 1,15,-1
 700 -200 l 1,16,-1
 700 -300 l 1,17,-1
 300 -300 l 1,18,-1
 300 -200 l 1,19,-1
 200 -200 l 1,20,-1
 200 -100 l 1,21,-1
 300 -100 l 1,22,-1
 300 0 l 1,23,-1
 200 0 l 1,0,-1
EndSplineSet
Validated: 1
EndChar

StartChar: iogonek
Encoding: 303 303 272
Width: 900
GlyphClass: 2
Flags: W
LayerCount: 2
Fore
SplineSet
200 0 m 1,0,-1
 200 100 l 1,1,-1
 300 100 l 1,2,-1
 300 600 l 1,3,-1
 200 600 l 1,4,-1
 200 700 l 1,5,-1
 500 700 l 1,6,-1
 500 100 l 1,7,-1
 600 100 l 1,8,-1
 600 0 l 1,9,-1
 500 0 l 1,10,-1
 500 -100 l 1,11,-1
 400 -100 l 1,12,-1
 400 -200 l 1,13,-1
 700 -200 l 1,14,-1
 700 -300 l 1,15,-1
 300 -300 l 1,16,-1
 300 -200 l 1,17,-1
 200 -200 l 1,18,-1
 200 -100 l 1,19,-1
 300 -100 l 1,20,-1
 300 0 l 1,21,-1
 200 0 l 1,0,-1
300 1000 m 1,22,-1
 500 1000 l 1,23,-1
 500 800 l 1,24,-1
 300 800 l 1,25,-1
 300 1000 l 1,22,-1
EndSplineSet
Validated: 1
EndChar

StartChar: Idotaccent
Encoding: 304 304 273
Width: 900
GlyphClass: 2
Flags: W
LayerCount: 2
Fore
SplineSet
200 0 m 1,0,-1
 200 100 l 1,1,-1
 300 100 l 1,2,-1
 300 800 l 1,3,-1
 200 800 l 1,4,-1
 200 900 l 1,5,-1
 600 900 l 1,6,-1
 600 800 l 1,7,-1
 500 800 l 1,8,-1
 500 100 l 1,9,-1
 600 100 l 1,10,-1
 600 0 l 1,11,-1
 200 0 l 1,0,-1
300 1200 m 1,12,-1
 500 1200 l 1,13,-1
 500 1000 l 1,14,-1
 300 1000 l 1,15,-1
 300 1200 l 1,12,-1
EndSplineSet
Validated: 1
EndChar

StartChar: dotlessi
Encoding: 305 305 274
Width: 900
GlyphClass: 2
Flags: W
LayerCount: 2
Fore
SplineSet
500 100 m 1,0,-1
 600 100 l 1,1,-1
 600 0 l 1,2,-1
 200 0 l 1,3,-1
 200 100 l 1,4,-1
 300 100 l 1,5,-1
 300 600 l 1,6,-1
 200 600 l 1,7,-1
 200 700 l 1,8,-1
 500 700 l 1,9,-1
 500 100 l 1,0,-1
EndSplineSet
Validated: 1
EndChar

StartChar: IJ
Encoding: 306 306 275
Width: 900
GlyphClass: 2
Flags: W
LayerCount: 2
Fore
SplineSet
0 0 m 1,0,-1
 0 1000 l 1,1,-1
 200 1000 l 1,2,-1
 200 0 l 1,3,-1
 0 0 l 1,0,-1
800 100 m 1,4,-1
 700 100 l 1,5,-1
 700 0 l 1,6,-1
 400 0 l 1,7,-1
 400 100 l 1,8,-1
 300 100 l 1,9,-1
 300 400 l 1,10,-1
 500 400 l 1,11,-1
 500 100 l 1,12,-1
 600 100 l 1,13,-1
 600 900 l 1,14,-1
 500 900 l 1,15,-1
 500 1000 l 1,16,-1
 800 1000 l 1,17,-1
 800 100 l 1,4,-1
EndSplineSet
Validated: 1
EndChar

StartChar: ij
Encoding: 307 307 276
Width: 900
GlyphClass: 2
Flags: W
LayerCount: 2
Fore
SplineSet
0 0 m 1,0,-1
 0 700 l 1,1,-1
 200 700 l 1,2,-1
 200 0 l 1,3,-1
 0 0 l 1,0,-1
0 1000 m 1,4,-1
 200 1000 l 1,5,-1
 200 800 l 1,6,-1
 0 800 l 1,7,-1
 0 1000 l 1,4,-1
400 -200 m 1,8,-1
 300 -200 l 1,9,-1
 300 0 l 1,10,-1
 500 0 l 1,11,-1
 500 -200 l 1,12,-1
 600 -200 l 1,13,-1
 600 600 l 1,14,-1
 500 600 l 1,15,-1
 500 700 l 1,16,-1
 800 700 l 1,17,-1
 800 -200 l 1,18,-1
 700 -200 l 1,19,-1
 700 -300 l 1,20,-1
 400 -300 l 1,21,-1
 400 -200 l 1,8,-1
600 1000 m 1,22,-1
 800 1000 l 1,23,-1
 800 800 l 1,24,-1
 600 800 l 1,25,-1
 600 1000 l 1,22,-1
EndSplineSet
Validated: 1
EndChar

StartChar: Jcircumflex
Encoding: 308 308 277
Width: 900
GlyphClass: 2
Flags: W
LayerCount: 2
Fore
SplineSet
0 100 m 1,0,-1
 0 300 l 1,1,-1
 200 300 l 1,2,-1
 200 100 l 1,3,-1
 400 100 l 1,4,-1
 400 800 l 1,5,-1
 300 800 l 1,6,-1
 300 900 l 1,7,-1
 700 900 l 1,8,-1
 700 800 l 1,9,-1
 600 800 l 1,10,-1
 600 100 l 1,11,-1
 500 100 l 1,12,-1
 500 0 l 1,13,-1
 100 0 l 1,14,-1
 100 100 l 1,15,-1
 0 100 l 1,0,-1
200 1000 m 1,16,-1
 200 1100 l 1,17,-1
 300 1100 l 1,18,-1
 300 1200 l 1,19,-1
 600 1200 l 1,20,-1
 600 1100 l 1,21,-1
 700 1100 l 1,22,-1
 700 1000 l 1,23,-1
 500 1000 l 1,24,-1
 500 1100 l 1,25,-1
 400 1100 l 1,26,-1
 400 1000 l 1,27,-1
 200 1000 l 1,16,-1
EndSplineSet
Validated: 1
EndChar

StartChar: jcircumflex
Encoding: 309 309 278
Width: 900
GlyphClass: 2
Flags: W
LayerCount: 2
Fore
SplineSet
0 0 m 1,0,-1
 200 0 l 1,1,-1
 200 -200 l 1,2,-1
 400 -200 l 1,3,-1
 400 600 l 1,4,-1
 300 600 l 1,5,-1
 300 700 l 1,6,-1
 600 700 l 1,7,-1
 600 -200 l 1,8,-1
 500 -200 l 1,9,-1
 500 -300 l 1,10,-1
 100 -300 l 1,11,-1
 100 -200 l 1,12,-1
 0 -200 l 1,13,-1
 0 0 l 1,0,-1
200 800 m 1,14,-1
 200 900 l 1,15,-1
 300 900 l 1,16,-1
 300 1000 l 1,17,-1
 400 1000 l 1,18,-1
 400 1100 l 1,19,-1
 500 1100 l 1,20,-1
 500 1000 l 1,21,-1
 600 1000 l 1,22,-1
 600 900 l 1,23,-1
 700 900 l 1,24,-1
 700 800 l 1,25,-1
 500 800 l 1,26,-1
 500 900 l 1,27,-1
 400 900 l 1,28,-1
 400 800 l 1,29,-1
 200 800 l 1,14,-1
EndSplineSet
Validated: 1
EndChar

StartChar: uni0136
Encoding: 310 310 279
Width: 900
GlyphClass: 2
Flags: W
LayerCount: 2
Fore
SplineSet
0 0 m 1,0,-1
 0 100 l 1,1,-1
 100 100 l 1,2,-1
 100 900 l 1,3,-1
 0 900 l 1,4,-1
 0 1000 l 1,5,-1
 300 1000 l 1,6,-1
 300 600 l 1,7,-1
 400 600 l 1,8,-1
 400 700 l 1,9,-1
 500 700 l 1,10,-1
 500 1000 l 1,11,-1
 700 1000 l 1,12,-1
 700 700 l 1,13,-1
 600 700 l 1,14,-1
 600 600 l 1,15,-1
 500 600 l 1,16,-1
 500 400 l 1,17,-1
 600 400 l 1,18,-1
 600 300 l 1,19,-1
 700 300 l 1,20,-1
 700 0 l 1,21,-1
 500 0 l 1,22,-1
 500 300 l 1,23,-1
 400 300 l 1,24,-1
 400 400 l 1,25,-1
 300 400 l 1,26,-1
 300 0 l 1,27,-1
 0 0 l 1,0,-1
400 -100 m 1,28,-1
 300 -100 l 1,29,-1
 300 0 l 1,30,-1
 500 0 l 1,31,-1
 500 -100 l 1,32,-1
 600 -100 l 1,33,-1
 600 -200 l 1,34,-1
 500 -200 l 1,35,-1
 500 -300 l 1,36,-1
 100 -300 l 1,37,-1
 100 -200 l 1,38,-1
 400 -200 l 1,39,-1
 400 -100 l 1,28,-1
EndSplineSet
Validated: 5
EndChar

StartChar: uni0137
Encoding: 311 311 280
Width: 900
GlyphClass: 2
Flags: W
LayerCount: 2
Fore
SplineSet
0 0 m 1,0,-1
 0 100 l 1,1,-1
 100 100 l 1,2,-1
 100 900 l 1,3,-1
 0 900 l 1,4,-1
 0 1000 l 1,5,-1
 300 1000 l 1,6,-1
 300 500 l 1,7,-1
 400 500 l 1,8,-1
 400 600 l 1,9,-1
 500 600 l 1,10,-1
 500 700 l 1,11,-1
 700 700 l 1,12,-1
 700 600 l 1,13,-1
 600 600 l 1,14,-1
 600 500 l 1,15,-1
 500 500 l 1,16,-1
 500 300 l 1,17,-1
 600 300 l 1,18,-1
 600 200 l 1,19,-1
 700 200 l 1,20,-1
 700 0 l 1,21,-1
 500 0 l 1,22,-1
 500 200 l 1,23,-1
 400 200 l 1,24,-1
 400 300 l 1,25,-1
 300 300 l 1,26,-1
 300 0 l 1,27,-1
 0 0 l 1,0,-1
400 -100 m 1,28,-1
 300 -100 l 1,29,-1
 300 0 l 1,30,-1
 500 0 l 1,31,-1
 500 -100 l 1,32,-1
 600 -100 l 1,33,-1
 600 -200 l 1,34,-1
 500 -200 l 1,35,-1
 500 -300 l 1,36,-1
 100 -300 l 1,37,-1
 100 -200 l 1,38,-1
 400 -200 l 1,39,-1
 400 -100 l 1,28,-1
EndSplineSet
Validated: 5
EndChar

StartChar: kgreenlandic
Encoding: 312 312 281
Width: 900
GlyphClass: 2
Flags: W
LayerCount: 2
Fore
SplineSet
0 0 m 1,0,-1
 0 100 l 1,1,-1
 100 100 l 1,2,-1
 100 600 l 1,3,-1
 0 600 l 1,4,-1
 0 700 l 1,5,-1
 300 700 l 1,6,-1
 300 400 l 1,7,-1
 400 400 l 1,8,-1
 400 500 l 1,9,-1
 500 500 l 1,10,-1
 500 700 l 1,11,-1
 700 700 l 1,12,-1
 700 500 l 1,13,-1
 600 500 l 1,14,-1
 600 400 l 1,15,-1
 500 400 l 1,16,-1
 500 300 l 1,17,-1
 600 300 l 1,18,-1
 600 200 l 1,19,-1
 700 200 l 1,20,-1
 700 0 l 1,21,-1
 500 0 l 1,22,-1
 500 200 l 1,23,-1
 400 200 l 1,24,-1
 400 300 l 1,25,-1
 300 300 l 1,26,-1
 300 0 l 1,27,-1
 0 0 l 1,0,-1
EndSplineSet
Validated: 1
EndChar

StartChar: Lacute
Encoding: 313 313 282
Width: 900
GlyphClass: 2
Flags: W
LayerCount: 2
Fore
SplineSet
0 0 m 1,0,-1
 0 100 l 1,1,-1
 100 100 l 1,2,-1
 100 900 l 1,3,-1
 0 900 l 1,4,-1
 0 1000 l 1,5,-1
 400 1000 l 1,6,-1
 400 900 l 1,7,-1
 300 900 l 1,8,-1
 300 100 l 1,9,-1
 500 100 l 1,10,-1
 500 200 l 1,11,-1
 600 200 l 1,12,-1
 600 300 l 1,13,-1
 700 300 l 1,14,-1
 700 0 l 1,15,-1
 0 0 l 1,0,-1
400 900 m 1,16,-1
 500 900 l 1,17,-1
 500 1000 l 1,18,-1
 700 1000 l 1,19,-1
 700 900 l 1,20,-1
 600 900 l 1,21,-1
 600 800 l 1,22,-1
 400 800 l 1,23,-1
 400 900 l 1,16,-1
EndSplineSet
Validated: 5
EndChar

StartChar: lacute
Encoding: 314 314 283
Width: 900
GlyphClass: 2
Flags: W
LayerCount: 2
Fore
SplineSet
0 0 m 1,0,-1
 0 100 l 1,1,-1
 100 100 l 1,2,-1
 100 900 l 1,3,-1
 0 900 l 1,4,-1
 0 1000 l 1,5,-1
 300 1000 l 1,6,-1
 300 100 l 1,7,-1
 400 100 l 1,8,-1
 400 0 l 1,9,-1
 0 0 l 1,0,-1
400 800 m 1,10,-1
 400 900 l 1,11,-1
 500 900 l 1,12,-1
 500 1000 l 1,13,-1
 700 1000 l 1,14,-1
 700 900 l 1,15,-1
 600 900 l 1,16,-1
 600 800 l 1,17,-1
 400 800 l 1,10,-1
EndSplineSet
Validated: 1
EndChar

StartChar: uni013B
Encoding: 315 315 284
Width: 900
GlyphClass: 2
Flags: W
LayerCount: 2
Fore
SplineSet
0 0 m 1,0,-1
 0 100 l 1,1,-1
 100 100 l 1,2,-1
 100 900 l 1,3,-1
 0 900 l 1,4,-1
 0 1000 l 1,5,-1
 400 1000 l 1,6,-1
 400 900 l 1,7,-1
 300 900 l 1,8,-1
 300 100 l 1,9,-1
 500 100 l 1,10,-1
 500 200 l 1,11,-1
 600 200 l 1,12,-1
 600 300 l 1,13,-1
 700 300 l 1,14,-1
 700 0 l 1,15,-1
 500 0 l 1,16,-1
 500 -100 l 1,17,-1
 600 -100 l 1,18,-1
 600 -200 l 1,19,-1
 500 -200 l 1,20,-1
 500 -300 l 1,21,-1
 100 -300 l 1,22,-1
 100 -200 l 1,23,-1
 400 -200 l 1,24,-1
 400 -100 l 1,25,-1
 300 -100 l 1,26,-1
 300 0 l 1,27,-1
 0 0 l 1,0,-1
EndSplineSet
Validated: 1
EndChar

StartChar: uni013C
Encoding: 316 316 285
Width: 900
GlyphClass: 2
Flags: W
LayerCount: 2
Fore
SplineSet
100 -200 m 1,0,-1
 400 -200 l 1,1,-1
 400 -100 l 1,2,-1
 300 -100 l 1,3,-1
 300 0 l 1,4,-1
 200 0 l 1,5,-1
 200 100 l 1,6,-1
 300 100 l 1,7,-1
 300 900 l 1,8,-1
 200 900 l 1,9,-1
 200 1000 l 1,10,-1
 500 1000 l 1,11,-1
 500 100 l 1,12,-1
 600 100 l 1,13,-1
 600 0 l 1,14,-1
 500 0 l 1,15,-1
 500 -100 l 1,16,-1
 600 -100 l 1,17,-1
 600 -200 l 1,18,-1
 500 -200 l 1,19,-1
 500 -300 l 1,20,-1
 100 -300 l 1,21,-1
 100 -200 l 1,0,-1
EndSplineSet
Validated: 1
EndChar

StartChar: Lcaron
Encoding: 317 317 286
Width: 900
GlyphClass: 2
Flags: W
LayerCount: 2
Fore
SplineSet
0 0 m 1,0,-1
 0 100 l 1,1,-1
 100 100 l 1,2,-1
 100 900 l 1,3,-1
 0 900 l 1,4,-1
 0 1000 l 1,5,-1
 400 1000 l 1,6,-1
 400 900 l 1,7,-1
 300 900 l 1,8,-1
 300 100 l 1,9,-1
 500 100 l 1,10,-1
 500 200 l 1,11,-1
 600 200 l 1,12,-1
 600 300 l 1,13,-1
 700 300 l 1,14,-1
 700 0 l 1,15,-1
 0 0 l 1,0,-1
500 1100 m 1,16,-1
 700 1100 l 1,17,-1
 700 900 l 1,18,-1
 600 900 l 1,19,-1
 600 800 l 1,20,-1
 400 800 l 1,21,-1
 400 900 l 1,22,-1
 500 900 l 1,23,-1
 500 1100 l 1,16,-1
EndSplineSet
Validated: 5
EndChar

StartChar: lcaron
Encoding: 318 318 287
Width: 900
GlyphClass: 2
Flags: W
LayerCount: 2
Fore
SplineSet
0 0 m 1,0,-1
 0 100 l 1,1,-1
 100 100 l 1,2,-1
 100 900 l 1,3,-1
 0 900 l 1,4,-1
 0 1000 l 1,5,-1
 300 1000 l 1,6,-1
 300 100 l 1,7,-1
 400 100 l 1,8,-1
 400 0 l 1,9,-1
 0 0 l 1,0,-1
500 1100 m 1,10,-1
 700 1100 l 1,11,-1
 700 900 l 1,12,-1
 600 900 l 1,13,-1
 600 800 l 1,14,-1
 400 800 l 1,15,-1
 400 900 l 1,16,-1
 500 900 l 1,17,-1
 500 1100 l 1,10,-1
EndSplineSet
Validated: 1
EndChar

StartChar: Ldot
Encoding: 319 319 288
Width: 900
GlyphClass: 2
Flags: W
LayerCount: 2
Fore
SplineSet
0 0 m 1,0,-1
 0 100 l 1,1,-1
 100 100 l 1,2,-1
 100 900 l 1,3,-1
 0 900 l 1,4,-1
 0 1000 l 1,5,-1
 400 1000 l 1,6,-1
 400 900 l 1,7,-1
 300 900 l 1,8,-1
 300 100 l 1,9,-1
 500 100 l 1,10,-1
 500 200 l 1,11,-1
 600 200 l 1,12,-1
 600 300 l 1,13,-1
 700 300 l 1,14,-1
 700 0 l 1,15,-1
 0 0 l 1,0,-1
500 500 m 1,16,-1
 500 700 l 1,17,-1
 700 700 l 1,18,-1
 700 500 l 1,19,-1
 500 500 l 1,16,-1
EndSplineSet
Validated: 1
EndChar

StartChar: ldot
Encoding: 320 320 289
Width: 900
GlyphClass: 2
Flags: W
LayerCount: 2
Fore
SplineSet
100 0 m 1,0,-1
 100 100 l 1,1,-1
 200 100 l 1,2,-1
 200 900 l 1,3,-1
 100 900 l 1,4,-1
 100 1000 l 1,5,-1
 400 1000 l 1,6,-1
 400 100 l 1,7,-1
 500 100 l 1,8,-1
 500 0 l 1,9,-1
 100 0 l 1,0,-1
500 400 m 1,10,-1
 500 600 l 1,11,-1
 700 600 l 1,12,-1
 700 400 l 1,13,-1
 500 400 l 1,10,-1
EndSplineSet
Validated: 1
EndChar

StartChar: Lslash
Encoding: 321 321 290
Width: 900
GlyphClass: 2
Flags: W
LayerCount: 2
Fore
SplineSet
0 0 m 1,0,-1
 0 100 l 1,1,-1
 100 100 l 1,2,-1
 100 300 l 1,3,-1
 0 300 l 1,4,-1
 0 500 l 1,5,-1
 100 500 l 1,6,-1
 100 900 l 1,7,-1
 0 900 l 1,8,-1
 0 1000 l 1,9,-1
 400 1000 l 1,10,-1
 400 900 l 1,11,-1
 300 900 l 1,12,-1
 300 700 l 1,13,-1
 400 700 l 1,14,-1
 400 800 l 1,15,-1
 500 800 l 1,16,-1
 500 900 l 1,17,-1
 600 900 l 1,18,-1
 600 700 l 1,19,-1
 500 700 l 1,20,-1
 500 600 l 1,21,-1
 400 600 l 1,22,-1
 400 500 l 1,23,-1
 300 500 l 1,24,-1
 300 100 l 1,25,-1
 500 100 l 1,26,-1
 500 200 l 1,27,-1
 600 200 l 1,28,-1
 600 300 l 1,29,-1
 700 300 l 1,30,-1
 700 0 l 1,31,-1
 0 0 l 1,0,-1
EndSplineSet
Validated: 1
EndChar

StartChar: lslash
Encoding: 322 322 291
Width: 900
GlyphClass: 2
Flags: W
LayerCount: 2
Fore
SplineSet
200 200 m 1,0,-1
 100 200 l 1,1,-1
 100 400 l 1,2,-1
 200 400 l 1,3,-1
 200 500 l 1,4,-1
 300 500 l 1,5,-1
 300 900 l 1,6,-1
 200 900 l 1,7,-1
 200 1000 l 1,8,-1
 500 1000 l 1,9,-1
 500 800 l 1,10,-1
 600 800 l 1,11,-1
 600 900 l 1,12,-1
 700 900 l 1,13,-1
 700 700 l 1,14,-1
 600 700 l 1,15,-1
 600 600 l 1,16,-1
 500 600 l 1,17,-1
 500 100 l 1,18,-1
 600 100 l 1,19,-1
 600 0 l 1,20,-1
 200 0 l 1,21,-1
 200 100 l 1,22,-1
 300 100 l 1,23,-1
 300 300 l 1,24,-1
 200 300 l 1,25,-1
 200 200 l 1,0,-1
EndSplineSet
Validated: 1
EndChar

StartChar: Nacute
Encoding: 323 323 292
Width: 900
GlyphClass: 2
Flags: W
LayerCount: 2
Fore
SplineSet
0 0 m 1,0,-1
 0 900 l 1,1,-1
 200 900 l 1,2,-1
 200 800 l 1,3,-1
 300 800 l 1,4,-1
 300 700 l 1,5,-1
 400 700 l 1,6,-1
 400 600 l 1,7,-1
 500 600 l 1,8,-1
 500 900 l 1,9,-1
 700 900 l 1,10,-1
 700 0 l 1,11,-1
 500 0 l 1,12,-1
 500 300 l 1,13,-1
 400 300 l 1,14,-1
 400 400 l 1,15,-1
 300 400 l 1,16,-1
 300 500 l 1,17,-1
 200 500 l 1,18,-1
 200 0 l 1,19,-1
 0 0 l 1,0,-1
400 1100 m 1,20,-1
 400 1200 l 1,21,-1
 600 1200 l 1,22,-1
 600 1100 l 1,23,-1
 500 1100 l 1,24,-1
 500 1000 l 1,25,-1
 300 1000 l 1,26,-1
 300 1100 l 1,27,-1
 400 1100 l 1,20,-1
EndSplineSet
Validated: 1
EndChar

StartChar: nacute
Encoding: 324 324 293
Width: 900
GlyphClass: 2
Flags: W
LayerCount: 2
Fore
SplineSet
0 600 m 1,0,-1
 0 700 l 1,1,-1
 200 700 l 1,2,-1
 200 600 l 1,3,-1
 300 600 l 1,4,-1
 300 0 l 1,5,-1
 100 0 l 1,6,-1
 100 600 l 1,7,-1
 0 600 l 1,0,-1
200 800 m 1,8,-1
 200 900 l 1,9,-1
 300 900 l 1,10,-1
 300 1000 l 1,11,-1
 400 1000 l 1,12,-1
 400 1100 l 1,13,-1
 600 1100 l 1,14,-1
 600 1000 l 1,15,-1
 500 1000 l 1,16,-1
 500 900 l 1,17,-1
 400 900 l 1,18,-1
 400 800 l 1,19,-1
 200 800 l 1,8,-1
600 700 m 1,20,-1
 600 600 l 1,21,-1
 700 600 l 1,22,-1
 700 0 l 1,23,-1
 500 0 l 1,24,-1
 500 600 l 1,25,-1
 300 600 l 1,26,-1
 300 700 l 1,27,-1
 600 700 l 1,20,-1
EndSplineSet
Validated: 5
EndChar

StartChar: uni0145
Encoding: 325 325 294
Width: 900
GlyphClass: 2
Flags: W
LayerCount: 2
Fore
SplineSet
0 0 m 1,0,-1
 0 1000 l 1,1,-1
 200 1000 l 1,2,-1
 200 900 l 1,3,-1
 300 900 l 1,4,-1
 300 800 l 1,5,-1
 400 800 l 1,6,-1
 400 700 l 1,7,-1
 500 700 l 1,8,-1
 500 1000 l 1,9,-1
 700 1000 l 1,10,-1
 700 0 l 1,11,-1
 500 0 l 1,12,-1
 500 400 l 1,13,-1
 400 400 l 1,14,-1
 400 500 l 1,15,-1
 300 500 l 1,16,-1
 300 600 l 1,17,-1
 200 600 l 1,18,-1
 200 0 l 1,19,-1
 0 0 l 1,0,-1
400 -100 m 1,20,-1
 300 -100 l 1,21,-1
 300 0 l 1,22,-1
 500 0 l 1,23,-1
 500 -100 l 1,24,-1
 600 -100 l 1,25,-1
 600 -200 l 1,26,-1
 500 -200 l 1,27,-1
 500 -300 l 1,28,-1
 100 -300 l 1,29,-1
 100 -200 l 1,30,-1
 400 -200 l 1,31,-1
 400 -100 l 1,20,-1
EndSplineSet
Validated: 5
EndChar

StartChar: uni0146
Encoding: 326 326 295
Width: 900
GlyphClass: 2
Flags: W
LayerCount: 2
Fore
SplineSet
0 600 m 1,0,-1
 0 700 l 1,1,-1
 200 700 l 1,2,-1
 200 600 l 1,3,-1
 300 600 l 1,4,-1
 300 0 l 1,5,-1
 100 0 l 1,6,-1
 100 600 l 1,7,-1
 0 600 l 1,0,-1
400 -100 m 1,8,-1
 300 -100 l 1,9,-1
 300 0 l 1,10,-1
 500 0 l 1,11,-1
 500 -100 l 1,12,-1
 600 -100 l 1,13,-1
 600 -200 l 1,14,-1
 500 -200 l 1,15,-1
 500 -300 l 1,16,-1
 100 -300 l 1,17,-1
 100 -200 l 1,18,-1
 400 -200 l 1,19,-1
 400 -100 l 1,8,-1
600 700 m 1,20,-1
 600 600 l 1,21,-1
 700 600 l 1,22,-1
 700 0 l 1,23,-1
 500 0 l 1,24,-1
 500 600 l 1,25,-1
 300 600 l 1,26,-1
 300 700 l 1,27,-1
 600 700 l 1,20,-1
EndSplineSet
Validated: 5
EndChar

StartChar: Ncaron
Encoding: 327 327 296
Width: 900
GlyphClass: 2
Flags: W
LayerCount: 2
Fore
SplineSet
0 0 m 1,0,-1
 0 900 l 1,1,-1
 200 900 l 1,2,-1
 200 800 l 1,3,-1
 300 800 l 1,4,-1
 300 700 l 1,5,-1
 400 700 l 1,6,-1
 400 600 l 1,7,-1
 500 600 l 1,8,-1
 500 900 l 1,9,-1
 700 900 l 1,10,-1
 700 0 l 1,11,-1
 500 0 l 1,12,-1
 500 300 l 1,13,-1
 400 300 l 1,14,-1
 400 400 l 1,15,-1
 300 400 l 1,16,-1
 300 500 l 1,17,-1
 200 500 l 1,18,-1
 200 0 l 1,19,-1
 0 0 l 1,0,-1
200 1000 m 1,20,-1
 200 1100 l 1,21,-1
 100 1100 l 1,22,-1
 100 1200 l 1,23,-1
 300 1200 l 1,24,-1
 300 1100 l 1,25,-1
 400 1100 l 1,26,-1
 400 1200 l 1,27,-1
 600 1200 l 1,28,-1
 600 1100 l 1,29,-1
 500 1100 l 1,30,-1
 500 1000 l 1,31,-1
 200 1000 l 1,20,-1
EndSplineSet
Validated: 1
EndChar

StartChar: ncaron
Encoding: 328 328 297
Width: 900
GlyphClass: 2
Flags: W
LayerCount: 2
Fore
SplineSet
0 600 m 1,0,-1
 0 700 l 1,1,-1
 200 700 l 1,2,-1
 200 600 l 1,3,-1
 300 600 l 1,4,-1
 300 0 l 1,5,-1
 100 0 l 1,6,-1
 100 600 l 1,7,-1
 0 600 l 1,0,-1
200 900 m 1,8,-1
 100 900 l 1,9,-1
 100 1000 l 1,10,-1
 300 1000 l 1,11,-1
 300 900 l 1,12,-1
 400 900 l 1,13,-1
 400 1000 l 1,14,-1
 600 1000 l 1,15,-1
 600 900 l 1,16,-1
 500 900 l 1,17,-1
 500 800 l 1,18,-1
 200 800 l 1,19,-1
 200 900 l 1,8,-1
600 700 m 1,20,-1
 600 600 l 1,21,-1
 700 600 l 1,22,-1
 700 0 l 1,23,-1
 500 0 l 1,24,-1
 500 600 l 1,25,-1
 300 600 l 1,26,-1
 300 700 l 1,27,-1
 600 700 l 1,20,-1
EndSplineSet
Validated: 5
EndChar

StartChar: napostrophe
Encoding: 329 329 298
Width: 900
GlyphClass: 2
Flags: W
LayerCount: 2
Fore
SplineSet
100 1200 m 1,0,-1
 300 1200 l 1,1,-1
 300 900 l 1,2,-1
 200 900 l 1,3,-1
 200 800 l 1,4,-1
 0 800 l 1,5,-1
 0 900 l 1,6,-1
 100 900 l 1,7,-1
 100 1200 l 1,0,-1
0 600 m 1,8,-1
 0 700 l 1,9,-1
 200 700 l 1,10,-1
 200 600 l 1,11,-1
 300 600 l 1,12,-1
 300 0 l 1,13,-1
 100 0 l 1,14,-1
 100 600 l 1,15,-1
 0 600 l 1,8,-1
300 600 m 1,16,-1
 300 700 l 1,17,-1
 600 700 l 1,18,-1
 600 600 l 1,19,-1
 700 600 l 1,20,-1
 700 0 l 1,21,-1
 500 0 l 1,22,-1
 500 600 l 1,23,-1
 300 600 l 1,16,-1
EndSplineSet
Validated: 5
EndChar

StartChar: Eng
Encoding: 330 330 299
Width: 900
GlyphClass: 2
Flags: W
LayerCount: 2
Fore
SplineSet
0 0 m 1,0,-1
 0 1000 l 1,1,-1
 200 1000 l 1,2,-1
 200 900 l 1,3,-1
 300 900 l 1,4,-1
 300 800 l 1,5,-1
 400 800 l 1,6,-1
 400 700 l 1,7,-1
 500 700 l 1,8,-1
 500 1000 l 1,9,-1
 700 1000 l 1,10,-1
 700 -200 l 1,11,-1
 600 -200 l 1,12,-1
 600 -300 l 1,13,-1
 300 -300 l 1,14,-1
 300 -200 l 1,15,-1
 500 -200 l 1,16,-1
 500 400 l 1,17,-1
 400 400 l 1,18,-1
 400 500 l 1,19,-1
 300 500 l 1,20,-1
 300 600 l 1,21,-1
 200 600 l 1,22,-1
 200 0 l 1,23,-1
 0 0 l 1,0,-1
EndSplineSet
Validated: 1
EndChar

StartChar: eng
Encoding: 331 331 300
Width: 900
GlyphClass: 2
Flags: W
LayerCount: 2
Fore
SplineSet
0 600 m 1,0,-1
 0 700 l 1,1,-1
 200 700 l 1,2,-1
 200 600 l 1,3,-1
 300 600 l 1,4,-1
 300 0 l 1,5,-1
 100 0 l 1,6,-1
 100 600 l 1,7,-1
 0 600 l 1,0,-1
300 -200 m 1,8,-1
 500 -200 l 1,9,-1
 500 600 l 1,10,-1
 300 600 l 1,11,-1
 300 700 l 1,12,-1
 600 700 l 1,13,-1
 600 600 l 1,14,-1
 700 600 l 1,15,-1
 700 -200 l 1,16,-1
 600 -200 l 1,17,-1
 600 -300 l 1,18,-1
 300 -300 l 1,19,-1
 300 -200 l 1,8,-1
EndSplineSet
Validated: 5
EndChar

StartChar: Omacron
Encoding: 332 332 301
Width: 900
GlyphClass: 2
Flags: W
LayerCount: 2
Fore
SplineSet
0 100 m 1,0,-1
 0 900 l 1,1,-1
 100 900 l 1,2,-1
 100 1000 l 1,3,-1
 600 1000 l 1,4,-1
 600 900 l 1,5,-1
 700 900 l 1,6,-1
 700 100 l 1,7,-1
 600 100 l 1,8,-1
 600 0 l 1,9,-1
 100 0 l 1,10,-1
 100 100 l 1,11,-1
 0 100 l 1,0,-1
100 1100 m 1,12,-1
 100 1200 l 1,13,-1
 600 1200 l 1,14,-1
 600 1100 l 1,15,-1
 100 1100 l 1,12,-1
200 100 m 1,16,-1
 500 100 l 1,17,-1
 500 900 l 1,18,-1
 200 900 l 1,19,-1
 200 100 l 1,16,-1
EndSplineSet
Validated: 1
EndChar

StartChar: omacron
Encoding: 333 333 302
Width: 900
GlyphClass: 2
Flags: W
LayerCount: 2
Fore
SplineSet
0 100 m 1,0,-1
 0 600 l 1,1,-1
 100 600 l 1,2,-1
 100 700 l 1,3,-1
 600 700 l 1,4,-1
 600 600 l 1,5,-1
 700 600 l 1,6,-1
 700 100 l 1,7,-1
 600 100 l 1,8,-1
 600 0 l 1,9,-1
 100 0 l 1,10,-1
 100 100 l 1,11,-1
 0 100 l 1,0,-1
100 900 m 1,12,-1
 100 1000 l 1,13,-1
 600 1000 l 1,14,-1
 600 900 l 1,15,-1
 100 900 l 1,12,-1
200 100 m 1,16,-1
 500 100 l 1,17,-1
 500 600 l 1,18,-1
 200 600 l 1,19,-1
 200 100 l 1,16,-1
EndSplineSet
Validated: 1
EndChar

StartChar: Obreve
Encoding: 334 334 303
Width: 900
GlyphClass: 2
Flags: W
LayerCount: 2
Fore
SplineSet
0 100 m 1,0,-1
 0 800 l 1,1,-1
 100 800 l 1,2,-1
 100 900 l 1,3,-1
 600 900 l 1,4,-1
 600 800 l 1,5,-1
 700 800 l 1,6,-1
 700 100 l 1,7,-1
 600 100 l 1,8,-1
 600 0 l 1,9,-1
 100 0 l 1,10,-1
 100 100 l 1,11,-1
 0 100 l 1,0,-1
0 1100 m 1,12,-1
 0 1200 l 1,13,-1
 200 1200 l 1,14,-1
 200 1100 l 1,15,-1
 500 1100 l 1,16,-1
 500 1200 l 1,17,-1
 700 1200 l 1,18,-1
 700 1100 l 1,19,-1
 600 1100 l 1,20,-1
 600 1000 l 1,21,-1
 100 1000 l 1,22,-1
 100 1100 l 1,23,-1
 0 1100 l 1,12,-1
200 100 m 1,24,-1
 500 100 l 1,25,-1
 500 800 l 1,26,-1
 200 800 l 1,27,-1
 200 100 l 1,24,-1
EndSplineSet
Validated: 1
EndChar

StartChar: obreve
Encoding: 335 335 304
Width: 900
GlyphClass: 2
Flags: W
LayerCount: 2
Fore
SplineSet
0 100 m 1,0,-1
 0 600 l 1,1,-1
 100 600 l 1,2,-1
 100 700 l 1,3,-1
 600 700 l 1,4,-1
 600 600 l 1,5,-1
 700 600 l 1,6,-1
 700 100 l 1,7,-1
 600 100 l 1,8,-1
 600 0 l 1,9,-1
 100 0 l 1,10,-1
 100 100 l 1,11,-1
 0 100 l 1,0,-1
0 900 m 1,12,-1
 0 1000 l 1,13,-1
 200 1000 l 1,14,-1
 200 900 l 1,15,-1
 500 900 l 1,16,-1
 500 1000 l 1,17,-1
 700 1000 l 1,18,-1
 700 900 l 1,19,-1
 600 900 l 1,20,-1
 600 800 l 1,21,-1
 100 800 l 1,22,-1
 100 900 l 1,23,-1
 0 900 l 1,12,-1
200 100 m 1,24,-1
 500 100 l 1,25,-1
 500 600 l 1,26,-1
 200 600 l 1,27,-1
 200 100 l 1,24,-1
EndSplineSet
Validated: 1
EndChar

StartChar: Ohungarumlaut
Encoding: 336 336 305
Width: 900
GlyphClass: 2
Flags: W
LayerCount: 2
Fore
SplineSet
0 100 m 1,0,-1
 0 800 l 1,1,-1
 100 800 l 1,2,-1
 100 900 l 1,3,-1
 600 900 l 1,4,-1
 600 800 l 1,5,-1
 700 800 l 1,6,-1
 700 100 l 1,7,-1
 600 100 l 1,8,-1
 600 0 l 1,9,-1
 100 0 l 1,10,-1
 100 100 l 1,11,-1
 0 100 l 1,0,-1
200 100 m 1,12,-1
 500 100 l 1,13,-1
 500 800 l 1,14,-1
 200 800 l 1,15,-1
 200 100 l 1,12,-1
200 1100 m 1,16,-1
 200 1200 l 1,17,-1
 400 1200 l 1,18,-1
 400 1100 l 1,19,-1
 300 1100 l 1,20,-1
 300 1000 l 1,21,-1
 100 1000 l 1,22,-1
 100 1100 l 1,23,-1
 200 1100 l 1,16,-1
400 1000 m 1,24,-1
 400 1100 l 1,25,-1
 500 1100 l 1,26,-1
 500 1200 l 1,27,-1
 700 1200 l 1,28,-1
 700 1100 l 1,29,-1
 600 1100 l 1,30,-1
 600 1000 l 1,31,-1
 400 1000 l 1,24,-1
EndSplineSet
Validated: 5
EndChar

StartChar: ohungarumlaut
Encoding: 337 337 306
Width: 900
GlyphClass: 2
Flags: W
LayerCount: 2
Fore
SplineSet
0 100 m 1,0,-1
 0 600 l 1,1,-1
 100 600 l 1,2,-1
 100 700 l 1,3,-1
 600 700 l 1,4,-1
 600 600 l 1,5,-1
 700 600 l 1,6,-1
 700 100 l 1,7,-1
 600 100 l 1,8,-1
 600 0 l 1,9,-1
 100 0 l 1,10,-1
 100 100 l 1,11,-1
 0 100 l 1,0,-1
200 100 m 1,12,-1
 500 100 l 1,13,-1
 500 600 l 1,14,-1
 200 600 l 1,15,-1
 200 100 l 1,12,-1
200 900 m 1,16,-1
 200 1000 l 1,17,-1
 400 1000 l 1,18,-1
 400 900 l 1,19,-1
 300 900 l 1,20,-1
 300 800 l 1,21,-1
 100 800 l 1,22,-1
 100 900 l 1,23,-1
 200 900 l 1,16,-1
400 900 m 1,24,-1
 500 900 l 1,25,-1
 500 1000 l 1,26,-1
 700 1000 l 1,27,-1
 700 900 l 1,28,-1
 600 900 l 1,29,-1
 600 800 l 1,30,-1
 400 800 l 1,31,-1
 400 900 l 1,24,-1
EndSplineSet
Validated: 5
EndChar

StartChar: OE
Encoding: 338 338 307
Width: 900
GlyphClass: 2
Flags: W
LayerCount: 2
Fore
SplineSet
0 100 m 1,0,-1
 0 900 l 1,1,-1
 100 900 l 1,2,-1
 100 1000 l 1,3,-1
 800 1000 l 1,4,-1
 800 900 l 1,5,-1
 600 900 l 1,6,-1
 600 600 l 1,7,-1
 800 600 l 1,8,-1
 800 500 l 1,9,-1
 600 500 l 1,10,-1
 600 100 l 1,11,-1
 800 100 l 1,12,-1
 800 0 l 1,13,-1
 100 0 l 1,14,-1
 100 100 l 1,15,-1
 0 100 l 1,0,-1
200 100 m 1,16,-1
 400 100 l 1,17,-1
 400 900 l 1,18,-1
 200 900 l 1,19,-1
 200 100 l 1,16,-1
EndSplineSet
Validated: 1
EndChar

StartChar: oe
Encoding: 339 339 308
Width: 900
GlyphClass: 2
Flags: W
LayerCount: 2
Fore
SplineSet
0 100 m 1,0,-1
 0 600 l 1,1,-1
 100 600 l 1,2,-1
 100 700 l 1,3,-1
 300 700 l 1,4,-1
 300 600 l 1,5,-1
 200 600 l 1,6,-1
 200 100 l 1,7,-1
 300 100 l 1,8,-1
 300 600 l 1,9,-1
 400 600 l 1,10,-1
 400 700 l 1,11,-1
 700 700 l 1,12,-1
 700 600 l 1,13,-1
 800 600 l 1,14,-1
 800 300 l 1,15,-1
 500 300 l 1,16,-1
 500 200 l 1,17,-1
 600 200 l 1,18,-1
 600 100 l 1,19,-1
 800 100 l 1,20,-1
 800 0 l 1,21,-1
 500 0 l 1,22,-1
 500 100 l 1,23,-1
 400 100 l 1,24,-1
 400 0 l 1,25,-1
 100 0 l 1,26,-1
 100 100 l 1,27,-1
 0 100 l 1,0,-1
600 400 m 1,28,-1
 600 600 l 1,29,-1
 500 600 l 1,30,-1
 500 400 l 1,31,-1
 600 400 l 1,28,-1
EndSplineSet
Validated: 5
EndChar

StartChar: Racute
Encoding: 340 340 309
Width: 900
GlyphClass: 2
Flags: W
LayerCount: 2
Fore
SplineSet
0 0 m 1,0,-1
 0 100 l 1,1,-1
 100 100 l 1,2,-1
 100 800 l 1,3,-1
 0 800 l 1,4,-1
 0 900 l 1,5,-1
 600 900 l 1,6,-1
 600 800 l 1,7,-1
 700 800 l 1,8,-1
 700 500 l 1,9,-1
 600 500 l 1,10,-1
 600 300 l 1,11,-1
 700 300 l 1,12,-1
 700 0 l 1,13,-1
 500 0 l 1,14,-1
 500 300 l 1,15,-1
 400 300 l 1,16,-1
 400 400 l 1,17,-1
 300 400 l 1,18,-1
 300 0 l 1,19,-1
 0 0 l 1,0,-1
200 1000 m 1,20,-1
 200 1100 l 1,21,-1
 300 1100 l 1,22,-1
 300 1200 l 1,23,-1
 500 1200 l 1,24,-1
 500 1100 l 1,25,-1
 400 1100 l 1,26,-1
 400 1000 l 1,27,-1
 200 1000 l 1,20,-1
300 500 m 1,28,-1
 500 500 l 1,29,-1
 500 800 l 1,30,-1
 300 800 l 1,31,-1
 300 500 l 1,28,-1
EndSplineSet
Validated: 1
EndChar

StartChar: racute
Encoding: 341 341 310
Width: 900
GlyphClass: 2
Flags: W
LayerCount: 2
Fore
SplineSet
0 0 m 1,0,-1
 0 100 l 1,1,-1
 100 100 l 1,2,-1
 100 600 l 1,3,-1
 0 600 l 1,4,-1
 0 700 l 1,5,-1
 200 700 l 1,6,-1
 200 600 l 1,7,-1
 300 600 l 1,8,-1
 300 700 l 1,9,-1
 600 700 l 1,10,-1
 600 600 l 1,11,-1
 700 600 l 1,12,-1
 700 400 l 1,13,-1
 500 400 l 1,14,-1
 500 600 l 1,15,-1
 400 600 l 1,16,-1
 400 500 l 1,17,-1
 300 500 l 1,18,-1
 300 100 l 1,19,-1
 400 100 l 1,20,-1
 400 0 l 1,21,-1
 0 0 l 1,0,-1
200 800 m 1,22,-1
 200 900 l 1,23,-1
 300 900 l 1,24,-1
 300 1000 l 1,25,-1
 400 1000 l 1,26,-1
 400 1100 l 1,27,-1
 600 1100 l 1,28,-1
 600 1000 l 1,29,-1
 500 1000 l 1,30,-1
 500 900 l 1,31,-1
 400 900 l 1,32,-1
 400 800 l 1,33,-1
 200 800 l 1,22,-1
EndSplineSet
Validated: 1
EndChar

